<svg width="633" height="516" viewBox="0 0 633 516" fill="none" xmlns="http://www.w3.org/2000/svg">
<ellipse cx="256" cy="258.639" rx="256" ry="258.639" transform="matrix(0.999729 -0.0232791 -0.479704 0.87743 825.492 69.6143)" fill="#C8C8C8"/>
<circle cx="256" cy="256" r="256" transform="matrix(0.999729 -0.0232791 -0.479704 0.87743 807.396 54.4511)" fill="white"/>
<path fill-rule="evenodd" clip-rule="evenodd" d="M821.097 492.46C958.855 489.252 1124.11 388.638 1190.22 267.733C1256.32 146.827 1198.23 51.4142 1060.47 54.622C922.712 57.8297 757.452 158.443 691.351 279.349C625.25 400.255 683.339 495.667 821.097 492.46ZM846.686 437.334C954.352 434.848 1081.81 359.38 1131.37 268.771C1180.93 178.161 1133.83 106.722 1026.16 109.208C918.496 111.693 791.038 187.161 741.476 277.771C691.915 368.38 739.019 439.819 846.686 437.334Z" fill="#0D56A7"/>
<path d="M16.5554 399.415L-0.101562 372.056L58.3345 403.98L53.6255 423.347L16.5554 399.415Z" fill="#B1C0BE"/>
<path d="M16.571 399.403L150.504 151.306L458.086 24.357L633.705 141.229L499.737 386.271L189.499 515.63L16.571 399.403Z" fill="#B2C0BE"/>
<path d="M-0.754511 372.462L134.514 125.041L442.095 -1.90735L617.713 114.964L483.745 360.006L173.509 489.365L-0.754511 372.462Z" fill="#D3DCDB"/>
<path d="M15.1143 364.288L142.954 130.456L433.644 10.4791L599.619 120.932L473.009 352.516L179.809 474.772L15.1143 364.288Z" fill="#262E39"/>
<path d="M633.229 140.973L617.239 114.708L590.549 166.957L633.229 140.973Z" fill="#B1C0BE"/>
<path d="M310.242 104.897L303.54 103.906C305.782 101.294 308.251 99.3421 310.946 98.0494C313.641 96.7567 316.974 96.0642 320.944 95.9717C324.551 95.8877 327.029 96.204 328.379 96.9205C329.739 97.6201 330.456 98.5425 330.531 99.6875C330.634 100.815 329.843 102.92 328.159 106L323.544 114.285C322.256 116.642 321.428 118.382 321.061 119.504C320.722 120.609 320.557 121.792 320.568 123.055L312.569 123.242C312.616 122.775 312.739 122.082 312.938 121.164C313.034 120.746 313.09 120.47 313.106 120.337C311.081 121.548 309.12 122.466 307.225 123.092C305.33 123.718 303.491 124.051 301.707 124.093C298.561 124.166 296.487 123.475 295.484 122.019C294.5 120.563 294.634 118.69 295.886 116.4C296.714 114.885 297.863 113.529 299.332 112.331C300.81 111.116 302.458 110.181 304.275 109.523C306.121 108.849 308.573 108.243 311.631 107.707C315.751 106.996 318.687 106.354 320.439 105.781L320.825 105.074C321.571 103.711 321.716 102.752 321.262 102.197C320.817 101.626 319.53 101.365 317.401 101.414C315.962 101.448 314.702 101.726 313.62 102.25C312.548 102.757 311.422 103.639 310.242 104.897ZM317.912 110.402C316.711 110.73 314.873 111.13 312.399 111.603C309.924 112.076 308.232 112.523 307.32 112.943C305.906 113.624 304.923 114.469 304.371 115.48C303.828 116.473 303.78 117.322 304.229 118.026C304.677 118.73 305.553 119.067 306.857 119.037C308.315 119.003 309.936 118.549 311.72 117.677C313.048 117.014 314.118 116.217 314.931 115.283C315.474 114.673 316.21 113.517 317.139 111.817L317.912 110.402Z" fill="white"/>
<path d="M332.508 122.777L337.502 96.1845L345.357 96.0016L341.474 113.444L356.348 95.7457L364.145 95.5641L359.629 113.021L375.078 95.3095L383.048 95.1239L358.575 122.17L350.807 122.351L354.971 105.226L340.363 122.594L332.508 122.777Z" fill="white"/>
<path d="M374.008 114.257L382.716 112.982C382.306 114.355 382.431 115.39 383.09 116.09C383.759 116.772 385.042 117.091 386.941 117.047C389.032 116.998 390.789 116.625 392.212 115.927C393.179 115.439 393.879 114.8 394.312 114.008C394.607 113.47 394.659 113.028 394.468 112.684C394.25 112.356 393.518 112.066 392.275 111.812C386.443 110.701 382.94 109.644 381.765 108.641C380.14 107.25 380.031 105.266 381.44 102.69C382.71 100.367 384.823 98.3901 387.779 96.7589C390.735 95.1278 394.409 94.2611 398.801 94.1588C402.983 94.0614 405.764 94.5867 407.143 95.7346C408.523 96.8825 408.957 98.6176 408.445 100.94L400.144 102.355C400.388 101.319 400.202 100.533 399.585 99.9993C398.987 99.4647 397.844 99.2171 396.156 99.2564C394.027 99.306 392.36 99.6024 391.154 100.146C390.337 100.53 389.768 101.017 389.446 101.607C389.17 102.112 389.204 102.535 389.548 102.876C390.019 103.33 392.168 103.937 395.995 104.695C399.842 105.453 402.278 106.435 403.304 107.641C404.302 108.865 404.184 110.604 402.95 112.86C401.607 115.318 399.281 117.458 395.975 119.28C392.668 121.102 388.723 122.067 384.139 122.173C379.976 122.27 377.082 121.606 375.456 120.182C373.849 118.756 373.367 116.782 374.008 114.257Z" fill="white"/>
<path d="M297.417 152.209L300.655 152.616C298.783 155.312 296.647 157.386 294.246 158.838C291.862 160.29 289.534 161.042 287.262 161.095C284.507 161.159 282.776 160.222 282.07 158.284C281.388 156.331 282.11 153.41 284.236 149.522C286.378 145.604 288.876 142.649 291.731 140.656C294.611 138.648 297.46 137.612 300.28 137.546C302.455 137.496 303.959 138.047 304.792 139.2C305.641 140.353 305.625 142.113 304.745 144.479L300.976 145.132C301.473 143.612 301.507 142.488 301.079 141.758C300.659 141.014 299.86 140.655 298.684 140.683C296.928 140.724 295.095 141.443 293.185 142.842C291.299 144.226 289.544 146.403 287.92 149.373C286.243 152.442 285.577 154.649 285.922 155.995C286.284 157.341 287.327 157.994 289.051 157.954C290.404 157.922 291.804 157.443 293.249 156.516C294.719 155.574 296.108 154.139 297.417 152.209Z" fill="white"/>
<path d="M317.778 152.719L321.185 153.122C319.258 155.54 317.153 157.383 314.869 158.651C312.609 159.904 310.295 160.558 307.926 160.614C304.945 160.683 303.07 159.749 302.299 157.813C301.553 155.862 302.204 153.012 304.252 149.265C306.378 145.376 308.925 142.392 311.891 140.312C314.881 138.218 317.802 137.138 320.654 137.072C323.377 137.008 325.1 137.959 325.822 139.925C326.545 141.891 325.867 144.776 323.787 148.58L323.206 149.598L307.497 149.964C306.258 152.492 305.883 154.386 306.372 155.645C306.86 156.904 307.959 157.513 309.667 157.474C312.341 157.411 315.045 155.827 317.778 152.719ZM309.431 146.82L321.177 146.546C322.082 144.598 322.403 143.153 322.14 142.21C321.761 140.836 320.686 140.17 318.913 140.212C317.318 140.249 315.636 140.867 313.866 142.067C312.104 143.253 310.626 144.837 309.431 146.82Z" fill="white"/>
<path d="M321.981 159.784L334.296 137.257L337.511 137.182L335.644 140.597C337.331 138.994 338.653 137.93 339.608 137.405C340.587 136.866 341.503 136.586 342.357 136.566C343.549 136.539 344.542 136.92 345.334 137.712L342.189 141.282C341.604 140.751 340.893 140.496 340.055 140.515C339.298 140.533 338.477 140.782 337.594 141.264C336.71 141.745 335.912 142.406 335.198 143.246C333.95 144.713 332.878 146.267 331.981 147.907L325.533 159.701L321.981 159.784Z" fill="white"/>
<path d="M345.333 155.868L343.973 159.23C342.866 159.479 341.918 159.613 341.129 159.631C339.888 159.66 339.005 159.471 338.48 159.064C337.962 158.644 337.763 158.062 337.883 157.319C338.019 156.576 338.698 155.087 339.919 152.853L347.005 139.893L344.395 139.953L346.018 136.984L348.628 136.923L351.678 131.344L356.483 128.971L352.181 136.84L355.782 136.756L354.159 139.726L350.557 139.81L343.356 152.982C342.691 154.199 342.367 154.981 342.383 155.33C342.411 155.832 342.843 156.073 343.681 156.053C344.084 156.044 344.635 155.982 345.333 155.868Z" fill="white"/>
<path d="M361.426 132.499L363.827 128.109L367.379 128.026L364.979 132.417L361.426 132.499ZM346.826 159.205L359.142 136.678L362.694 136.595L350.378 159.122L346.826 159.205Z" fill="white"/>
<path d="M356.88 158.971L367.572 139.414L364.406 139.487L366.03 136.518L369.196 136.444L370.506 134.047C371.472 132.279 372.405 130.952 373.303 130.066C374.209 129.165 375.217 128.472 376.326 127.985C377.451 127.498 378.666 127.239 379.971 127.209C380.986 127.185 382.028 127.287 383.098 127.513L380.745 130.856C380.081 130.732 379.419 130.677 378.758 130.693C377.695 130.717 376.794 130.983 376.057 131.489C375.343 131.98 374.611 132.911 373.861 134.283L372.724 136.362L376.833 136.266L375.209 139.236L371.101 139.332L360.408 158.889L356.88 158.971Z" fill="white"/>
<path d="M381.776 132.026L384.176 127.635L387.729 127.552L385.329 131.943L381.776 132.026ZM367.175 158.731L379.491 136.204L383.044 136.122L370.728 158.649L367.175 158.731Z" fill="white"/>
<path d="M394.585 150.931L397.992 151.333C396.065 153.752 393.96 155.595 391.676 156.862C389.416 158.116 387.102 158.77 384.733 158.825C381.753 158.894 379.877 157.961 379.107 156.024C378.36 154.073 379.011 151.224 381.06 147.476C383.186 143.588 385.732 140.603 388.698 138.524C391.688 136.43 394.609 135.35 397.461 135.283C400.184 135.22 401.907 136.171 402.63 138.137C403.353 140.102 402.674 142.987 400.594 146.791L400.014 147.81L384.304 148.176C383.065 150.704 382.69 152.597 383.179 153.856C383.668 155.115 384.766 155.725 386.474 155.685C389.149 155.623 391.852 154.038 394.585 150.931ZM386.238 145.031L397.984 144.758C398.89 142.81 399.211 141.365 398.947 140.421C398.568 139.048 397.493 138.382 395.72 138.423C394.125 138.46 392.443 139.079 390.673 140.279C388.912 141.465 387.433 143.049 386.238 145.031Z" fill="white"/>
<path d="M412.443 157.677L413.997 154.835C412.757 155.939 411.471 156.792 410.139 157.396C408.815 157.985 407.565 158.293 406.388 158.321C403.907 158.379 402.317 157.403 401.617 155.395C400.941 153.373 401.624 150.495 403.665 146.762C405.064 144.202 406.654 142.022 408.433 140.221C410.213 138.421 412.008 137.074 413.816 136.18C415.642 135.286 417.376 134.82 419.019 134.781C420.195 134.754 421.132 135.004 421.83 135.533C422.551 136.046 422.975 136.783 423.102 137.744L429.202 126.586L432.779 126.503L415.778 157.6L412.443 157.677ZM407.303 146.698C405.71 149.611 405.099 151.761 405.47 153.149C405.857 154.536 406.816 155.211 408.346 155.176C409.861 155.141 411.545 154.431 413.399 153.048C415.253 151.664 416.93 149.601 418.43 146.857C420.154 143.704 420.854 141.419 420.531 140.002C420.216 138.572 419.212 137.876 417.52 137.916C416.022 137.95 414.35 138.68 412.505 140.106C410.668 141.517 408.934 143.714 407.303 146.698Z" fill="white"/>
<path d="M82.3916 355.299L99.3926 324.202L119.307 323.738L116.431 328.999L102.365 329.327L98.3412 336.687L110.498 336.404L107.622 341.665L95.4652 341.948L88.2403 355.163L82.3916 355.299Z" fill="white"/>
<path d="M118.082 343.033C119.288 340.827 120.886 338.808 122.874 336.974C124.863 335.141 126.91 333.753 129.016 332.811C131.122 331.868 133.182 331.373 135.196 331.326C138.58 331.248 140.601 332.352 141.258 334.641C141.924 336.915 141.406 339.607 139.705 342.718C138.437 345.038 136.786 347.142 134.75 349.033C132.731 350.923 130.64 352.36 128.479 353.346C126.341 354.317 124.297 354.826 122.348 354.871C119.222 354.944 117.2 353.958 116.282 351.913C115.364 349.868 115.964 346.908 118.082 343.033ZM123.612 343.219C122.367 345.496 121.932 347.209 122.305 348.359C122.686 349.495 123.594 350.046 125.028 350.013C126.43 349.98 127.951 349.365 129.591 348.168C131.232 346.972 132.679 345.228 133.931 342.937C135.153 340.702 135.577 339.01 135.203 337.86C134.83 336.71 133.934 336.151 132.516 336.184C131.115 336.217 129.585 336.832 127.929 338.029C126.288 339.226 124.849 340.956 123.612 343.219Z" fill="white"/>
<path d="M157.616 353.547L159.46 350.174C158.022 351.409 156.485 352.387 154.849 353.109C153.222 353.817 151.723 354.187 150.353 354.219C148.968 354.251 147.901 353.962 147.153 353.351C146.405 352.74 146.079 351.854 146.172 350.693C146.282 349.532 146.948 347.834 148.17 345.6L155.963 331.345L161.546 331.215L155.886 341.567C154.271 344.522 153.323 346.401 153.043 347.204C152.788 347.991 152.83 348.598 153.17 349.023C153.511 349.447 154.092 349.65 154.914 349.631C155.848 349.609 156.865 349.307 157.963 348.722C159.07 348.124 159.988 347.377 160.716 346.48C161.469 345.569 162.68 343.587 164.35 340.532L169.545 331.029L175.104 330.9L162.788 353.427L157.616 353.547Z" fill="white"/>
<path d="M193.67 352.708L188.087 352.838L194.372 341.341C195.633 339.036 196.367 337.504 196.575 336.745C196.783 335.986 196.709 335.409 196.353 335.012C196.013 334.615 195.481 334.425 194.756 334.442C193.821 334.464 192.829 334.752 191.777 335.307C190.734 335.848 189.804 336.589 188.988 337.529C188.171 338.47 187.056 340.234 185.641 342.822L180.063 353.025L174.48 353.155L186.796 330.627L191.968 330.507L190.159 333.816C191.773 332.522 193.326 331.543 194.818 330.88C196.326 330.217 197.781 329.869 199.183 329.836C200.81 329.799 201.975 330.141 202.677 330.865C203.402 331.574 203.654 332.511 203.431 333.675C203.232 334.824 202.53 336.502 201.324 338.708L193.67 352.708Z" fill="white"/>
<path d="M224.575 351.988L219.379 352.109L221.188 348.8C219.639 350.093 218.11 351.071 216.602 351.734C215.094 352.397 213.727 352.743 212.503 352.772C210.151 352.827 208.657 351.849 208.021 349.84C207.41 347.815 208.148 344.894 210.236 341.076C212.338 337.23 214.777 334.311 217.552 332.32C220.335 330.314 222.975 329.282 225.472 329.224C226.648 329.197 227.601 329.433 228.33 329.933C229.075 330.432 229.589 331.195 229.87 332.221L235.994 321.021L241.576 320.891L224.575 351.988ZM216.136 340.583C215.023 342.619 214.385 344.135 214.223 345.13C214.085 346.11 214.239 346.847 214.686 347.339C215.156 347.817 215.851 348.045 216.769 348.023C217.994 347.995 219.374 347.39 220.91 346.21C222.447 345.029 223.853 343.272 225.128 340.939C226.543 338.351 227.117 336.502 226.849 335.391C226.605 334.266 225.806 333.719 224.453 333.751C223.164 333.781 221.763 334.365 220.25 335.503C218.737 336.641 217.366 338.334 216.136 340.583Z" fill="white"/>
<path d="M248.717 335.971L244.199 335.113C246.056 332.822 247.956 331.165 249.899 330.142C251.866 329.105 254.17 328.556 256.813 328.494C259.165 328.44 260.803 328.688 261.727 329.239C262.65 329.79 263.104 330.561 263.086 331.553C263.077 332.53 262.353 334.334 260.915 336.964L257.063 343.923C255.996 345.874 255.289 347.329 254.94 348.286C254.599 349.23 254.377 350.233 254.273 351.297L248.762 351.425L249.382 348.981C247.891 349.993 246.462 350.759 245.095 351.28C243.745 351.8 242.458 352.074 241.233 352.103C239.187 352.15 237.84 351.588 237.192 350.417C236.552 349.231 236.781 347.634 237.878 345.626C238.574 344.353 239.447 343.237 240.497 342.277C241.546 341.317 242.709 340.543 243.985 339.955C245.261 339.367 247.083 338.829 249.449 338.341C252.313 337.758 254.376 337.228 255.639 336.752C256.319 335.508 256.659 334.697 256.658 334.32C256.681 333.928 256.485 333.619 256.068 333.391C255.676 333.149 254.988 333.039 254.005 333.062C253.006 333.086 252.109 333.302 251.312 333.711C250.532 334.121 249.667 334.874 248.717 335.971ZM253.517 340.634C252.668 340.905 251.402 341.227 249.718 341.602C247.778 342.038 246.41 342.503 245.616 342.996C244.821 343.489 244.215 344.117 243.798 344.881C243.326 345.744 243.218 346.465 243.473 347.045C243.752 347.611 244.335 347.884 245.221 347.863C246.011 347.845 246.92 347.593 247.948 347.109C248.985 346.61 249.826 346.032 250.471 345.375C251.133 344.717 251.932 343.533 252.867 341.822L253.517 340.634Z" fill="white"/>
<path d="M286.449 328.307L283.851 333.058L280.057 333.147L275.094 342.226C274.019 344.191 273.453 345.328 273.396 345.637C273.312 346.197 273.617 346.469 274.309 346.453C274.825 346.441 275.67 346.233 276.846 345.829L274.801 350.442C273.188 351.065 271.567 351.396 269.94 351.434C268.522 351.467 267.548 351.197 267.019 350.623C266.49 350.049 266.385 349.206 266.706 348.096C266.929 347.281 267.729 345.615 269.105 343.098L274.474 333.277L271.912 333.336L274.51 328.585L277.072 328.525L279.519 324.05L287.004 320.441L282.655 328.395L286.449 328.307Z" fill="white"/>
<path d="M297.974 325.023L300.989 319.508L306.572 319.378L303.557 324.893L297.974 325.023ZM283.988 350.605L296.304 328.078L301.887 327.948L289.571 350.475L283.988 350.605Z" fill="white"/>
<path d="M306.265 338.652C307.472 336.446 309.069 334.426 311.057 332.593C313.046 330.759 315.093 329.371 317.199 328.429C319.305 327.486 321.365 326.991 323.379 326.944C326.763 326.866 328.784 327.97 329.441 330.259C330.107 332.533 329.589 335.225 327.888 338.337C326.621 340.656 324.969 342.76 322.933 344.651C320.914 346.541 318.823 347.978 316.662 348.964C314.524 349.935 312.481 350.444 310.531 350.489C307.405 350.562 305.383 349.576 304.465 347.531C303.547 345.486 304.147 342.526 306.265 338.652ZM311.795 338.837C310.551 341.114 310.115 342.827 310.488 343.977C310.869 345.113 311.777 345.664 313.211 345.631C314.613 345.598 316.134 344.984 317.774 343.787C319.415 342.59 320.862 340.846 322.114 338.555C323.336 336.32 323.76 334.628 323.386 333.478C323.013 332.328 322.117 331.77 320.7 331.803C319.298 331.835 317.768 332.45 316.112 333.648C314.471 334.845 313.032 336.574 311.795 338.837Z" fill="white"/>
<path d="M351.116 349.041L345.534 349.171L351.819 337.675C353.079 335.37 353.813 333.838 354.021 333.079C354.229 332.32 354.156 331.743 353.8 331.346C353.46 330.949 352.928 330.759 352.203 330.776C351.268 330.798 350.275 331.086 349.224 331.641C348.181 332.182 347.251 332.922 346.435 333.863C345.618 334.803 344.503 336.568 343.088 339.155L337.51 349.358L331.927 349.488L344.243 326.961L349.415 326.841L347.606 330.15C349.22 328.856 350.773 327.877 352.265 327.214C353.773 326.551 355.228 326.203 356.629 326.17C358.257 326.132 359.421 326.475 360.123 327.199C360.849 327.908 361.101 328.844 360.878 330.008C360.679 331.158 359.976 332.836 358.77 335.042L351.116 349.041Z" fill="white"/>
<path d="M375.427 333.02L370.909 332.162C372.766 329.871 374.666 328.214 376.609 327.192C378.576 326.155 380.881 325.606 383.523 325.544C385.875 325.489 387.513 325.737 388.437 326.288C389.361 326.839 389.814 327.61 389.797 328.602C389.787 329.58 389.064 331.383 387.626 334.014L383.773 340.972C382.706 342.924 381.999 344.378 381.65 345.336C381.31 346.279 381.087 347.283 380.983 348.346L375.472 348.474L376.093 346.031C374.601 347.043 373.172 347.809 371.806 348.329C370.455 348.849 369.168 349.124 367.944 349.152C365.897 349.2 364.55 348.638 363.902 347.466C363.262 346.281 363.491 344.684 364.589 342.676C365.285 341.403 366.157 340.287 367.207 339.327C368.257 338.367 369.42 337.593 370.696 337.005C371.972 336.417 373.793 335.879 376.159 335.391C379.023 334.807 381.086 334.278 382.349 333.801C383.029 332.557 383.369 331.746 383.368 331.369C383.392 330.978 383.195 330.668 382.779 330.441C382.386 330.199 381.698 330.089 380.715 330.112C379.716 330.135 378.819 330.351 378.022 330.761C377.242 331.17 376.377 331.923 375.427 333.02ZM380.227 337.683C379.379 337.954 378.113 338.277 376.429 338.651C374.488 339.087 373.121 339.552 372.326 340.045C371.531 340.538 370.925 341.167 370.508 341.93C370.036 342.793 369.928 343.515 370.184 344.095C370.463 344.661 371.045 344.934 371.932 344.913C372.721 344.895 373.63 344.643 374.659 344.158C375.695 343.659 376.536 343.081 377.181 342.424C377.843 341.767 378.642 340.582 379.577 338.871L380.227 337.683Z" fill="white"/>
<path d="M391.224 348.108L408.225 317.011L413.808 316.881L396.807 347.978L391.224 348.108Z" fill="white"/>
<path d="M261.268 222.178L269.471 224.5C267.535 226.877 265.442 228.873 263.19 230.489C260.939 232.105 258.561 233.34 256.058 234.194C253.571 235.048 250.741 235.512 247.567 235.586C243.716 235.675 240.833 235.261 238.917 234.342C237.025 233.409 235.87 231.725 235.45 229.292C235.031 226.859 235.877 223.712 237.987 219.851C240.801 214.704 244.517 210.715 249.134 207.885C253.776 205.04 258.948 203.552 264.652 203.419C269.115 203.315 272.186 204.025 273.866 205.55C275.562 207.074 276.134 209.462 275.581 212.714L264.881 214.827C265.061 213.887 265.085 213.203 264.954 212.773C264.744 212.052 264.304 211.504 263.634 211.128C262.965 210.753 262.082 210.578 260.986 210.604C258.505 210.661 256.124 211.582 253.844 213.367C252.134 214.691 250.518 216.746 248.995 219.532C247.108 222.982 246.409 225.337 246.898 226.596C247.395 227.841 248.722 228.438 250.881 228.388C252.976 228.339 254.837 227.786 256.465 226.729C258.109 225.672 259.71 224.155 261.268 222.178Z" fill="white"/>
<path d="M285.944 203.447L295.805 203.217L278.804 234.314L268.943 234.543L285.944 203.447Z" fill="white"/>
<path d="M290.002 222.996C291.881 219.559 294.749 216.7 298.605 214.419C302.469 212.123 306.648 210.923 311.144 210.818C316.284 210.698 319.451 211.916 320.647 214.471C321.606 216.529 321.243 219.099 319.557 222.182C317.663 225.646 314.796 228.519 310.956 230.801C307.14 233.068 302.92 234.255 298.295 234.362C294.171 234.459 291.338 233.617 289.797 231.838C287.916 229.634 287.985 226.687 290.002 222.996ZM299.875 222.745C298.777 224.753 298.424 226.227 298.817 227.167C299.226 228.107 300.131 228.561 301.533 228.528C302.951 228.495 304.37 227.994 305.79 227.026C307.226 226.057 308.517 224.526 309.661 222.433C310.728 220.482 311.061 219.043 310.661 218.117C310.268 217.177 309.395 216.722 308.042 216.754C306.608 216.787 305.157 217.303 303.689 218.3C302.228 219.284 300.957 220.765 299.875 222.745Z" fill="white"/>
<path d="M345.146 232.769L335.962 232.983L337.957 229.334C335.768 230.865 333.798 231.965 332.049 232.634C330.315 233.303 328.433 233.661 326.403 233.708C323.696 233.771 321.956 233.113 321.182 231.735C320.433 230.343 320.866 228.169 322.481 225.213L330.321 210.874L340.206 210.644L333.433 223.031C332.66 224.446 332.409 225.443 332.681 226.023C332.952 226.603 333.628 226.88 334.707 226.855C335.883 226.828 337.059 226.409 338.233 225.6C339.423 224.791 340.579 223.361 341.7 221.31L347.626 210.471L357.462 210.242L345.146 232.769Z" fill="white"/>
<path d="M395.137 200.904L378.136 232.001L368.928 232.215L370.749 228.885C368.687 230.329 366.989 231.311 365.654 231.831C363.881 232.514 362.124 232.876 360.384 232.917C356.888 232.998 354.851 231.894 354.274 229.604C353.712 227.313 354.344 224.499 356.169 221.162C358.21 217.428 360.787 214.548 363.899 212.521C367.028 210.494 370.163 209.444 373.305 209.37C374.836 209.335 376.098 209.529 377.091 209.952C378.1 210.376 378.841 211.029 379.313 211.911L385.204 201.135L395.137 200.904ZM374.468 220.903C375.435 219.136 375.727 217.83 375.344 216.988C374.97 216.131 374.13 215.718 372.825 215.748C371.681 215.775 370.494 216.214 369.264 217.066C368.035 217.919 366.883 219.328 365.808 221.293C364.803 223.132 364.46 224.473 364.777 225.317C365.119 226.147 365.878 226.548 367.054 226.521C368.311 226.491 369.594 226.036 370.904 225.154C372.213 224.272 373.401 222.855 374.468 220.903Z" fill="white"/>
<path d="M154.35 257.569L172.549 257.145C176.512 257.053 179.025 257.811 180.086 259.42C181.163 261.028 180.867 263.36 179.197 266.414C177.48 269.554 175.06 272.032 171.934 273.85C168.825 275.668 165.063 276.628 160.648 276.731L154.654 276.871L148.346 288.41L137.349 288.666L154.35 257.569ZM158.098 270.571L160.781 270.508C162.892 270.459 164.548 270.106 165.75 269.45C166.96 268.78 167.839 267.942 168.388 266.938C168.921 265.963 169.003 265.144 168.633 264.482C168.263 263.821 167.055 263.514 165.008 263.562L161.891 263.634L158.098 270.571Z" fill="white"/>
<path d="M184.926 265.318L194.135 265.103L192.117 268.794C193.877 267.176 195.386 266.058 196.645 265.443C197.928 264.813 199.263 264.481 200.648 264.449C202.099 264.415 203.469 264.774 204.76 265.526L198.352 271.748C197.424 271.351 196.621 271.16 195.945 271.176C194.656 271.206 193.402 271.696 192.182 272.646C190.448 273.985 188.595 276.457 186.624 280.063L182.496 287.615L172.611 287.845L184.926 265.318Z" fill="white"/>
<path d="M212.67 271.876L203.744 271.225C204.887 269.774 206.013 268.631 207.122 267.796C208.255 266.945 209.616 266.202 211.205 265.564C212.347 265.105 213.774 264.737 215.484 264.46C217.194 264.182 218.968 264.022 220.805 263.98C223.753 263.911 226.041 264.004 227.667 264.26C229.301 264.501 230.463 265.067 231.152 265.959C231.642 266.575 231.808 267.465 231.65 268.628C231.499 269.776 231.134 270.88 230.554 271.941L225.115 281.889C224.535 282.95 224.152 283.783 223.964 284.387C223.801 284.977 223.722 285.733 223.727 286.654L214.495 286.869C214.441 286.298 214.439 285.866 214.488 285.571C214.546 285.263 214.696 284.785 214.939 284.137C213.054 285.256 211.348 286.063 209.82 286.559C207.74 287.222 205.548 287.58 203.244 287.634C200.182 287.705 198.194 287.137 197.28 285.93C196.381 284.722 196.43 283.206 197.428 281.382C198.363 279.671 199.704 278.251 201.451 277.121C203.198 275.991 205.757 275.122 209.129 274.513C213.174 273.777 215.814 273.268 217.049 272.988C218.291 272.694 219.641 272.321 221.097 271.868C221.677 270.807 221.833 270.071 221.566 269.658C221.298 269.246 220.536 269.054 219.279 269.083C217.668 269.121 216.336 269.375 215.283 269.846C214.461 270.214 213.59 270.891 212.67 271.876ZM218.72 276.216C217.135 276.672 215.52 277.08 213.876 277.439C211.623 277.952 210.107 278.441 209.328 278.906C208.525 279.386 207.961 279.922 207.636 280.516C207.265 281.195 207.226 281.747 207.518 282.173C207.833 282.585 208.515 282.778 209.562 282.754C210.658 282.729 211.801 282.472 212.99 281.983C214.196 281.494 215.174 280.913 215.924 280.239C216.698 279.551 217.379 278.67 217.966 277.595L218.72 276.216Z" fill="white"/>
<path d="M252.345 277.297L261.188 278.013C259.737 279.736 258.08 281.24 256.215 282.526C254.359 283.798 252.323 284.802 250.107 285.538C247.908 286.273 245.398 286.673 242.578 286.739C239.855 286.802 237.703 286.636 236.122 286.24C234.565 285.83 233.405 285.145 232.641 284.185C231.885 283.212 231.503 282.062 231.496 280.736C231.49 279.409 232.093 277.636 233.307 275.416C234.575 273.097 236.081 271.156 237.826 269.594C239.106 268.447 240.561 267.415 242.192 266.497C243.83 265.566 245.374 264.867 246.822 264.4C249.118 263.662 251.765 263.259 254.762 263.189C258.951 263.091 261.781 263.675 263.254 264.939C264.742 266.203 265.237 268.09 264.74 270.6L254.892 271.898C255.127 270.943 254.99 270.234 254.48 269.771C253.993 269.294 253.105 269.07 251.816 269.1C250.189 269.138 248.585 269.685 247.006 270.741C245.45 271.783 244.104 273.343 242.968 275.421C241.955 277.274 241.685 278.669 242.158 279.608C242.632 280.546 243.642 280.997 245.188 280.961C246.477 280.931 247.715 280.616 248.902 280.016C250.106 279.416 251.253 278.509 252.345 277.297Z" fill="white"/>
<path d="M290.273 254.404L285.588 262.974L291.002 262.848L287.557 269.148L282.144 269.274L277.772 277.271C277.246 278.232 277.003 278.866 277.042 279.172C277.102 279.646 277.534 279.873 278.34 279.854C279.065 279.837 280.18 279.63 281.686 279.232L279.153 285.175C276.465 285.699 274.065 285.985 271.955 286.034C269.506 286.091 267.852 285.857 266.993 285.333C266.135 284.808 265.729 283.994 265.776 282.89C265.846 281.772 266.57 279.954 267.946 277.437L272.283 269.503L268.658 269.588L272.102 263.288L275.727 263.203L277.989 259.067L290.273 254.404Z" fill="white"/>
<path d="M300.762 254.16L310.599 253.931L307.386 259.807L297.55 260.036L300.762 254.16ZM296.077 262.73L305.914 262.5L293.598 285.028L283.761 285.257L296.077 262.73Z" fill="white"/>
<path d="M304.796 273.709C306.675 270.273 309.542 267.414 313.399 265.132C317.263 262.837 321.442 261.636 325.938 261.532C331.077 261.412 334.245 262.63 335.441 265.185C336.4 267.242 336.037 269.813 334.351 272.896C332.457 276.36 329.59 279.233 325.75 281.515C321.934 283.781 317.713 284.969 313.089 285.076C308.964 285.172 306.132 284.331 304.591 282.552C302.71 280.348 302.778 277.4 304.796 273.709ZM314.669 273.459C313.571 275.467 313.218 276.941 313.611 277.881C314.02 278.821 314.925 279.275 316.327 279.242C317.745 279.209 319.164 278.708 320.584 277.74C322.02 276.771 323.311 275.24 324.455 273.147C325.522 271.195 325.855 269.757 325.455 268.831C325.062 267.89 324.189 267.436 322.835 267.468C321.401 267.501 319.95 268.016 318.483 269.014C317.022 269.997 315.751 271.479 314.669 273.459Z" fill="white"/>
<path d="M345.212 261.585L354.371 261.372L352.365 265.042C354.554 263.511 356.524 262.411 358.273 261.742C360.031 261.059 361.916 260.694 363.93 260.647C366.653 260.584 368.39 261.248 369.14 262.641C369.913 264.019 369.488 266.193 367.865 269.162L360.037 283.48L350.152 283.711L356.924 271.323C357.698 269.909 357.945 268.919 357.665 268.353C357.394 267.773 356.718 267.495 355.639 267.52C354.447 267.548 353.263 267.967 352.089 268.776C350.915 269.585 349.768 271.015 348.647 273.065L342.732 283.883L332.896 284.112L345.212 261.585Z" fill="white"/>
<path d="M399.391 273.559L379.67 274.018C379.089 275.4 378.952 276.422 379.257 277.085C379.674 278.039 380.648 278.498 382.179 278.462C383.146 278.44 384.18 278.206 385.282 277.762C385.961 277.481 386.792 276.994 387.775 276.301L397.038 276.86C394.318 279.157 391.641 280.825 389.005 281.864C386.377 282.888 383.105 283.446 379.19 283.537C375.79 283.616 373.344 283.261 371.85 282.472C370.364 281.669 369.476 280.371 369.184 278.576C368.916 276.768 369.459 274.626 370.812 272.151C372.737 268.63 375.576 265.751 379.328 263.513C383.097 261.276 387.245 260.104 391.772 259.999C395.446 259.913 398.079 260.333 399.673 261.26C401.266 262.186 402.112 263.562 402.211 265.389C402.31 267.216 401.548 269.614 399.924 272.583L399.391 273.559ZM391.647 269.656C392.366 267.992 392.503 266.809 392.06 266.107C391.632 265.405 390.742 265.07 389.388 265.101C387.826 265.138 386.279 265.711 384.749 266.822C383.782 267.514 382.851 268.534 381.955 269.881L391.647 269.656Z" fill="white"/>
<path d="M411.336 260.046L420.545 259.831L418.527 263.522C420.286 261.904 421.796 260.786 423.055 260.171C424.338 259.54 425.673 259.209 427.058 259.177C428.508 259.143 429.879 259.502 431.17 260.254L424.762 266.476C423.834 266.079 423.031 265.888 422.354 265.904C421.065 265.934 419.811 266.424 418.592 267.374C416.858 268.713 415.005 271.185 413.034 274.791L408.905 282.343L399.02 282.573L411.336 260.046Z" fill="white"/>
<path d="M402.395 117.838L413.429 97.6543L437.512 87.6547L451.141 96.7762L440.107 116.96L416.024 126.959L402.395 117.838Z" fill="#F1900B"/>
<path d="M417.531 115.691C415.646 115.735 415.174 115.746 413.948 113.732C413.214 112.525 410.932 110.739 415.603 108.588C417.703 107.621 418.615 111.584 420.365 110.519C421.76 109.67 432.553 102.406 437.188 98.8945C440.111 97.8053 440.781 102.079 438.443 102.95C435.521 104.039 419.888 115.636 417.531 115.691Z" fill="#FFDFB3"/>
<line y1="-0.5" x2="256.982" y2="-0.5" transform="matrix(0.999729 -0.0232791 -0.479704 0.87743 206.262 182.902)" stroke="white"/>
<line y1="-0.5" x2="256.982" y2="-0.5" transform="matrix(0.999729 -0.0232791 -0.479704 0.87743 135.01 313.228)" stroke="white"/>
</svg>
