<svg width="503" height="405" viewBox="0 0 503 405" fill="none" xmlns="http://www.w3.org/2000/svg">
<path d="M463.778 165C485.317 165 502.778 182.461 502.778 204C502.778 225.539 485.317 243 463.778 243H70.7784V165H463.778Z" fill="black"/>
<path d="M238.836 320.189C255.094 334.144 256.96 358.637 243.005 374.895C229.05 391.153 204.557 393.019 188.3 379.064L1.34654e-05 217.433L50.5366 158.558L238.836 320.189Z" fill="black"/>
<path d="M58.0498 266.657L0.217013 216.173L163.681 28.9163C177.622 12.9462 201.869 11.3013 217.839 25.2422C233.81 39.1831 235.454 63.4308 221.514 79.4009L58.0498 266.657Z" fill="black"/>
</svg>
