<svg width="1515" height="476" viewBox="0 0 1515 476" fill="none" xmlns="http://www.w3.org/2000/svg">
<path d="M112.945 240.367L131.495 208.284L135.313 208.286L116.763 240.369L112.945 240.367ZM111.305 227.042L114.453 221.597L136.953 221.611L133.805 227.056L111.305 227.042Z" fill="white"/>
<path d="M172.125 199.362L177.171 199.365L165.144 240.692L165.553 240.692L201.307 199.38L206.353 199.383L177.572 249.161L173.617 249.159L195.484 211.339L195.143 211.339L162.367 249.151L158.549 249.149L169.507 211.323L169.166 211.322L147.299 249.142L143.344 249.139L172.125 199.362Z" fill="white"/>
<path d="M195.689 249.951C193.325 249.949 191.715 249.146 190.858 247.54C190.013 245.935 189.924 243.69 190.592 240.805C191.271 237.92 192.725 234.549 194.955 230.693C197.204 226.804 199.661 223.41 202.326 220.51C205.003 217.61 207.692 215.359 210.392 213.756C213.104 212.153 215.642 211.352 218.005 211.353C220.369 211.355 221.973 212.158 222.818 213.763C223.675 215.369 223.759 217.622 223.071 220.523C222.394 223.424 220.931 226.819 218.682 230.708C216.453 234.564 214.004 237.935 211.336 240.818C208.68 243.702 205.996 245.945 203.284 247.548C200.584 249.151 198.052 249.952 195.689 249.951ZM198.668 244.798C200.463 244.799 202.32 244.144 204.238 242.832C206.156 241.52 208.012 239.795 209.805 237.656C211.599 235.518 213.217 233.201 214.66 230.705C216.103 228.21 217.169 225.885 217.858 223.729C218.547 221.574 218.696 219.831 218.305 218.502C217.915 217.172 216.821 216.507 215.026 216.506C213.23 216.505 211.369 217.168 209.442 218.496C207.514 219.824 205.649 221.566 203.846 223.72C202.044 225.875 200.421 228.2 198.978 230.696C197.535 233.191 196.474 235.508 195.794 237.647C195.114 239.787 194.974 241.513 195.374 242.826C195.775 244.139 196.872 244.797 198.668 244.798Z" fill="white"/>
<path d="M214.143 249.184L235.728 211.851L239.615 211.853L236.354 217.492L236.627 217.492C238.172 215.645 239.903 214.147 241.818 212.997C243.733 211.848 245.475 211.273 247.043 211.274C247.338 211.274 247.703 211.283 248.137 211.299C248.571 211.316 248.892 211.34 249.1 211.373L245.728 217.206C245.619 217.157 245.349 217.084 244.917 216.987C244.505 216.873 244.032 216.816 243.498 216.816C242.225 216.815 240.869 217.195 239.428 217.956C238.009 218.701 236.625 219.737 235.277 221.066C233.95 222.378 232.799 223.876 231.825 225.562L218.165 249.187L214.143 249.184Z" fill="white"/>
<path d="M241.733 249.98C239.21 249.978 237.493 249.183 236.581 247.593C235.691 245.988 235.58 243.751 236.25 240.882C236.94 237.998 238.391 234.643 240.602 230.819C242.813 226.995 245.25 223.625 247.914 220.709C250.599 217.777 253.295 215.493 256.002 213.857C258.731 212.206 261.277 211.381 263.64 211.382C265.004 211.383 266.163 211.708 267.118 212.357C268.073 213.006 268.674 214.06 268.922 215.519C269.179 216.962 268.942 218.874 268.213 221.257C267.483 223.639 266.112 226.572 264.097 230.056L262.692 232.486L242.51 232.474L245.377 227.515L261.468 227.525C262.686 225.419 263.477 223.539 263.842 221.886C264.218 220.233 264.143 218.928 263.616 217.971C263.1 217.015 262.115 216.536 260.661 216.535C259.059 216.534 257.344 217.1 255.518 218.234C253.712 219.351 251.977 220.809 250.312 222.607C248.647 224.405 247.22 226.333 246.03 228.391L244.119 231.697C242.489 234.516 241.448 236.906 240.996 238.867C240.565 240.812 240.668 242.296 241.305 243.317C241.951 244.323 243.087 244.826 244.712 244.827C245.769 244.827 246.845 244.617 247.941 244.197C249.058 243.76 250.177 243.112 251.298 242.254C252.429 241.379 253.54 240.294 254.63 238.998L257.617 240.556C256.121 242.435 254.478 244.087 252.688 245.513C250.907 246.922 249.076 248.023 247.197 248.816C245.327 249.593 243.505 249.981 241.733 249.98Z" fill="white"/>
<path d="M272.643 249.221L294.228 211.888L298.251 211.89L276.665 249.224L272.643 249.221ZM299.871 205.667C299.087 205.666 298.631 205.285 298.504 204.523C298.387 203.761 298.638 202.845 299.256 201.776C299.875 200.707 300.682 199.791 301.68 199.03C302.688 198.269 303.584 197.888 304.369 197.889C305.153 197.889 305.603 198.271 305.719 199.033C305.847 199.794 305.602 200.71 304.984 201.78C304.365 202.849 303.552 203.764 302.543 204.526C301.546 205.287 300.656 205.667 299.871 205.667Z" fill="white"/>
<path d="M317.278 211.902L314.467 216.763L300.354 216.754L303.164 211.893L317.278 211.902ZM285.806 249.229L310.371 206.743C311.608 204.604 312.991 202.822 314.52 201.397C316.049 199.971 317.582 198.902 319.119 198.19C320.656 197.478 322.05 197.122 323.3 197.123C324.288 197.123 325.03 197.237 325.523 197.465C326.017 197.692 326.361 197.903 326.556 198.097L322.53 203.055C322.382 202.958 322.168 202.836 321.888 202.69C321.62 202.544 321.197 202.471 320.617 202.47C319.288 202.469 318.051 202.947 316.907 203.902C315.775 204.858 314.675 206.26 313.607 208.107L289.829 249.232L285.806 249.229Z" fill="white"/>
<path d="M347.802 211.921L344.992 216.783L331.423 216.774L334.234 211.913L347.802 211.921ZM343.36 202.971L347.383 202.973L326.809 238.557C325.872 240.177 325.334 241.393 325.195 242.203C325.077 242.997 325.2 243.532 325.563 243.808C325.947 244.068 326.435 244.198 327.026 244.198C327.469 244.198 327.851 244.166 328.173 244.101C328.504 244.021 328.769 243.956 328.967 243.907L326.806 249.061C326.449 249.206 325.984 249.352 325.411 249.497C324.829 249.659 324.163 249.74 323.413 249.739C322.276 249.739 321.364 249.389 320.676 248.692C319.999 247.995 319.715 246.933 319.824 245.506C319.944 244.08 320.631 242.281 321.887 240.11L343.36 202.971Z" fill="white"/>
<path d="M349.838 226.803L336.853 249.261L332.83 249.259L361.611 199.481L365.634 199.484L355.066 217.761L355.407 217.762C357.135 215.834 358.941 214.303 360.824 213.17C362.728 212.02 364.708 211.446 366.765 211.447C368.549 211.448 369.817 211.96 370.567 212.981C371.327 213.987 371.472 215.535 371.002 217.626C370.553 219.7 369.401 222.342 367.546 225.55L353.83 249.272L349.807 249.27L363.298 225.936C365.013 222.971 365.799 220.678 365.656 219.057C365.534 217.42 364.524 216.6 362.627 216.599C361.309 216.598 359.897 216.995 358.393 217.788C356.9 218.581 355.411 219.739 353.928 221.262C352.457 222.785 351.093 224.632 349.838 226.803Z" fill="white"/>
<path d="M371.717 250.062C369.194 250.06 367.477 249.265 366.566 247.675C365.675 246.07 365.565 243.833 366.234 240.964C366.925 238.08 368.375 234.725 370.586 230.901C372.797 227.077 375.235 223.707 377.898 220.791C380.583 217.859 383.279 215.575 385.986 213.939C388.715 212.288 391.261 211.463 393.624 211.464C394.988 211.465 396.147 211.79 397.102 212.439C398.057 213.088 398.658 214.142 398.906 215.601C399.163 217.044 398.927 218.956 398.197 221.339C397.468 223.721 396.096 226.654 394.082 230.138L392.676 232.568L372.494 232.556L375.361 227.597L391.452 227.607C392.67 225.501 393.461 223.621 393.826 221.968C394.202 220.315 394.127 219.01 393.6 218.053C393.085 217.097 392.1 216.618 390.645 216.617C389.043 216.616 387.329 217.182 385.502 218.316C383.697 219.433 381.962 220.891 380.297 222.689C378.632 224.487 377.204 226.415 376.014 228.473L374.103 231.779C372.473 234.598 371.432 236.988 370.98 238.949C370.549 240.894 370.652 242.377 371.289 243.399C371.936 244.405 373.071 244.908 374.696 244.909C375.753 244.909 376.829 244.699 377.925 244.279C379.042 243.842 380.161 243.194 381.282 242.336C382.413 241.461 383.524 240.376 384.614 239.08L387.601 240.638C386.106 242.517 384.462 244.169 382.672 245.595C380.891 247.004 379.061 248.105 377.181 248.898C375.311 249.675 373.49 250.063 371.717 250.062Z" fill="white"/>
<path d="M403.172 249.303L431.953 199.525L444.158 199.533C446.59 199.535 448.249 200.136 449.135 201.336C450.031 202.519 450.284 204.116 449.895 206.126C449.515 208.12 448.623 210.332 447.218 212.762C445.981 214.901 444.693 216.667 443.353 218.06C442.024 219.453 440.694 220.555 439.362 221.365C438.041 222.174 436.769 222.773 435.544 223.161L435.263 223.647C436.275 223.745 437.039 224.281 437.557 225.254C438.074 226.227 438.172 227.621 437.85 229.436C437.528 231.251 436.608 233.471 435.09 236.096C433.647 238.592 431.952 240.836 430.004 242.828C428.056 244.821 425.887 246.4 423.497 247.565C421.106 248.731 418.536 249.313 415.786 249.311L403.172 249.303ZM410.491 243.959L418.878 243.964C421.639 243.966 424.04 243.205 426.079 241.683C428.14 240.144 429.803 238.281 431.067 236.094C432.042 234.409 432.64 232.853 432.862 231.427C433.094 229.984 432.901 228.833 432.284 227.974C431.676 227.098 430.611 226.66 429.088 226.659L420.497 226.653L410.491 243.959ZM423.533 221.403L431.374 221.408C432.646 221.409 434 221.053 435.435 220.341C436.882 219.629 438.281 218.624 439.632 217.328C440.996 216.033 442.183 214.51 443.195 212.76C444.46 210.572 444.998 208.716 444.811 207.193C444.633 205.653 443.384 204.882 441.066 204.88L433.089 204.875L423.533 221.403Z" fill="white"/>
<path d="M433.846 249.323L455.431 211.989L459.454 211.992L437.868 249.325L433.846 249.323ZM461.075 205.768C460.29 205.768 459.834 205.387 459.707 204.625C459.59 203.863 459.841 202.947 460.459 201.878C461.078 200.808 461.886 199.893 462.883 199.132C463.891 198.37 464.788 197.99 465.572 197.991C466.356 197.991 466.806 198.372 466.922 199.134C467.05 199.896 466.805 200.812 466.187 201.881C465.568 202.951 464.755 203.866 463.746 204.627C462.749 205.388 461.859 205.769 461.075 205.768Z" fill="white"/>
<path d="M447.26 264.114C445.317 264.113 443.852 263.756 442.867 263.042C441.872 262.344 441.241 261.42 440.975 260.269C440.71 259.134 440.68 257.918 440.884 256.621L445.943 253.415C445.914 254.096 445.924 254.874 445.975 255.749C446.017 256.641 446.333 257.411 446.924 258.06C447.517 258.725 448.604 259.058 450.183 259.059C452.297 259.06 454.463 258.332 456.681 256.875C458.899 255.417 460.908 253.133 462.706 250.022L467.091 242.438L466.75 242.438C466.061 243.118 465.154 243.961 464.027 244.965C462.922 245.953 461.638 246.836 460.177 247.613C458.737 248.374 457.164 248.754 455.46 248.753C453.346 248.751 451.861 248.037 451.003 246.61C450.157 245.183 450.033 243.108 450.629 240.386C451.238 237.663 452.666 234.357 454.914 230.468C457.125 226.644 459.522 223.314 462.105 220.479C464.697 217.628 467.284 215.425 469.865 213.871C472.456 212.3 474.853 211.515 477.058 211.517C478.762 211.518 479.88 211.924 480.412 212.734C480.964 213.529 481.212 214.437 481.156 215.458C481.121 216.463 481.063 217.29 480.984 217.938L481.393 217.938L484.822 212.008L488.708 212.01L466.504 250.413C464.649 253.621 462.629 256.23 460.445 258.239C458.263 260.263 456.042 261.745 453.782 262.684C451.525 263.639 449.351 264.116 447.26 264.114ZM458.985 243.6C460.598 243.601 462.266 243.076 463.989 242.023C465.712 240.97 467.434 239.456 469.157 237.479C470.879 235.503 472.537 233.137 474.13 230.383C475.685 227.693 476.773 225.319 477.395 223.261C478.017 221.202 478.108 219.59 477.669 218.422C477.23 217.255 476.192 216.671 474.556 216.67C472.851 216.669 471.075 217.283 469.226 218.514C467.389 219.745 465.587 221.397 463.82 223.471C462.064 225.545 460.455 227.845 458.993 230.373C457.494 232.966 456.453 235.259 455.868 237.252C455.305 239.229 455.258 240.786 455.727 241.921C456.217 243.039 457.303 243.599 458.985 243.6Z" fill="white"/>
<path d="M536.41 215.153L532.182 215.15C532.935 213.416 533.378 211.893 533.512 210.58C533.657 209.267 533.544 208.164 533.173 207.273C532.823 206.365 532.245 205.684 531.439 205.229C530.633 204.775 529.65 204.547 528.491 204.547C526.378 204.545 524.023 205.306 521.426 206.828C518.841 208.35 516.185 210.593 513.459 213.558C510.745 216.522 508.142 220.16 505.65 224.47C503.157 228.78 501.554 232.418 500.84 235.384C500.136 238.35 500.197 240.595 501.021 242.119C501.856 243.644 503.33 244.406 505.444 244.408C506.603 244.408 507.848 244.182 509.178 243.729C510.509 243.276 511.869 242.604 513.26 241.714C514.671 240.807 516.062 239.697 517.435 238.385C518.828 237.057 520.146 235.534 521.389 233.817L525.617 233.819C523.828 236.363 521.932 238.639 519.929 240.648C517.926 242.657 515.893 244.366 513.827 245.775C511.772 247.167 509.755 248.228 507.776 248.956C505.809 249.684 503.945 250.048 502.184 250.047C499.206 250.045 497.158 249.006 496.039 246.93C494.92 244.855 494.802 241.905 495.683 238.08C496.565 234.255 498.523 229.717 501.559 224.467C504.594 219.217 507.882 214.681 511.423 210.858C514.963 207.034 518.492 204.086 522.01 202.014C525.527 199.941 528.774 198.906 531.752 198.908C533.513 198.909 534.956 199.274 536.08 200.004C537.215 200.735 538 201.805 538.435 203.215C538.879 204.61 538.941 206.312 538.62 208.322C538.308 210.315 537.572 212.592 536.41 215.153Z" fill="white"/>
<path d="M538.432 264.172C536.489 264.171 535.024 263.813 534.039 263.099C533.044 262.402 532.413 261.477 532.147 260.326C531.882 259.191 531.852 257.976 532.056 256.679L537.115 253.473C537.085 254.153 537.096 254.931 537.147 255.807C537.188 256.698 537.505 257.469 538.096 258.117C538.689 258.782 539.775 259.115 541.355 259.116C543.469 259.118 545.635 258.39 547.853 256.932C550.071 255.475 552.079 253.19 553.878 250.079L558.263 242.496L557.922 242.496C557.233 243.176 556.325 244.018 555.199 245.023C554.093 246.011 552.81 246.893 551.349 247.67C549.909 248.431 548.336 248.811 546.632 248.81C544.518 248.809 543.033 248.095 542.175 246.668C541.329 245.241 541.205 243.166 541.801 240.443C542.409 237.72 543.838 234.414 546.086 230.525C548.297 226.701 550.694 223.372 553.277 220.537C555.869 217.685 558.456 215.483 561.037 213.928C563.627 212.357 566.025 211.573 568.23 211.574C569.934 211.575 571.052 211.981 571.584 212.792C572.136 213.587 572.384 214.494 572.328 215.516C572.292 216.521 572.235 217.347 572.156 217.996L572.565 217.996L575.994 212.065L579.88 212.068L557.676 250.471C555.821 253.679 553.801 256.287 551.617 258.296C549.434 260.321 547.214 261.803 544.954 262.741C542.697 263.696 540.523 264.173 538.432 264.172ZM550.156 243.658C551.77 243.659 553.438 243.133 555.161 242.081C556.883 241.028 558.606 239.513 560.329 237.537C562.051 235.56 563.709 233.195 565.301 230.44C566.857 227.75 567.945 225.376 568.567 223.318C569.188 221.26 569.28 219.647 568.841 218.48C568.402 217.312 567.364 216.728 565.728 216.727C564.023 216.726 562.247 217.341 560.398 218.572C558.561 219.803 556.759 221.455 554.991 223.528C553.235 225.602 551.627 227.903 550.165 230.431C548.666 233.023 547.624 235.316 547.04 237.31C546.477 239.287 546.43 240.843 546.899 241.978C547.389 243.097 548.475 243.657 550.156 243.658Z" fill="white"/>
<path d="M565.658 249.406L587.244 212.072L591.267 212.075L569.681 249.408L565.658 249.406ZM592.887 205.851C592.103 205.851 591.647 205.47 591.519 204.708C591.403 203.946 591.654 203.03 592.272 201.961C592.89 200.891 593.698 199.976 594.695 199.215C595.704 198.454 596.6 198.073 597.384 198.074C598.168 198.074 598.618 198.455 598.735 199.217C598.863 199.979 598.618 200.895 597.999 201.964C597.381 203.034 596.567 203.949 595.559 204.71C594.562 205.472 593.671 205.852 592.887 205.851Z" fill="white"/>
<path d="M620.044 212.093L588.776 249.42L584.685 249.418L596.589 212.078L600.953 212.081L590.979 241.836L591.252 241.836L615.68 212.09L620.044 212.093Z" fill="white"/>
<path d="M613.357 250.214C610.835 250.212 609.118 249.417 608.206 247.828C607.316 246.223 607.205 243.986 607.875 241.117C608.565 238.232 610.016 234.878 612.227 231.053C614.438 227.229 616.875 223.859 619.539 220.943C622.223 218.011 624.919 215.727 627.627 214.092C630.355 212.44 632.901 211.615 635.265 211.616C636.629 211.617 637.788 211.942 638.743 212.591C639.698 213.24 640.299 214.294 640.546 215.753C640.804 217.196 640.567 219.109 639.838 221.491C639.108 223.873 637.736 226.806 635.722 230.29L634.317 232.721L614.135 232.708L617.002 227.75L633.093 227.76C634.311 225.653 635.102 223.774 635.467 222.12C635.843 220.467 635.767 219.162 635.241 218.206C634.725 217.249 633.74 216.77 632.286 216.769C630.683 216.768 628.969 217.334 627.143 218.468C625.337 219.585 623.602 221.043 621.937 222.841C620.272 224.639 618.845 226.568 617.655 228.625L615.744 231.931C614.114 234.75 613.073 237.141 612.621 239.102C612.19 241.047 612.293 242.53 612.93 243.552C613.576 244.557 614.712 245.06 616.337 245.061C617.394 245.062 618.47 244.852 619.566 244.431C620.682 243.994 621.802 243.346 622.923 242.488C624.054 241.613 625.165 240.528 626.255 239.232L629.242 240.79C627.746 242.669 626.103 244.322 624.313 245.747C622.532 247.156 620.701 248.257 618.822 249.05C616.952 249.827 615.13 250.215 613.357 250.214Z" fill="white"/>
<path d="M666.064 220.486L661.608 221.942C661.877 221.083 662.024 220.249 662.049 219.438C662.095 218.612 661.898 217.931 661.457 217.395C661.016 216.86 660.211 216.592 659.04 216.592C657.438 216.591 655.798 217.116 654.121 218.169C652.465 219.205 651.173 220.526 650.245 222.13C649.421 223.556 649.133 224.682 649.383 225.509C649.632 226.336 650.37 227.025 651.597 227.577L654.697 228.941C656.569 229.752 657.597 230.993 657.779 232.663C657.972 234.316 657.313 236.447 655.805 239.056C654.568 241.195 653.031 243.107 651.193 244.791C649.366 246.476 647.405 247.804 645.309 248.775C643.212 249.746 641.147 250.231 639.113 250.23C636.443 250.229 634.71 249.401 633.916 247.747C633.122 246.093 633.41 243.678 634.78 240.502L639.385 239.143C638.587 241.152 638.403 242.66 638.834 243.665C639.276 244.67 640.32 245.174 641.968 245.175C643.843 245.176 645.66 244.61 647.418 243.476C649.197 242.326 650.55 240.949 651.477 239.345C652.227 238.049 652.536 236.963 652.406 236.088C652.285 235.196 651.692 234.531 650.626 234.093L647.106 232.632C645.177 231.82 644.141 230.563 644 228.861C643.88 227.143 644.564 224.995 646.054 222.419C647.272 220.312 648.764 218.449 650.53 216.829C652.308 215.209 654.186 213.938 656.163 213.016C658.151 212.093 660.066 211.632 661.907 211.633C664.498 211.635 666.064 212.446 666.604 214.068C667.156 215.689 666.976 217.828 666.064 220.486Z" fill="white"/>
<path d="M669.346 249.471L690.931 212.138L694.818 212.14L691.445 217.974L691.786 217.974C693.484 215.981 695.259 214.434 697.112 213.333C698.974 212.216 700.758 211.658 702.462 211.659C704.19 211.66 705.304 212.22 705.805 213.339C706.327 214.441 706.336 215.989 705.831 217.983L706.104 217.983C707.889 216.055 709.78 214.524 711.777 213.391C713.783 212.241 715.724 211.667 717.599 211.668C719.94 211.67 721.25 212.716 721.53 214.807C721.82 216.882 720.695 220.116 718.156 224.507L703.709 249.493L699.686 249.49L714.133 224.504C715.726 221.75 716.336 219.78 715.963 218.597C715.59 217.413 714.688 216.821 713.256 216.82C711.415 216.819 709.53 217.612 707.6 219.2C705.68 220.771 704.022 222.763 702.626 225.178L688.573 249.483L684.482 249.481L699.266 223.911C700.493 221.789 700.999 220.079 700.782 218.782C700.575 217.469 699.71 216.812 698.188 216.811C697.142 216.81 695.935 217.206 694.567 218C693.21 218.793 691.846 219.895 690.474 221.304C689.123 222.697 687.918 224.309 686.859 226.14L673.368 249.474L669.346 249.471Z" fill="white"/>
<path d="M721.592 250.282C719.069 250.281 717.352 249.485 716.441 247.896C715.55 246.291 715.44 244.054 716.109 241.185C716.8 238.3 718.25 234.946 720.461 231.122C722.672 227.298 725.11 223.928 727.773 221.012C730.458 218.079 733.154 215.795 735.861 214.16C738.59 212.508 741.136 211.683 743.499 211.685C744.863 211.686 746.022 212.01 746.977 212.659C747.932 213.308 748.533 214.362 748.781 215.821C749.038 217.264 748.802 219.177 748.072 221.559C747.343 223.942 745.971 226.875 743.956 230.358L742.551 232.789L722.369 232.776L725.236 227.818L741.327 227.828C742.545 225.722 743.336 223.842 743.701 222.189C744.077 220.536 744.002 219.231 743.475 218.274C742.96 217.317 741.975 216.838 740.52 216.837C738.918 216.836 737.204 217.403 735.377 218.536C733.572 219.654 731.837 221.111 730.172 222.91C728.507 224.708 727.079 226.636 725.889 228.694L723.978 231.999C722.348 234.819 721.307 237.209 720.855 239.17C720.424 241.115 720.527 242.598 721.164 243.62C721.81 244.625 722.946 245.128 724.571 245.129C725.628 245.13 726.704 244.92 727.8 244.499C728.917 244.062 730.036 243.415 731.157 242.556C732.288 241.682 733.399 240.596 734.489 239.3L737.476 240.858C735.98 242.738 734.337 244.39 732.547 245.815C730.766 247.224 728.936 248.325 727.056 249.119C725.186 249.895 723.365 250.283 721.592 250.282Z" fill="white"/>
<path d="M785.474 212.197L782.663 217.059L769.095 217.05L771.906 212.189L785.474 212.197ZM781.032 203.247L785.055 203.249L764.481 238.833C763.544 240.453 763.006 241.669 762.867 242.479C762.749 243.273 762.871 243.808 763.235 244.084C763.619 244.344 764.107 244.474 764.698 244.474C765.141 244.474 765.523 244.442 765.845 244.377C766.176 244.297 766.44 244.232 766.639 244.183L764.478 249.337C764.121 249.482 763.656 249.628 763.083 249.773C762.501 249.935 761.834 250.016 761.084 250.015C759.948 250.015 759.036 249.666 758.348 248.968C757.671 248.271 757.387 247.209 757.496 245.782C757.615 244.356 758.303 242.557 759.559 240.386L781.032 203.247Z" fill="white"/>
<path d="M769.939 249.535L791.525 212.201L795.548 212.204L773.962 249.537L769.939 249.535ZM797.168 205.98C796.384 205.98 795.928 205.599 795.8 204.837C795.684 204.075 795.935 203.159 796.553 202.09C797.171 201.02 797.979 200.105 798.976 199.344C799.985 198.582 800.881 198.202 801.665 198.203C802.449 198.203 802.9 198.584 803.016 199.346C803.144 200.108 802.899 201.024 802.28 202.093C801.662 203.163 800.849 204.078 799.84 204.839C798.843 205.6 797.952 205.981 797.168 205.98Z" fill="white"/>
<path d="M781.33 249.542L802.916 212.208L806.802 212.211L803.429 218.044L803.77 218.044C805.468 216.052 807.243 214.505 809.096 213.404C810.959 212.286 812.742 211.728 814.447 211.729C816.174 211.731 817.288 212.29 817.79 213.409C818.312 214.512 818.32 216.06 817.816 218.053L818.088 218.053C819.874 216.126 821.765 214.595 823.762 213.462C825.768 212.312 827.708 211.738 829.583 211.739C831.924 211.74 833.235 212.787 833.515 214.878C833.804 216.953 832.679 220.186 830.14 224.577L815.694 249.563L811.671 249.561L826.118 224.575C827.71 221.82 828.32 219.851 827.947 218.668C827.574 217.484 826.672 216.892 825.24 216.891C823.399 216.89 821.514 217.683 819.585 219.27C817.664 220.841 816.006 222.834 814.61 225.248L800.557 249.554L796.466 249.551L811.25 223.982C812.478 221.859 812.983 220.149 812.767 218.853C812.56 217.539 811.695 216.882 810.172 216.881C809.127 216.881 807.92 217.277 806.552 218.071C805.195 218.864 803.83 219.965 802.459 221.375C801.107 222.768 799.902 224.38 798.844 226.211L785.353 249.544L781.33 249.542Z" fill="white"/>
<path d="M833.576 250.353C831.053 250.351 829.336 249.556 828.425 247.967C827.534 246.361 827.424 244.124 828.094 241.256C828.784 238.371 830.235 235.016 832.446 231.192C834.657 227.368 837.094 223.998 839.758 221.082C842.442 218.15 845.138 215.866 847.846 214.231C850.574 212.579 853.12 211.754 855.484 211.755C856.847 211.756 858.007 212.081 858.961 212.73C859.916 213.379 860.517 214.433 860.765 215.892C861.022 217.335 860.786 219.248 860.056 221.63C859.327 224.012 857.955 226.945 855.941 230.429L854.535 232.86L834.354 232.847L837.221 227.889L853.311 227.899C854.529 225.792 855.321 223.912 855.685 222.259C856.062 220.606 855.986 219.301 855.459 218.345C854.944 217.388 853.959 216.909 852.504 216.908C850.902 216.907 849.188 217.473 847.362 218.607C845.556 219.724 843.821 221.182 842.156 222.98C840.491 224.778 839.064 226.706 837.874 228.764L835.963 232.07C834.332 234.889 833.291 237.28 832.839 239.241C832.408 241.186 832.511 242.669 833.148 243.69C833.795 244.696 834.93 245.199 836.555 245.2C837.612 245.201 838.689 244.991 839.785 244.57C840.901 244.133 842.02 243.485 843.142 242.627C844.273 241.752 845.383 240.667 846.474 239.371L849.461 240.929C847.965 242.808 846.322 244.461 844.531 245.886C842.75 247.295 840.92 248.396 839.041 249.189C837.17 249.966 835.349 250.354 833.576 250.353Z" fill="white"/>
<path d="M864.486 249.594L886.072 212.261L890.095 212.263L868.509 249.597L864.486 249.594ZM891.715 206.04C890.931 206.039 890.475 205.658 890.347 204.896C890.231 204.134 890.482 203.219 891.1 202.149C891.718 201.08 892.526 200.164 893.523 199.403C894.532 198.642 895.428 198.262 896.212 198.262C896.996 198.263 897.447 198.644 897.563 199.406C897.691 200.168 897.446 201.083 896.827 202.153C896.209 203.222 895.395 204.138 894.387 204.899C893.39 205.66 892.499 206.04 891.715 206.04Z" fill="white"/>
<path d="M892.885 227.146L879.899 249.604L875.877 249.601L897.463 212.268L901.349 212.271L897.976 218.104L898.317 218.104C900.027 216.209 901.839 214.686 903.755 213.536C905.679 212.371 907.63 211.788 909.607 211.789C911.38 211.791 912.631 212.31 913.361 213.348C914.101 214.37 914.235 215.926 913.765 218.017C913.305 220.091 912.156 222.716 910.32 225.892L896.604 249.615L892.581 249.612L906.072 226.279C907.768 223.346 908.555 221.061 908.433 219.423C908.321 217.77 907.333 216.943 905.469 216.941C904.185 216.941 902.808 217.337 901.337 218.13C899.878 218.924 898.418 220.082 896.958 221.605C895.498 223.127 894.14 224.974 892.885 227.146Z" fill="white"/>
<path d="M927.642 250.412C925.187 250.411 923.551 249.583 922.734 247.929C921.917 246.275 921.87 243.998 922.592 241.097C923.315 238.195 924.753 234.882 926.908 231.155C929.1 227.363 931.524 224.017 934.178 221.117C936.853 218.201 939.544 215.926 942.252 214.29C944.98 212.638 947.526 211.813 949.89 211.815C951.731 211.816 953.109 212.303 954.024 213.276C954.939 214.249 955.362 215.611 955.294 217.362C955.225 219.113 954.63 221.155 953.508 223.488L949.485 223.486C950.162 221.784 950.352 220.277 950.054 218.963C949.777 217.634 948.752 216.969 946.979 216.968C945.411 216.967 943.698 217.549 941.842 218.715C940.006 219.865 938.15 221.493 936.273 223.599C934.417 225.689 932.673 228.143 931.043 230.963C929.376 233.847 928.242 236.359 927.641 238.498C927.052 240.637 927.001 242.299 927.488 243.482C927.986 244.666 929.03 245.258 930.621 245.259C931.666 245.26 932.765 245.001 933.917 244.483C935.069 243.965 936.222 243.22 937.375 242.249C938.528 241.277 939.623 240.11 940.66 238.749L944.683 238.752C943.181 240.956 941.471 242.94 939.552 244.706C937.654 246.455 935.672 247.848 933.606 248.884C931.562 249.904 929.573 250.413 927.642 250.412Z" fill="white"/>
<path d="M977.071 199.869L948.29 249.647L944.267 249.645L973.049 199.867L977.071 199.869Z" fill="white"/>
<path d="M962.857 250.532C961.198 250.531 959.95 250.084 959.113 249.192C958.285 248.284 957.965 246.979 958.153 245.277C958.351 243.559 959.153 241.484 960.558 239.054C961.795 236.915 963.093 235.181 964.452 233.853C965.82 232.508 967.219 231.456 968.648 230.695C970.077 229.934 971.496 229.367 972.904 228.995C974.334 228.607 975.722 228.3 977.069 228.074C978.829 227.783 980.245 227.565 981.318 227.42C982.412 227.259 983.293 226.992 983.963 226.62C984.645 226.247 985.253 225.599 985.787 224.676L985.899 224.481C987.286 222.083 987.903 220.219 987.751 218.89C987.61 217.561 986.613 216.895 984.761 216.894C982.84 216.893 980.988 217.492 979.204 218.69C977.42 219.888 975.913 221.168 974.682 222.529L971.988 220.582C973.982 218.314 975.912 216.548 977.779 215.285C979.667 214.006 981.433 213.115 983.075 212.614C984.739 212.096 986.229 211.838 987.548 211.839C988.389 211.839 989.27 211.986 990.192 212.278C991.135 212.554 991.865 213.13 992.382 214.006C992.91 214.881 993.005 216.202 992.665 217.969C992.326 219.736 991.299 222.102 989.584 225.067L975.363 249.664L971.34 249.662L974.263 244.606L974.058 244.606C973.317 245.416 972.361 246.283 971.191 247.206C970.021 248.129 968.72 248.914 967.288 249.562C965.857 250.209 964.379 250.533 962.857 250.532ZM966.45 245.379C968.04 245.38 969.639 244.935 971.245 244.045C972.863 243.154 974.358 242.005 975.729 240.595C977.113 239.186 978.254 237.703 979.153 236.148L982.189 230.898C981.85 231.189 981.32 231.456 980.6 231.699C979.901 231.926 979.125 232.128 978.272 232.306C977.439 232.467 976.633 232.612 975.854 232.742C975.095 232.855 974.476 232.952 973.998 233.032C972.84 233.226 971.68 233.541 970.518 233.978C969.377 234.399 968.279 235.039 967.226 235.897C966.193 236.739 965.255 237.89 964.412 239.348C963.26 241.341 962.905 242.848 963.349 243.87C963.814 244.875 964.847 245.378 966.45 245.379Z" fill="white"/>
<path d="M1018 220.708L1013.55 222.164C1013.81 221.305 1013.96 220.471 1013.99 219.66C1014.03 218.834 1013.84 218.153 1013.39 217.617C1012.95 217.082 1012.15 216.814 1010.98 216.814C1009.38 216.813 1007.74 217.338 1006.06 218.391C1004.4 219.427 1003.11 220.748 1002.18 222.352C1001.36 223.778 1001.07 224.904 1001.32 225.731C1001.57 226.558 1002.31 227.247 1003.53 227.799L1006.63 229.163C1008.51 229.974 1009.53 231.215 1009.72 232.885C1009.91 234.538 1009.25 236.669 1007.74 239.278C1006.51 241.417 1004.97 243.329 1003.13 245.013C1001.3 246.698 999.342 248.026 997.246 248.997C995.15 249.968 993.085 250.453 991.051 250.452C988.38 250.45 986.648 249.623 985.853 247.969C985.059 246.315 985.347 243.9 986.717 240.724L991.323 239.365C990.524 241.374 990.341 242.882 990.771 243.887C991.213 244.892 992.258 245.396 993.905 245.397C995.78 245.398 997.597 244.832 999.355 243.698C1001.13 242.548 1002.49 241.171 1003.41 239.567C1004.16 238.271 1004.47 237.185 1004.34 236.31C1004.22 235.418 1003.63 234.753 1002.56 234.315L999.043 232.854C997.114 232.042 996.079 230.785 995.938 229.083C995.817 227.365 996.502 225.217 997.991 222.641C999.209 220.534 1000.7 218.671 1002.47 217.051C1004.25 215.431 1006.12 214.16 1008.1 213.237C1010.09 212.315 1012 211.854 1013.84 211.855C1016.44 211.857 1018 212.668 1018.54 214.29C1019.09 215.911 1018.91 218.05 1018 220.708Z" fill="white"/>
<path d="M1043.08 220.724L1038.62 222.18C1038.89 221.321 1039.04 220.486 1039.06 219.676C1039.11 218.849 1038.91 218.168 1038.47 217.633C1038.03 217.098 1037.23 216.83 1036.06 216.829C1034.45 216.828 1032.81 217.354 1031.14 218.407C1029.48 219.443 1028.19 220.763 1027.26 222.367C1026.44 223.793 1026.15 224.92 1026.4 225.747C1026.65 226.574 1027.39 227.263 1028.61 227.815L1031.71 229.178C1033.58 229.99 1034.61 231.231 1034.79 232.9C1034.99 234.554 1034.33 236.685 1032.82 239.294C1031.58 241.433 1030.05 243.345 1028.21 245.029C1026.38 246.714 1024.42 248.042 1022.32 249.013C1020.23 249.984 1018.16 250.469 1016.13 250.468C1013.46 250.466 1011.73 249.639 1010.93 247.985C1010.14 246.331 1010.43 243.916 1011.8 240.739L1016.4 239.381C1015.6 241.39 1015.42 242.898 1015.85 243.903C1016.29 244.908 1017.34 245.411 1018.98 245.412C1020.86 245.414 1022.68 244.847 1024.43 243.714C1026.21 242.564 1027.57 241.187 1028.49 239.583C1029.24 238.287 1029.55 237.201 1029.42 236.325C1029.3 235.434 1028.71 234.769 1027.64 234.33L1024.12 232.869C1022.19 232.058 1021.16 230.801 1021.02 229.099C1020.9 227.38 1021.58 225.233 1023.07 222.657C1024.29 220.55 1025.78 218.687 1027.55 217.067C1029.32 215.447 1031.2 214.176 1033.18 213.253C1035.17 212.331 1037.08 211.87 1038.92 211.871C1041.51 211.873 1043.08 212.684 1043.62 214.305C1044.17 215.927 1043.99 218.066 1043.08 220.724Z" fill="white"/>
<path d="M1079.33 212.383L1076.52 217.244L1062.95 217.235L1065.77 212.374L1079.33 212.383ZM1074.89 203.432L1078.91 203.435L1058.34 239.018C1057.4 240.639 1056.87 241.854 1056.73 242.664C1056.61 243.459 1056.73 243.994 1057.09 244.269C1057.48 244.529 1057.97 244.659 1058.56 244.659C1059 244.66 1059.38 244.627 1059.7 244.563C1060.03 244.482 1060.3 244.417 1060.5 244.369L1058.34 249.522C1057.98 249.668 1057.52 249.813 1056.94 249.959C1056.36 250.121 1055.69 250.201 1054.94 250.201C1053.81 250.2 1052.9 249.851 1052.21 249.153C1051.53 248.456 1051.25 247.394 1051.35 245.968C1051.47 244.541 1052.16 242.742 1053.42 240.571L1074.89 203.432Z" fill="white"/>
<path d="M1073.7 250.504C1071.34 250.503 1069.73 249.699 1068.87 248.094C1068.03 246.489 1067.94 244.244 1068.61 241.359C1069.29 238.474 1070.74 235.103 1072.97 231.247C1075.22 227.358 1077.68 223.964 1080.34 221.064C1083.02 218.164 1085.71 215.912 1088.41 214.309C1091.12 212.706 1093.66 211.906 1096.02 211.907C1098.38 211.909 1099.99 212.712 1100.83 214.317C1101.69 215.922 1101.77 218.176 1101.09 221.077C1100.41 223.978 1098.95 227.373 1096.7 231.262C1094.47 235.118 1092.02 238.488 1089.35 241.372C1086.7 244.256 1084.01 246.499 1081.3 248.102C1078.6 249.705 1076.07 250.506 1073.7 250.504ZM1076.68 245.352C1078.48 245.353 1080.34 244.697 1082.25 243.386C1084.17 242.074 1086.03 240.349 1087.82 238.21C1089.61 236.072 1091.23 233.755 1092.68 231.259C1094.12 228.764 1095.18 226.438 1095.87 224.283C1096.56 222.128 1096.71 220.385 1096.32 219.056C1095.93 217.726 1094.84 217.061 1093.04 217.06C1091.25 217.059 1089.38 217.722 1087.46 219.05C1085.53 220.378 1083.66 222.119 1081.86 224.274C1080.06 226.429 1078.44 228.754 1076.99 231.249C1075.55 233.745 1074.49 236.062 1073.81 238.201C1073.13 240.34 1072.99 242.067 1073.39 243.38C1073.79 244.693 1074.89 245.35 1076.68 245.352Z" fill="white"/>
<path d="M1115.09 250.53C1112.91 250.529 1111.44 249.742 1110.68 248.169C1109.93 246.58 1109.91 244.343 1110.64 241.458C1111.37 238.557 1112.88 235.13 1115.17 231.176C1117.43 227.255 1119.87 223.852 1122.48 220.969C1125.1 218.085 1127.7 215.858 1130.29 214.287C1132.88 212.716 1135.27 211.932 1137.48 211.933C1139.18 211.934 1140.3 212.34 1140.82 213.151C1141.36 213.946 1141.59 214.853 1141.53 215.875C1141.48 216.88 1141.42 217.706 1141.34 218.355L1141.68 218.355L1152.3 199.98L1156.33 199.982L1127.54 249.76L1123.66 249.758L1126.97 244.022L1126.5 244.021C1125.81 244.702 1124.89 245.56 1123.75 246.597C1122.61 247.617 1121.3 248.532 1119.82 249.342C1118.35 250.135 1116.78 250.531 1115.09 250.53ZM1118.62 245.378C1120.23 245.379 1121.94 244.78 1123.75 243.582C1125.57 242.367 1127.38 240.691 1129.2 238.552C1131.02 236.398 1132.75 233.91 1134.38 231.091C1135.99 228.304 1137.12 225.865 1137.76 223.774C1138.41 221.668 1138.52 220.031 1138.08 218.863C1137.65 217.68 1136.61 217.087 1134.98 217.086C1133.27 217.085 1131.49 217.708 1129.63 218.955C1127.8 220.186 1125.98 221.862 1124.19 223.985C1122.41 226.091 1120.76 228.456 1119.25 231.081C1117.71 233.739 1116.6 236.153 1115.91 238.325C1115.24 240.481 1115.1 242.199 1115.49 243.479C1115.89 244.744 1116.94 245.377 1118.62 245.378Z" fill="white"/>
<path d="M1146 250.55C1143.48 250.548 1141.76 249.753 1140.85 248.164C1139.96 246.559 1139.85 244.322 1140.52 241.453C1141.21 238.568 1142.66 235.213 1144.87 231.389C1147.08 227.565 1149.52 224.195 1152.18 221.279C1154.86 218.347 1157.56 216.063 1160.27 214.428C1163 212.776 1165.54 211.951 1167.91 211.952C1169.27 211.953 1170.43 212.278 1171.38 212.927C1172.34 213.576 1172.94 214.63 1173.19 216.089C1173.44 217.532 1173.21 219.445 1172.48 221.827C1171.75 224.209 1170.38 227.142 1168.36 230.626L1166.96 233.057L1146.78 233.044L1149.64 228.086L1165.73 228.096C1166.95 225.989 1167.74 224.109 1168.11 222.456C1168.48 220.803 1168.41 219.498 1167.88 218.542C1167.37 217.585 1166.38 217.106 1164.93 217.105C1163.32 217.104 1161.61 217.67 1159.78 218.804C1157.98 219.921 1156.24 221.379 1154.58 223.177C1152.91 224.975 1151.49 226.903 1150.3 228.961L1148.38 232.267C1146.75 235.086 1145.71 237.477 1145.26 239.438C1144.83 241.383 1144.93 242.866 1145.57 243.887C1146.22 244.893 1147.35 245.396 1148.98 245.397C1150.03 245.398 1151.11 245.188 1152.21 244.767C1153.32 244.33 1154.44 243.682 1155.56 242.824C1156.69 241.949 1157.81 240.864 1158.9 239.568L1161.88 241.126C1160.39 243.005 1158.74 244.658 1156.95 246.083C1155.17 247.492 1153.34 248.593 1151.46 249.386C1149.59 250.163 1147.77 250.551 1146 250.55Z" fill="white"/>
<path d="M1198.7 220.822L1194.25 222.278C1194.52 221.419 1194.66 220.585 1194.69 219.774C1194.74 218.948 1194.54 218.267 1194.1 217.731C1193.66 217.196 1192.85 216.928 1191.68 216.928C1190.08 216.926 1188.44 217.452 1186.76 218.505C1185.11 219.541 1183.81 220.861 1182.89 222.466C1182.06 223.892 1181.77 225.018 1182.02 225.845C1182.27 226.672 1183.01 227.361 1184.24 227.913L1187.34 229.277C1189.21 230.088 1190.24 231.329 1190.42 232.999C1190.61 234.652 1189.95 236.783 1188.45 239.392C1187.21 241.531 1185.67 243.443 1183.83 245.127C1182.01 246.812 1180.05 248.14 1177.95 249.111C1175.85 250.082 1173.79 250.567 1171.75 250.566C1169.08 250.564 1167.35 249.737 1166.56 248.083C1165.76 246.429 1166.05 244.014 1167.42 240.838L1172.03 239.479C1171.23 241.488 1171.04 242.996 1171.47 244.001C1171.92 245.006 1172.96 245.509 1174.61 245.511C1176.48 245.512 1178.3 244.946 1180.06 243.812C1181.84 242.662 1183.19 241.285 1184.12 239.681C1184.87 238.385 1185.18 237.299 1185.05 236.424C1184.93 235.532 1184.33 234.867 1183.27 234.429L1179.75 232.968C1177.82 232.156 1176.78 230.899 1176.64 229.197C1176.52 227.479 1177.2 225.331 1178.69 222.755C1179.91 220.648 1181.4 218.785 1183.17 217.165C1184.95 215.545 1186.83 214.274 1188.8 213.351C1190.79 212.429 1192.71 211.968 1194.55 211.969C1197.14 211.971 1198.7 212.782 1199.24 214.404C1199.8 216.025 1199.62 218.164 1198.7 220.822Z" fill="white"/>
<path d="M1188.49 249.799L1210.07 212.465L1214.09 212.468L1192.51 249.801L1188.49 249.799ZM1215.71 206.244C1214.93 206.244 1214.48 205.863 1214.35 205.101C1214.23 204.339 1214.48 203.423 1215.1 202.354C1215.72 201.284 1216.53 200.369 1217.52 199.608C1218.53 198.846 1219.43 198.466 1220.21 198.467C1221 198.467 1221.45 198.848 1221.56 199.61C1221.69 200.372 1221.45 201.288 1220.83 202.357C1220.21 203.427 1219.4 204.342 1218.39 205.103C1217.39 205.864 1216.5 206.245 1215.71 206.244Z" fill="white"/>
<path d="M1201.9 264.59C1199.96 264.589 1198.49 264.232 1197.51 263.518C1196.51 262.82 1195.88 261.896 1195.62 260.745C1195.35 259.61 1195.32 258.394 1195.52 257.097L1200.58 253.891C1200.55 254.572 1200.56 255.35 1200.62 256.225C1200.66 257.117 1200.97 257.887 1201.56 258.536C1202.16 259.201 1203.24 259.534 1204.82 259.535C1206.94 259.536 1209.1 258.808 1211.32 257.351C1213.54 255.893 1215.55 253.609 1217.35 250.498L1221.73 242.914L1221.39 242.914C1220.7 243.594 1219.79 244.437 1218.67 245.441C1217.56 246.429 1216.28 247.312 1214.82 248.089C1213.38 248.85 1211.8 249.23 1210.1 249.229C1207.99 249.227 1206.5 248.513 1205.64 247.086C1204.8 245.659 1204.67 243.584 1205.27 240.861C1205.88 238.139 1207.31 234.833 1209.55 230.944C1211.77 227.12 1214.16 223.79 1216.75 220.955C1219.34 218.104 1221.92 215.901 1224.51 214.347C1227.1 212.776 1229.49 211.991 1231.7 211.993C1233.4 211.994 1234.52 212.4 1235.05 213.21C1235.6 214.005 1235.85 214.913 1235.8 215.934C1235.76 216.939 1235.7 217.766 1235.62 218.414L1236.03 218.414L1239.46 212.484L1243.35 212.486L1221.14 250.889C1219.29 254.097 1217.27 256.706 1215.09 258.714C1212.9 260.739 1210.68 262.221 1208.42 263.16C1206.17 264.115 1203.99 264.592 1201.9 264.59ZM1213.63 244.076C1215.24 244.077 1216.91 243.552 1218.63 242.499C1220.35 241.446 1222.07 239.932 1223.8 237.955C1225.52 235.979 1227.18 233.613 1228.77 230.859C1230.33 228.169 1231.41 225.795 1232.04 223.737C1232.66 221.678 1232.75 220.066 1232.31 218.898C1231.87 217.731 1230.83 217.147 1229.2 217.146C1227.49 217.145 1225.72 217.759 1223.87 218.99C1222.03 220.221 1220.23 221.873 1218.46 223.947C1216.7 226.021 1215.1 228.321 1213.63 230.849C1212.13 233.442 1211.09 235.735 1210.51 237.728C1209.95 239.705 1209.9 241.262 1210.37 242.397C1210.86 243.515 1211.94 244.075 1213.63 244.076Z" fill="white"/>
<path d="M1246.13 227.368L1233.15 249.827L1229.13 249.824L1250.71 212.491L1254.6 212.493L1251.23 218.327L1251.57 218.327C1253.28 216.431 1255.09 214.909 1257 213.759C1258.93 212.593 1260.88 212.011 1262.86 212.012C1264.63 212.013 1265.88 212.533 1266.61 213.571C1267.35 214.592 1267.49 216.149 1267.02 218.239C1266.55 220.314 1265.41 222.939 1263.57 226.115L1249.85 249.837L1245.83 249.835L1259.32 226.501C1261.02 223.569 1261.81 221.283 1261.68 219.646C1261.57 217.993 1260.58 217.165 1258.72 217.164C1257.43 217.163 1256.06 217.56 1254.59 218.353C1253.13 219.146 1251.67 220.305 1250.21 221.827C1248.75 223.35 1247.39 225.197 1246.13 227.368Z" fill="white"/>
<path d="M1281.23 250.635C1278.71 250.634 1276.99 249.838 1276.08 248.249C1275.19 246.644 1275.08 244.407 1275.75 241.538C1276.44 238.653 1277.89 235.299 1280.1 231.475C1282.31 227.651 1284.75 224.281 1287.41 221.364C1290.1 218.432 1292.79 216.148 1295.5 214.513C1298.23 212.861 1300.78 212.036 1303.14 212.038C1304.5 212.039 1305.66 212.363 1306.62 213.012C1307.57 213.661 1308.17 214.715 1308.42 216.174C1308.68 217.617 1308.44 219.53 1307.71 221.912C1306.98 224.295 1305.61 227.228 1303.6 230.711L1302.19 233.142L1282.01 233.129L1284.88 228.171L1300.97 228.181C1302.19 226.075 1302.98 224.195 1303.34 222.542C1303.72 220.888 1303.64 219.584 1303.12 218.627C1302.6 217.67 1301.62 217.191 1300.16 217.19C1298.56 217.189 1296.84 217.756 1295.02 218.889C1293.21 220.007 1291.48 221.464 1289.81 223.263C1288.15 225.061 1286.72 226.989 1285.53 229.047L1283.62 232.352C1281.99 235.172 1280.95 237.562 1280.5 239.523C1280.06 241.468 1280.17 242.951 1280.8 243.973C1281.45 244.978 1282.59 245.481 1284.21 245.482C1285.27 245.483 1286.34 245.273 1287.44 244.852C1288.56 244.415 1289.68 243.768 1290.8 242.909C1291.93 242.035 1293.04 240.949 1294.13 239.653L1297.12 241.211C1295.62 243.091 1293.98 244.743 1292.19 246.168C1290.41 247.577 1288.58 248.678 1286.7 249.472C1284.83 250.248 1283.01 250.636 1281.23 250.635Z" fill="white"/>
<path d="M1298.64 249.868L1320.23 212.535L1324.11 212.537L1320.74 218.371L1321.08 218.371C1322.78 216.378 1324.56 214.831 1326.41 213.73C1328.27 212.613 1330.05 212.055 1331.76 212.056C1333.49 212.057 1334.6 212.617 1335.1 213.736C1335.62 214.838 1335.63 216.386 1335.13 218.38L1335.4 218.38C1337.19 216.452 1339.08 214.921 1341.07 213.788C1343.08 212.638 1345.02 212.064 1346.9 212.065C1349.24 212.067 1350.55 213.113 1350.83 215.204C1351.12 217.279 1349.99 220.512 1347.45 224.904L1333.01 249.89L1328.98 249.887L1343.43 224.901C1345.02 222.146 1345.63 220.177 1345.26 218.994C1344.89 217.81 1343.98 217.218 1342.55 217.217C1340.71 217.216 1338.83 218.009 1336.9 219.596C1334.98 221.168 1333.32 223.16 1331.92 225.575L1317.87 249.88L1313.78 249.878L1328.56 224.308C1329.79 222.185 1330.3 220.476 1330.08 219.179C1329.87 217.866 1329.01 217.209 1327.48 217.208C1326.44 217.207 1325.23 217.603 1323.86 218.397C1322.51 219.19 1321.14 220.292 1319.77 221.701C1318.42 223.094 1317.21 224.706 1316.16 226.537L1302.67 249.871L1298.64 249.868Z" fill="white"/>
</svg>
