<svg width="139" height="149" viewBox="0 0 139 149" fill="none" xmlns="http://www.w3.org/2000/svg">
<path d="M0 60C0 57.2386 2.23858 55 5 55H133C135.761 55 138 57.2386 138 60V134C138 142.284 131.284 149 123 149H15C6.71573 149 0 142.284 0 134V60Z" fill="black"/>
<path d="M0 60C0 57.2386 2.23858 55 5 55H133C135.761 55 138 57.2386 138 60V134C138 142.284 131.284 149 123 149H15C6.71572 149 0 142.284 0 134V60Z" fill="black"/>
<path d="M123.5 17C131.784 17 138.5 22.43 138.5 29.1279V35C138.5 37.7614 136.261 40 133.5 40H5.5C2.73858 40 0.5 37.7614 0.5 35V29.1279C0.5 22.43 7.21573 17 15.5 17H123.5Z" fill="black"/>
<rect x="26.5" y="9" width="21" height="8" fill="black"/>
<path d="M47.5 9.5C47.5 8.25244 47.2284 7.0171 46.7007 5.86451C46.1731 4.71191 45.3996 3.66464 44.4246 2.78249C43.4496 1.90033 42.2921 1.20056 41.0182 0.723144C39.7443 0.245725 38.3789 -5.45325e-08 37 0C35.6211 5.45325e-08 34.2557 0.245725 32.9818 0.723145C31.7079 1.20056 30.5504 1.90033 29.5754 2.78249C28.6004 3.66464 27.8269 4.71191 27.2993 5.86451C26.7716 7.0171 26.5 8.25244 26.5 9.5L37 9.5H47.5Z" fill="black"/>
<rect x="91" y="9" width="21" height="8" fill="black"/>
<path d="M112 9.5C112 8.25244 111.728 7.0171 111.201 5.86451C110.673 4.71191 109.9 3.66464 108.925 2.78249C107.95 1.90033 106.792 1.20056 105.518 0.723144C104.244 0.245725 102.879 -5.45325e-08 101.5 0C100.121 5.45325e-08 98.7557 0.245725 97.4818 0.723145C96.2079 1.20056 95.0504 1.90033 94.0754 2.78249C93.1004 3.66464 92.3269 4.71191 91.7993 5.86451C91.2716 7.0171 91 8.25244 91 9.5L101.5 9.5H112Z" fill="black"/>
</svg>
