<svg width="1101" height="1494" viewBox="0 0 1101 1494" fill="none" xmlns="http://www.w3.org/2000/svg">
<path d="M794.162 904.589C783.579 883.949 757.358 873.727 735.597 881.759L575.55 940.837C553.789 948.869 544.728 972.113 555.312 992.754L800.271 1470.48C805.844 1481.34 815.754 1489.32 827.064 1493.27L852.926 1291.85L1041.65 1411.57C1044.74 1402.5 1044.15 1392.11 1039.12 1382.31L794.162 904.589Z" fill="black"/>
<path d="M307.269 904.588C317.853 883.948 344.073 873.727 365.833 881.759L525.881 940.837C547.642 948.869 556.702 972.113 546.119 992.754L301.161 1470.48C295.588 1481.34 285.678 1489.32 274.368 1493.27L248.505 1291.85L59.7827 1411.57C56.6905 1402.5 57.2833 1392.11 62.31 1382.31L307.269 904.588Z" fill="black"/>
<path d="M457.769 52.4521C499.712 -17.4841 601.065 -17.484 643.009 52.4521L655.045 72.5215C681.417 116.494 735.073 135.863 783.451 118.873L806.908 110.635C885.329 83.0947 964.164 150.751 948.843 232.442L947.279 240.78C937.409 293.412 967.594 345.328 1018.22 362.787L1027.96 366.146C1108.46 393.91 1126.66 499.576 1060.09 552.677L1056.51 555.533C1014.01 589.426 1003.33 649.618 1031.56 696.064L1033.58 699.383C1077.4 771.47 1025.35 863.717 940.991 863.481L922.657 863.431C870.327 863.285 825.422 900.676 816.088 952.167L813.202 968.086C798.577 1048.77 702.911 1084.36 639.104 1032.87L618.22 1016.01C578.641 984.065 522.137 984.065 482.558 1016.01L461.674 1032.87C397.867 1084.36 302.2 1048.77 287.575 968.086L284.69 952.167C275.356 900.676 230.45 863.285 178.12 863.431L159.786 863.481C75.4256 863.717 23.3776 771.47 67.1974 699.383L69.2149 696.064C97.4483 649.618 86.7647 589.426 44.2716 555.533L40.6895 552.677C-25.8851 499.576 -7.68242 393.91 72.8224 366.146L82.5606 362.787C133.184 345.329 163.37 293.412 153.499 240.78L151.935 232.442C136.613 150.751 215.45 83.0943 293.87 110.635L317.327 118.873C365.705 135.863 419.36 116.494 445.733 72.5215L457.769 52.4521ZM550.889 264.019C399.563 264.019 276.889 385.349 276.889 535.019C276.889 684.688 399.563 806.018 550.889 806.019C702.215 806.019 824.889 684.688 824.889 535.019C824.889 385.349 702.215 264.019 550.889 264.019Z" fill="black"/>
</svg>
