<svg width="876" height="1219" viewBox="0 0 876 1219" fill="none" xmlns="http://www.w3.org/2000/svg">
<rect y="28.1326" width="875.487" height="1190.57" rx="10" fill="#426E87"/>
<rect x="60.3911" y="92.2749" width="748.703" height="615.167" fill="#394F80"/>
<path d="M672.369 266.322C645.362 270.973 627.669 252.068 622.293 242.878L708.191 228.062C707.629 238.439 699.376 261.671 672.369 266.322Z" fill="#3A5384"/>
<path d="M707.067 223.322C698.064 229.324 649.176 239.002 625.294 242.691C630.671 248.255 646.188 264.025 667.493 261.474C694.126 258.286 718.32 215.82 707.067 223.322Z" fill="#243767"/>
<path d="M236.521 603.79C233.366 490.475 209.174 426.888 194.054 403.604C193.421 402.629 195.111 400.699 196.198 401.109C201.167 402.985 206.653 403.344 208.368 397.795C211.557 387.48 194.865 364.411 183.987 354.659C175.617 347.155 179.992 338.356 183.565 334.468C183.819 334.192 184.212 334.101 184.569 334.217L228.661 348.492C229.237 348.679 229.845 348.315 229.953 347.719L246.411 256.923C246.431 256.813 246.432 256.701 246.415 256.591L242.068 228.698C241.994 228.221 242.271 227.759 242.727 227.6L258.141 222.231C258.449 222.124 258.685 221.873 258.774 221.56L298.196 82.4863C298.47 81.5209 299.836 81.5151 300.118 82.4781L303.616 94.4314C303.635 94.4941 303.647 94.5584 303.653 94.6234L317.121 245.58C317.138 245.775 317.098 245.971 317.005 246.144L309.707 259.671C309.551 259.96 309.547 260.308 309.696 260.6L328.48 297.437C328.66 297.79 328.614 298.216 328.364 298.524L317.283 312.107C317.194 312.216 317.129 312.342 317.092 312.478L238.515 604.073C238.214 605.19 236.553 604.946 236.521 603.79Z" fill="#4868A3"/>
<path d="M341.6 432.528L327.567 403.058C324.638 396.908 330.245 390.145 336.832 391.883L350.563 395.508C354.336 396.504 358.276 394.632 359.889 391.079L443.932 205.931L449.039 193.22C450.817 188.795 456.047 186.898 460.248 189.154L467.417 193.005C470.514 194.668 474.333 194.115 476.831 191.642L527.524 141.455C533.26 135.777 542.84 141.2 540.924 149.04L505.086 295.65C504.597 297.651 503.354 299.387 501.617 300.495L498.488 302.491C495.498 304.398 494.121 308.047 495.104 311.454L506.386 350.54C507.838 355.571 501.579 359.182 497.951 355.407C495.673 353.037 491.769 353.462 490.055 356.267L338.14 604.79C336.177 608.001 332.243 609.41 328.689 608.175L323.242 606.283C319.601 605.018 317.38 601.337 317.958 597.526L342.287 437.168C342.527 435.587 342.288 433.971 341.6 432.528Z" fill="#4868A3"/>
<path d="M492.943 335.062L340.655 589.744C336.159 597.263 324.586 593.125 325.876 584.46L347.491 439.275C347.641 438.263 347.597 437.232 347.359 436.238L343.796 421.323C342.236 414.793 349.259 409.574 355.061 412.951C359.03 415.261 364.125 413.569 365.925 409.345L451.898 207.542C452.088 207.094 452.23 206.628 452.32 206.15C453.408 200.369 460.87 198.672 464.351 203.415L464.949 204.229C467.647 207.905 473.046 208.159 476.077 204.753L516.836 158.939C522.47 152.606 532.793 158.236 530.52 166.402L495.391 292.633C494.906 294.375 493.32 295.58 491.512 295.58C488.941 295.58 487.028 297.958 487.579 300.469L493.891 329.242C494.328 331.232 493.989 333.314 492.943 335.062Z" fill="#39203B"/>
<path d="M485.006 328.402L335.341 578.407L361.41 431.93H369.288L453.31 229L462.125 244.941L525.517 151.166L488.757 282.264H473.378L485.006 328.402Z" fill="#EAA09C"/>
<path d="M62.2666 1120.56V608.945C62.2666 602.074 69.0366 597.249 75.5313 599.493L369.783 701.124C370.833 701.487 371.937 701.672 373.048 701.672H528.078C529.176 701.672 530.267 701.491 531.307 701.136L796.989 610.47C803.477 608.256 810.219 613.079 810.219 619.934V1120.56C810.219 1126.08 805.742 1130.56 800.219 1130.56H72.2666C66.7438 1130.56 62.2666 1126.08 62.2666 1120.56Z" fill="#384545" stroke="#2B5164" stroke-width="4"/>
<path d="M370.601 278.326C363.999 281.777 357.222 274.012 354.659 269.698L374.352 238.752C383.729 247.192 378.853 274.012 370.601 278.326Z" fill="#3B5384"/>
<path d="M361.617 270.178C354.546 272.702 341.744 261.616 336.228 255.757C332.742 251.581 339.031 236.982 349.392 231.197C359.157 225.745 368.199 227.817 373.653 235.929C376.23 239.761 370.456 267.024 361.617 270.178Z" fill="#253868"/>
<path d="M361.598 263.134C354.546 265.234 341.78 256.007 336.279 251.13C332.803 247.654 339.074 235.503 349.407 230.688C359.145 226.15 368.162 227.874 373.601 234.626C376.171 237.816 370.413 260.508 361.598 263.134Z" fill="#293D6D"/>
<path d="M370.601 278.326C363.999 281.777 357.222 274.012 354.659 269.698L374.352 238.752C383.729 247.192 378.853 274.012 370.601 278.326Z" fill="#3B5384"/>
<path d="M361.617 270.178C354.546 272.702 341.744 261.616 336.228 255.757C332.742 251.581 339.031 236.982 349.392 231.197C359.157 225.745 368.199 227.817 373.653 235.929C376.23 239.761 370.456 267.024 361.617 270.178Z" fill="#253868"/>
<path d="M361.598 263.134C354.546 265.234 341.78 256.007 336.279 251.13C332.803 247.654 339.074 235.503 349.407 230.688C359.145 226.15 368.162 227.874 373.601 234.626C376.171 237.816 370.413 260.508 361.598 263.134Z" fill="#293D6D"/>
<path d="M401.171 213.995C375.364 223.448 362.161 188.426 358.785 169.733C363.886 160.881 386.542 153.792 397.233 151.354C409.298 168.296 426.978 204.543 401.171 213.995Z" fill="#253868"/>
<path d="M398.545 150.791C430.954 182.149 414.175 208.494 401.734 217.746C391.418 217.746 405.86 208.932 410.924 199.179C415.988 189.426 406.423 161.669 398.545 156.23C392.244 151.879 395.92 150.791 398.545 150.791Z" fill="#3B5384"/>
<path d="M390.856 204.243C379.002 207.994 366.161 183.675 361.223 171.046C371.6 165.545 392.094 151.391 396.295 153.041C401.546 155.104 408.485 176.86 411.111 181.362C413.737 185.863 405.672 199.554 390.856 204.243Z" fill="#2C3D6E"/>
<path d="M667.186 151.727C604.619 139.573 550.274 164.083 562.84 184.55C583.451 218.121 589.284 218.473 598.662 215.496C645.925 200.492 729.753 163.88 667.186 151.727Z" fill="#3C5583"/>
<path d="M671.431 145.938C608.864 133.785 551.962 163.732 564.528 184.199C588.084 214.807 599.412 211.346 608.79 208.369C656.053 193.365 733.998 158.092 671.431 145.938Z" fill="#253868"/>
<path d="M667.536 139.494C604.969 127.341 553.848 168.939 560.632 177.754C584.189 208.363 592.703 203.27 603.956 199.698C651.219 184.694 730.103 151.647 667.536 139.494Z" fill="#2C3D6E"/>
<path d="M366.849 443.933L349.032 538.083L462.312 341.343L469.439 277.013H482.943L498.322 202.367L462.312 248.505H452.185L366.849 443.933Z" fill="#B8252D"/>
<path d="M371.351 443.558L417.488 346.406L424.803 366.287L371.351 443.558Z" fill="#FC765A"/>
<path d="M363.473 475.629L369.662 445.621L373.413 457.061L363.473 475.629Z" fill="#F9735E"/>
<path d="M528.143 408.861L373.98 623.158C371.466 626.653 372.214 631.546 375.616 634.186C378.407 636.351 382.322 636.457 385.198 634.407L648.529 446.731C649.885 445.765 651.508 445.246 653.172 445.246H665.163C668.757 445.246 671.909 442.849 672.871 439.387L679.176 416.689C679.51 415.488 680.119 414.382 680.956 413.458L685.122 408.861L774.146 298.793C774.561 298.278 774.912 297.715 775.189 297.114L781.913 282.547C782.398 281.496 782.649 280.352 782.649 279.194V271.895C782.649 268.639 780.676 265.708 777.66 264.483L774.904 263.364C772.267 262.292 769.26 262.703 767.006 264.442L674.263 336.001C671.041 338.487 666.367 336.19 666.367 332.12C666.367 330.82 665.851 329.573 664.932 328.654L661.219 324.941C660.659 324.381 660.247 323.691 660.019 322.932C658.566 318.09 651.576 318.513 650.716 323.494C650.648 323.888 650.53 324.273 650.367 324.638L643.856 339.162C642.963 341.153 640.03 340.771 639.677 338.618C639.268 336.123 635.664 336.174 635.325 338.679L633.738 350.423C633.615 351.336 633.143 352.165 632.422 352.737L631.304 353.624C629.804 354.814 627.575 354.06 627.105 352.204C626.432 349.548 622.659 349.549 621.988 352.205L620.617 357.63C620.368 358.614 619.759 359.469 618.911 360.026L563.621 396.326C560.611 398.302 556.652 398.024 553.948 395.647L548.944 391.247C545.102 387.869 539.12 388.916 536.653 393.398L528.143 408.861Z" fill="#4868A3"/>
<path d="M527.297 422.203L536.555 404.459C539.161 399.465 546.318 399.498 548.878 404.516C550.733 408.155 555.317 409.408 558.767 407.22L643.37 353.553C644.547 352.806 645.48 351.731 646.054 350.46L647.29 347.72C649.7 342.38 657.513 343.146 658.839 348.853C659.831 353.122 664.855 354.998 668.402 352.424L770.767 278.14C771.696 277.466 772.801 278.71 772.023 279.553C771.861 279.728 771.771 279.958 771.771 280.197V287.426C771.771 289.187 771.19 290.898 770.118 292.295L683.977 404.568C682.808 406.092 680.996 406.985 679.075 406.985C676.237 406.985 673.764 408.919 673.079 411.673L667.314 434.862C666.428 438.428 663.225 440.932 659.551 440.932H647.886C646.127 440.932 644.418 441.511 643.022 442.58L582.72 488.757L413.839 603.688C406.411 608.743 397.576 599.6 402.883 592.349L526.66 423.227C526.898 422.903 527.111 422.56 527.297 422.203Z" fill="#421E34"/>
<path d="M649.863 422.364L423.865 581.595L540.896 424.803L545.585 433.242L642.736 370.038L645.925 381.478L738.575 311.522L680.809 386.167L672.932 376.79L656.99 410.924V422.364H649.863Z" fill="#FFA28B"/>
<path d="M652.864 412.987L436.055 568.467L541.271 433.618L547.46 436.994L638.798 379.791L652.864 385.042L665.43 376.04L709.879 340.968L699.189 356.347L683.81 376.04L677.245 368.913L668.431 376.04L652.864 412.987Z" fill="#B6252E"/>
<path d="M499.823 496.072C492.446 506.075 476.716 526.98 472.815 530.581L506.012 503.949L499.823 496.072Z" fill="#D9D9D9"/>
<path d="M499.823 496.072C492.446 506.075 476.716 526.98 472.815 530.581L506.012 503.949L499.823 496.072Z" fill="#FE755A"/>
<path d="M506.012 488.57V482.568L536.02 444.495V453.123L588.909 420.864L506.012 488.57Z" fill="#D9D9D9"/>
<path d="M506.012 488.57V482.568L536.02 444.495V453.123L588.909 420.864L506.012 488.57Z" fill="#FE755A"/>
<path d="M238.658 588.126C242.304 496.481 212.341 424.926 208.136 418.815C207.953 418.549 207.806 418.234 207.806 417.911V407.235C207.806 406.683 208.254 406.235 208.806 406.235H215.88C216.404 406.235 216.84 405.835 216.864 405.312C217.804 384.913 200.318 359.145 189.49 346.417C188.838 345.65 189.588 344.472 190.556 344.75L233.201 356.983C233.765 357.145 234.347 356.788 234.458 356.211L254.095 254.508C254.119 254.383 254.119 254.254 254.095 254.129L249.861 232.252C249.741 231.635 250.214 231.062 250.842 231.062H262.371C262.821 231.062 263.216 230.761 263.335 230.327L297.146 106.89C297.44 105.819 298.999 105.953 299.106 107.058L301.769 134.474L309.435 246.091C309.45 246.318 309.388 246.543 309.258 246.73L302.106 257.023C301.898 257.322 301.869 257.71 302.03 258.036L320.75 296.021C320.949 296.425 320.853 296.912 320.517 297.211L309.693 306.813C309.54 306.948 309.433 307.126 309.385 307.324L240.811 588.46C240.52 589.65 238.609 589.351 238.658 588.126Z" fill="#39203B"/>
<path d="M301.019 293.517L246.441 540.146C252.593 488.682 232.25 436.681 221.31 417.113H229.749C231.85 395.507 224.998 373.351 221.31 364.974L246.441 375.852L259.195 258.82L268.947 254.319L286.952 176.298L296.517 244.566L286.952 254.319L301.019 293.517Z" fill="#EAA09C"/>
<path d="M249.63 495.884C248.568 476.129 242.841 433.317 228.437 420.114H233.126C233.864 408.299 233.585 382.819 226.708 374.01C226.591 373.87 226.48 373.734 226.374 373.601C226.487 373.733 226.598 373.869 226.708 374.01C230.109 378.07 238.063 384.712 245.317 381.666C252.819 378.515 261.946 300.707 265.572 262.196H271.949L286.578 189.802L288.453 245.504L278.138 253.194L294.08 294.08L249.63 495.884Z" fill="#B8252D"/>
<path d="M247.917 393.979L244.342 411.857C243.429 416.419 236.836 416.209 236.216 411.597C236.157 411.151 236.17 410.699 236.256 410.257L239.321 394.595C239.439 393.988 239.397 393.361 239.199 392.776C238.142 389.666 241.524 386.919 244.352 388.59L245.927 389.52C247.471 390.433 248.269 392.221 247.917 393.979Z" fill="#FF755F"/>
<path d="M253.03 373.979C254.998 370.177 260.773 372.023 260.17 376.261C259.616 380.162 254.224 380.747 252.845 377.057C252.47 376.051 252.537 374.933 253.03 373.979Z" fill="#FF755F"/>
<path d="M363.77 746.077L79.4715 629.648L60.3911 619.252V149.898H94.7359V600.54L363.77 694.1V673.309H524.045V694.1L779.723 600.54V143.289L808.344 149.898V629.648L524.045 746.077H363.77Z" fill="#BFBFBF"/>
<path d="M707.441 223.561C698.439 229.562 648.425 238.44 624.544 242.128C629.92 247.692 646 258.183 667.306 255.632C693.938 252.444 718.694 216.059 707.441 223.561Z" fill="#293D6D"/>
<path d="M59.8186 233.096C40.4967 226.068 14.7106 250.104 4.23273 263C-11.2177 194.033 81.3071 163.568 69.5861 153.849C60.2093 146.074 61.2985 136.28 63.0152 132.355C45.2561 89.1809 149.608 78.7892 157.138 76.8454C166.551 74.4156 422.281 57.0337 587.44 63.3884C752.6 69.7431 807.475 102.825 814.046 119.833C819.303 133.439 812.803 145.438 808.896 149.737C808.044 156.914 810.198 157.587 811.382 157.026C866.648 195.005 877.032 243.5 875.315 263C847.078 222.255 786.164 240.759 761.124 233.096C741.092 226.965 747.805 201.883 753.665 190.108C736.759 155.718 529.368 158.085 427.786 163.568C324.369 160.266 119.205 160.951 125.882 190.108C132.56 219.265 128.665 222.068 125.882 219.826C128.013 230.853 83.9709 241.88 59.8186 233.096Z" fill="#9A9A9A"/>
<rect x="16.8794" y="20.2554" width="148.165" height="147.04" fill="#92F7F5"/>
<path fill-rule="evenodd" clip-rule="evenodd" d="M2.62598 19.3177L4.50148 156.042L28.6955 177.61L158.668 177.611L178.173 156.042V27.1948L157.168 1.12524H22.3188L2.62598 19.3177ZM91.9003 150.041C68.3439 150.491 61.5796 146.477 61.142 144.414C64.5181 142.539 71.082 123.971 69.394 126.222C68.0437 128.022 65.0804 128.847 63.7675 129.035C44.4123 132.786 36.1976 121.22 34.5096 114.969V64.5174C38.2606 73.0697 44.3249 75.7079 46.8881 75.958C45.3877 70.519 45.5753 60.7664 49.7014 46.325C53.0023 34.7719 63.8302 28.2576 68.8316 26.4446C80.1471 26.8197 103.979 27.4949 108.78 27.1948C113.581 26.8947 112.781 29.6954 111.781 31.1333C107.73 33.684 106.717 39.8232 106.717 42.574C111.218 38.3728 122.096 38.3228 126.972 38.8229C144.602 44.8246 149.853 66.0178 149.853 69.0186V114.969C146.403 107.617 137.663 105.153 133.724 104.841C140.026 118.645 137.225 128.222 135.037 131.285C130.473 137.35 115.457 149.59 91.9003 150.041Z" fill="#4D9EB1"/>
<path fill-rule="evenodd" clip-rule="evenodd" d="M26.0698 177.798H158.481L179.674 155.48V88.8053V22.131L158.481 0H22.1313L2.62598 19.5053V155.48L26.0698 177.798ZM53.0771 162.794C34.6221 164.144 24.757 155.605 22.1313 151.166C26.2574 151.854 35.935 152.816 41.6365 151.166C47.3381 149.516 49.6387 143.101 50.0763 140.1C38.5232 144.752 25.6322 129.66 20.6308 121.533H26.0698C23.219 118.532 19.8806 107.529 18.5678 102.403C18.8804 82.2723 19.318 39.2356 18.5678 28.1326C17.8176 17.0296 22.3813 15.2541 24.757 15.7543C23.8567 25.957 29.5083 35.6347 32.4465 39.1981C33.7969 28.5452 38.8233 17.4422 50.0763 13.8788H59.6414C56.0404 17.4797 55.3903 22.131 55.5153 24.0065C59.2663 19.5053 71.5821 14.1288 77.2712 12.0033C99.0271 11.8157 143.364 11.5531 146.665 12.0033C149.966 12.4534 150.291 14.6915 150.041 15.7543C139.538 16.5045 134.662 25.3194 133.536 29.633C136.037 28.6328 143.064 27.2324 151.166 29.633C159.268 32.0337 161.044 38.1353 160.919 40.8861C154.167 39.0856 151.604 41.6363 151.166 43.1367C157.168 46.1375 162.919 54.1397 165.045 57.7657C165.045 86.0858 164.82 143.476 163.92 146.477C163.019 149.478 160.169 150.978 158.856 151.354C159.906 148.803 158.918 141.163 158.293 137.662C156.793 133.536 146.29 122.096 146.29 125.284C146.29 126.202 146.336 127.042 146.389 127.996C146.521 130.358 146.691 133.422 146.29 140.1C144.489 151.954 123.534 160.168 113.281 162.794C100.903 162.231 71.5321 161.444 53.0771 162.794Z" fill="#203F4C"/>
</svg>
