<svg width="35" height="24" viewBox="0 0 35 24" fill="none" xmlns="http://www.w3.org/2000/svg">
<g id="Discord_Slider">
<g id="Vector">
<path d="M34.4213 2.20731L33.3806 0.603436C33.1101 1.05747 32.6259 2.00856 32.4877 2.18701C32.3494 2.36546 33.7272 2.27706 34.4213 2.20731Z" fill="#2A2A2A"/>
<path d="M0.612464 22.7959L0.0720314 21.296L3.6474 20.5562L0.612464 22.7959Z" fill="#2B2B2B"/>
<path d="M1.52908 23.3518C0.693813 23.3525 0.354761 22.7664 0.771785 22.0427L11.6501 3.16409C12.0671 2.44038 13.0823 1.85312 13.9176 1.85241L33.5492 1.83587C34.3844 1.83516 34.7235 2.42128 34.3065 3.145L23.4281 22.0236C23.0111 22.7473 21.9959 23.3346 21.1607 23.3353L1.52908 23.3518Z" fill="#2A2A2A"/>
<path d="M0.951399 21.7508C0.119541 21.7515 -0.218127 21.1678 0.197194 20.4471L11.0817 1.55774C11.497 0.836974 12.5081 0.252113 13.3399 0.251412L32.5475 0.235229C33.3794 0.234528 33.7171 0.818253 33.3018 1.53901L22.4173 20.4283C22.0019 21.1491 20.9909 21.734 20.159 21.7347L0.951399 21.7508Z" fill="#1F1F1F"/>
</g>
<g id="Discord">
<path id="Discord-Symbol-Black" d="M22.3057 5.26261C22.0055 5.50752 21.7167 5.76087 21.4376 6.01983C20.2956 5.86049 19.0385 5.86155 17.7085 6.02297C17.731 5.76422 17.7307 5.51112 17.7126 5.26648C16.454 5.43909 15.1501 5.74109 13.8333 6.16684C10.1379 8.895 8.06306 11.5829 6.83953 14.2022C7.62483 14.9974 8.6376 15.5725 9.89837 15.9595C10.4567 15.5709 10.9906 15.1571 11.492 14.7264C11.1004 14.5721 10.7478 14.3783 10.4325 14.1536C10.5916 14.0804 10.749 14.0043 10.9016 13.9311C12.8972 14.9924 15.9182 14.9898 19.1427 13.9241C19.2078 14.0028 19.2777 14.0787 19.3557 14.1461C18.7794 14.3744 18.2046 14.5661 17.6298 14.7241C17.6351 15.1543 17.6924 15.5677 17.8032 15.9557C19.5114 15.5661 21.2536 14.96 22.9566 14.1627C25.0453 11.1238 25.6468 8.49103 25.1489 6.16012C24.3251 5.73618 23.3681 5.43607 22.3057 5.26823L22.3057 5.26261ZM13.1075 12.554C12.3051 12.5547 12.0024 11.925 12.4515 11.1456C12.9005 10.3663 13.9053 9.73268 14.7303 9.73199C15.5554 9.73129 15.8452 10.3666 15.3847 11.1432C14.9243 11.9197 13.926 12.5533 13.1075 12.554ZM18.5192 12.5495C17.7136 12.5501 17.4174 11.9204 17.8665 11.1411C18.3156 10.3617 19.3203 9.72812 20.1454 9.72743C20.9704 9.72673 21.2569 10.3621 20.7965 11.1386C20.336 11.9152 19.3378 12.5488 18.5192 12.5495Z" fill="#4451BD"/>
<g id="Collapseable">
<path id="segment" d="M17.8179 15.9377L17.1953 14.9926L18.1509 14.5297L18.7188 15.7099L17.8179 15.9377Z" fill="#4451BD"/>
<path id="segment_2" d="M9.29766 14.9997L9.90638 15.9258L11.4694 14.6968L10.8718 13.7539L9.29766 14.9997Z" fill="#4451BD"/>
<path id="segment_3" d="M6.22822 13.2469C6.15479 13.2642 6.64194 13.8565 6.87284 14.1595L7.63203 13.0917C7.18412 13.1168 6.30164 13.2295 6.22822 13.2469Z" fill="#4451BD"/>
<path id="segment_4" d="M24.4978 5.20272C24.7048 5.3009 25.0178 5.8715 25.151 6.14372L24.4161 6.16148C24.3571 5.80099 24.2908 5.10455 24.4978 5.20272Z" fill="#4451BD"/>
</g>
<path id="Discord_Symbol_Front" d="M21.7222 4.32678C21.422 4.57169 21.1332 4.82504 20.8541 5.084C19.7121 4.92466 18.455 4.92572 17.125 5.08714C17.1474 4.8284 17.1472 4.57529 17.129 4.33065C15.8705 4.50326 14.5666 4.80526 13.2498 5.23101C9.55439 7.95917 7.44897 10.6157 6.22543 13.2349C7.01073 14.0301 8.05409 14.6366 9.31485 15.0237C9.87316 14.6351 10.4071 14.2213 10.9085 13.7906C10.5169 13.6362 10.1643 13.4425 9.84895 13.2178C10.008 13.1445 10.1655 13.0685 10.3181 12.9952C12.3137 14.0566 15.3347 14.054 18.5592 12.9883C18.6242 13.067 18.6941 13.1428 18.7722 13.2103C18.1958 13.4385 17.6211 13.6303 17.0463 13.7882C17.0516 14.2185 17.1089 14.6318 17.2197 15.0198C18.9279 14.6303 20.67 14.0242 22.373 13.2269C24.4618 10.188 25.0633 7.5552 24.5654 5.2243C23.7416 4.80035 22.7846 4.50024 21.7222 4.3324L21.7222 4.32678ZM12.5239 11.6182C11.7216 11.6189 11.4188 10.9892 11.8679 10.2098C12.317 9.43046 13.3217 8.79686 14.1468 8.79616C14.9719 8.79546 15.2617 9.43079 14.8012 10.2073C14.3407 10.9839 13.3425 11.6175 12.5239 11.6182ZM17.9357 11.6136C17.1301 11.6143 16.8339 10.9846 17.2829 10.2053C17.732 9.4259 18.7367 8.79229 19.5618 8.7916C20.3869 8.7909 20.6734 9.42623 20.2129 10.2028C19.7525 10.9794 18.7543 11.6129 17.9357 11.6136Z" fill="#5868F1"/>
</g>
</g>
</svg>
