<svg width="525" height="627" viewBox="0 0 525 627" fill="none" xmlns="http://www.w3.org/2000/svg">
<path d="M224 39C224 17.4609 241.461 0 263 0C284.539 0 302 17.4609 302 39V432H224V39Z" fill="black"/>
<path d="M379.189 263.942C393.144 247.684 417.637 245.817 433.894 259.773C450.152 273.728 452.019 298.221 438.064 314.478L276.433 502.778L217.558 452.241L379.189 263.942Z" fill="black"/>
<path d="M325.657 444.728L275.173 502.561L87.9161 339.097C71.946 325.156 70.301 300.908 84.242 284.938C98.1829 268.968 122.431 267.323 138.401 281.264L325.657 444.728Z" fill="black"/>
<path d="M15 627C6.71573 627 0 620.284 0 612L0 552H525V612C525 620.284 518.284 627 510 627H15Z" fill="black"/>
<path d="M0 472.506V552H103L26.3822 462.736C17.3152 452.173 0 458.585 0 472.506Z" fill="black"/>
<path d="M525 472.506V552H422L498.618 462.736C507.685 452.173 525 458.585 525 472.506Z" fill="black"/>
</svg>
