<svg width="37" height="24" viewBox="0 0 37 24" fill="none" xmlns="http://www.w3.org/2000/svg">
<g id="Facebook_Icon">
<g id="Vector">
<path d="M2.0857 21.2327L1.36587 22.6552L0.459664 21.0887L2.0857 21.2327Z" fill="#C4C8F1"/>
<path d="M34.8018 1.92373L35.5335 0.491392L36.4489 2.07389L34.8018 1.92373Z" fill="#C4C8F1"/>
<path d="M10.7445 4.32871C11.7164 2.64238 14.0821 1.27387 16.0285 1.27206L34.597 1.2548C36.5433 1.25299 37.3333 2.61857 36.3614 4.3049L27.0893 20.3927C26.1174 22.079 23.7516 23.4476 21.8053 23.4494L3.2368 23.4666C1.29044 23.4684 0.500497 22.1029 1.4724 20.4165L10.7445 4.32871Z" fill="#C4C8F1"/>
<path d="M9.9301 2.90924C10.902 1.22291 13.2677 -0.145605 15.2141 -0.147414L33.7826 -0.164672C35.7289 -0.166481 36.5189 1.1991 35.547 2.88543L26.2749 18.9732C25.303 20.6596 22.9372 22.0281 20.9909 22.0299L2.4224 22.0472C0.476037 22.049 -0.313909 20.6834 0.657998 18.9971L9.9301 2.90924Z" fill="#4159D6"/>
</g>
<g id="Facebook">
<g id="fACEBOOKf">
<rect id="Rectangle 19" width="3.88396" height="12.1104" transform="matrix(1 -0.000929175 -0.499345 0.866403 17.0996 7.43506)" fill="#83C3FF"/>
<path id="Rectangle 20" d="M12.0024 11.1173L13.5079 8.58272L23.2687 8.57365L21.1806 11.3771L12.0024 11.1173Z" fill="#83C3FF"/>
<path id="Vector 4" d="M20.971 7.44309L17.0941 7.4467L17.3228 7.04983C17.5872 6.59099 17.9008 6.13312 18.2593 5.68223L18.66 5.25964C18.8507 5.05854 19.0559 4.86263 19.2738 4.6736L19.3956 4.56795C19.5631 4.42269 19.7411 4.28396 19.9277 4.15333C20.2511 3.92689 20.5974 3.72676 20.9551 3.55961L21.0162 3.53102C21.3159 3.39098 21.6204 3.27278 21.9241 3.17866L22.1282 3.11541C22.5179 2.99461 22.9046 2.90188 23.2825 2.8386L23.3989 2.81911C23.8761 2.73919 24.339 2.69869 24.78 2.69828L25.4383 2.69767L25.8101 2.72431C26.3123 2.7603 26.792 2.82889 27.2456 2.92955L25.791 5.45335L24.8605 5.45422L24.4113 5.45463C23.9598 5.45505 23.469 5.53084 22.9658 5.67786L22.5997 5.80984C22.3711 5.89225 22.1473 6.01279 21.9488 6.16037C21.7752 6.28946 21.6255 6.43585 21.5105 6.58918L21.4021 6.73358C21.3386 6.81824 21.2819 6.90374 21.2326 6.98935L20.971 7.44309Z" fill="#83C3FF"/>
</g>
<g id="fACEBOOKf_2">
<rect id="Rectangle 19_2" width="3.88396" height="12.1104" transform="matrix(1 -0.000929175 -0.499345 0.866403 16.8438 6.99365)" fill="white"/>
<path id="Rectangle 20_2" d="M12.1016 10.9686L13.7312 8.14103L23.7243 8.13175L21.4673 10.9599L12.1016 10.9686Z" fill="white"/>
<path id="Vector 4_2" d="M20.7152 7.00193L16.8382 7.00553L17.0669 6.60867C17.3314 6.14983 17.6449 5.69196 18.0034 5.24107L18.4042 4.81848C18.5949 4.61738 18.8001 4.42147 19.018 4.23244L19.1398 4.12678C19.3072 3.98153 19.4853 3.8428 19.6719 3.71217C19.9953 3.48572 20.3416 3.2856 20.6992 3.11845L20.7604 3.08986C21.06 2.94982 21.3646 2.83162 21.6683 2.7375L21.8723 2.67425C22.2621 2.55345 22.6488 2.46072 23.0266 2.39744L23.143 2.37795C23.6202 2.29803 24.0831 2.25753 24.5242 2.25712L25.1824 2.25651L25.5542 2.28315C26.0565 2.31914 26.5362 2.38773 26.9897 2.48839L25.5351 5.01219L24.6046 5.01306L24.1554 5.01347C23.7039 5.01389 23.2131 5.08968 22.71 5.2367L22.3439 5.36868C22.1152 5.45109 21.8914 5.57162 21.6929 5.7192C21.5193 5.8483 21.3697 5.99469 21.2546 6.14802L21.1463 6.29241C21.0827 6.37708 21.026 6.46257 20.9767 6.54818L20.7152 7.00193Z" fill="white"/>
</g>
<path id="Vector 5" d="M10.8027 17.4869L11.0578 17.9278L11.3364 17.4829L10.8027 17.4869Z" fill="#83C3FF"/>
<path id="Vector 7" d="M27.2405 2.93323L26.9854 2.49234L26.7097 2.96706L27.2405 2.93323Z" fill="#83C3FF"/>
<path id="Vector 6" d="M21.4519 10.9572L21.1766 11.3897L21.3954 11.3682L21.9165 10.6885L22.5115 9.88197L23.7905 8.25945L23.7176 8.13348L21.4519 10.9572Z" fill="#83C3FF"/>
</g>
</g>
</svg>
