<svg width="585" height="476" viewBox="0 0 585 476" fill="none" xmlns="http://www.w3.org/2000/svg">
<ellipse cx="256" cy="258.639" rx="256" ry="258.639" transform="matrix(0.999729 -0.0232791 -0.479704 0.87743 -474.508 26.6143)" fill="#C8C8C8"/>
<circle cx="256" cy="256" r="256" transform="matrix(0.999729 -0.0232791 -0.479704 0.87743 -492.604 11.4511)" fill="white"/>
<path fill-rule="evenodd" clip-rule="evenodd" d="M-478.903 449.46C-341.145 446.252 -175.885 345.638 -109.784 224.733C-43.6835 103.827 -101.773 8.41425 -239.531 11.622C-377.288 14.8297 -542.548 115.443 -608.649 236.349C-674.75 357.255 -616.661 452.667 -478.903 449.46ZM-453.314 394.334C-345.648 391.848 -218.189 316.38 -168.628 225.771C-119.066 135.161 -166.17 63.7222 -273.837 66.2075C-381.504 68.6928 -508.962 144.161 -558.524 234.771C-608.085 325.38 -560.981 396.819 -453.314 394.334Z" fill="#0D56A7"/>
<ellipse cx="256" cy="258.639" rx="256" ry="258.639" transform="matrix(0.999729 -0.0232791 -0.479704 0.87743 167.891 23.4052)" fill="#C8C8C8"/>
<circle cx="256" cy="256" r="256" transform="matrix(0.999729 -0.0232791 -0.479704 0.87743 149.795 8.24188)" fill="white"/>
<path fill-rule="evenodd" clip-rule="evenodd" d="M448.094 153.695C445.487 125.985 419.756 73.4723 344.497 77.7726C250.424 83.148 178.093 157.435 170.338 168.341L448.385 159.008L448.094 153.695ZM436.555 152.308C435.203 144.813 430.68 127.843 423.402 119.925L383.681 121.258C383.909 131.157 383.694 151.421 382.613 154.119L436.555 152.308ZM373.296 154.432C373.652 143.478 373.972 121.584 372.402 121.637L330.229 123.053L316.902 156.324L373.296 154.432ZM321.893 123.332L308.565 156.604L252.662 158.481C252.662 158.481 268.532 135.769 279.23 124.764L321.893 123.332ZM243.835 158.777C252.72 143.841 268.932 125.11 268.932 125.11L228.72 126.46C218.483 133.9 202.341 146.419 188.912 160.62L243.835 158.777ZM371.279 90.6245C384.722 90.883 408.489 104.014 415.676 112.644L381.839 113.78C381.809 110.232 376.14 97.4107 371.279 90.6245ZM370.56 114.158C369.579 106.946 362.776 90.1114 344.458 87.5326L333.291 115.409L370.56 114.158ZM335.761 88.7116L324.955 115.689L287.686 116.94C312.383 93.932 329.953 88.3151 335.761 88.7116ZM307.039 92.7807C297.772 99.006 282.181 111.358 277.388 117.285L243.551 118.421C255.423 110.925 284.061 96.0359 307.039 92.7807Z" fill="#958A6E" fill-opacity="0.44"/>
<path fill-rule="evenodd" clip-rule="evenodd" d="M115.737 310.833C119.878 338.534 148.339 389.796 222.713 381.007C315.681 370.022 383.221 291.052 390.298 279.629L115.15 305.509L115.737 310.833ZM127.255 311.543C129.016 318.997 134.454 335.788 142.115 343.315L181.421 339.618C180.64 329.681 179.715 309.298 180.635 306.522L127.255 311.543ZM189.855 305.654C190.117 316.687 191.03 338.714 192.583 338.568L234.316 334.643L245.661 300.405L189.855 305.654ZM242.565 333.867L253.911 299.629L309.231 294.426C309.231 294.426 294.772 318.198 284.784 329.896L242.565 333.867ZM317.966 293.604C309.995 309.146 294.974 328.937 294.974 328.937L334.766 325.194C344.498 317.107 359.799 303.565 372.316 288.492L317.966 293.604ZM195.438 369.677C182.096 370.215 157.794 358.426 150.184 350.176L183.668 347.027C183.897 350.591 190.237 363.144 195.438 369.677ZM194.829 345.977C196.207 353.169 203.897 369.688 222.204 371.194L231.709 342.508L194.829 345.977ZM230.76 369.492L239.959 341.732L276.839 338.263C253.645 362.857 236.541 369.546 230.76 369.492ZM259.008 363.698C267.846 356.89 282.611 343.548 287.03 337.305L320.513 334.155C309.164 342.395 281.607 359.062 259.008 363.698Z" fill="#958A6E" fill-opacity="0.44"/>
<path fill-rule="evenodd" clip-rule="evenodd" d="M163.496 446.251C301.253 443.043 466.513 342.429 532.614 221.524C598.715 100.618 540.626 5.20508 402.868 8.41282C265.11 11.6206 99.8502 112.234 33.7493 233.14C-32.3515 354.045 25.7378 449.458 163.496 446.251ZM189.084 391.124C296.751 388.639 424.209 313.171 473.771 222.561C523.332 131.952 476.228 60.5131 368.562 62.9984C260.895 65.4837 133.436 140.952 83.8747 231.561C34.3133 322.171 81.4171 393.61 189.084 391.124Z" fill="#742B8B"/>
<path fill-rule="evenodd" clip-rule="evenodd" d="M461.437 149.559C462.666 118.902 441.173 60.3941 354.282 63.6655C245.668 67.7546 151.48 148.385 140.934 160.279L460.961 155.433L461.437 149.559ZM224.314 152.556C236.769 136.233 258.196 115.863 258.196 115.863L211.913 116.564C199.05 124.581 178.649 138.091 161.099 153.513L224.314 152.556ZM319.153 114.94L298.818 151.428L234.474 152.402C234.474 152.402 256.116 127.628 270.049 115.683L319.153 114.94ZM373.321 150.3C375.396 138.208 379.095 114.032 377.289 114.06L328.749 114.795L308.413 151.282L373.321 150.3ZM446.132 149.197C445.724 140.892 443.124 122.059 435.989 113.171L390.271 113.863C389.025 124.801 385.694 147.179 384.045 150.137L446.132 149.197ZM380.722 79.7835C396.086 80.3331 421.322 95.303 428.243 104.977L389.298 105.566C389.803 101.647 385.259 87.3745 380.722 79.7835ZM376.316 105.763C376.289 97.7776 371.057 79.0498 350.458 75.8415L333.42 106.412L376.316 105.763ZM340.314 76.9729L323.825 106.558L280.929 107.207C312.731 82.2798 333.719 76.4209 340.314 76.9729ZM306.782 80.9031C295.216 87.5971 275.471 100.934 269.076 107.387L230.131 107.976C244.876 99.9304 279.957 84.0472 306.782 80.9031Z" fill="#95782A"/>
<path d="M354.282 63.6655L354.052 64.1019L354.282 63.6655ZM461.437 149.559L461.992 149.384L461.992 149.378L461.992 149.372L461.437 149.559ZM140.934 160.279L140.522 160.164L140.024 160.726L140.691 160.716L140.934 160.279ZM460.961 155.433L460.718 155.87L461.467 155.859L461.516 155.258L460.961 155.433ZM258.196 115.863L258.556 116.032L259.205 115.415L258.439 115.426L258.196 115.863ZM224.314 152.556L224.071 152.993L224.488 152.986L224.762 152.627L224.314 152.556ZM211.913 116.564L212.157 116.127L211.94 116.13L211.715 116.271L211.913 116.564ZM161.099 153.513L160.766 153.319L160.035 153.962L160.855 153.95L161.099 153.513ZM298.818 151.428L298.574 151.865L299.074 151.857L299.318 151.42L298.818 151.428ZM319.153 114.94L319.653 114.932L319.897 114.496L319.397 114.503L319.153 114.94ZM234.474 152.402L234.058 152.292L233.571 152.849L234.23 152.839L234.474 152.402ZM270.049 115.683L270.292 115.247L269.994 115.251L269.725 115.482L270.049 115.683ZM373.321 150.3L373.078 150.736L373.775 150.726L373.873 150.153L373.321 150.3ZM328.749 114.795L328.992 114.358L328.492 114.366L328.249 114.802L328.749 114.795ZM308.413 151.282L307.913 151.29L307.67 151.727L308.169 151.719L308.413 151.282ZM435.989 113.171L436.498 112.834L436.416 112.731L436.232 112.734L435.989 113.171ZM446.132 149.197L445.888 149.634L446.719 149.621L446.687 148.986L446.132 149.197ZM390.271 113.863L390.514 113.426L389.784 113.437L389.716 114.028L390.271 113.863ZM384.045 150.137L383.545 150.145L383.302 150.582L383.802 150.574L384.045 150.137ZM428.243 104.977L428 105.413L429.293 105.394L428.76 104.648L428.243 104.977ZM380.722 79.7835L380.993 79.347L379.72 79.3015L380.196 80.0977L380.722 79.7835ZM389.298 105.566L388.744 105.727L388.708 106.008L389.055 106.003L389.298 105.566ZM350.458 75.8415L350.786 75.4103L350.25 75.3267L349.958 75.8491L350.458 75.8415ZM376.316 105.763L376.073 106.2L376.874 106.187L376.872 105.564L376.316 105.763ZM333.42 106.412L332.92 106.42L332.677 106.857L333.177 106.849L333.42 106.412ZM323.825 106.558L323.582 106.994L324.082 106.987L324.325 106.55L323.825 106.558ZM340.314 76.9729L340.813 76.9654L341.032 76.5733L340.609 76.5379L340.314 76.9729ZM280.929 107.207L280.639 106.978L279.772 107.658L280.686 107.644L280.929 107.207ZM269.076 107.387L268.833 107.823L269.176 107.818L269.455 107.536L269.076 107.387ZM306.782 80.9031L306.951 81.2141L308.559 80.2835L306.962 80.4706L306.782 80.9031ZM230.131 107.976L229.986 107.652L228.555 108.433L229.888 108.413L230.131 107.976ZM354.052 64.1019C397.352 62.4717 424.364 76.2326 440.402 94.2346C456.444 112.241 461.493 134.477 460.881 149.746L461.992 149.372C462.609 133.983 457.527 111.637 441.407 93.5434C425.283 75.4451 398.103 61.5879 354.512 63.2291L354.052 64.1019ZM141.346 160.394C143.928 157.482 151.737 150.256 163.73 140.973C175.709 131.702 191.826 120.408 211 109.358C249.344 87.258 299.899 66.1407 354.052 64.1019L354.512 63.2291C300.052 65.2794 249.205 86.522 210.666 108.734C191.398 119.838 175.202 131.188 163.16 140.508C151.133 149.816 143.214 157.129 140.522 160.164L141.346 160.394ZM461.204 154.996L141.178 159.842L140.691 160.716L460.718 155.87L461.204 154.996ZM460.881 149.734L460.406 155.608L461.516 155.258L461.992 149.384L460.881 149.734ZM258.196 115.863C257.836 115.694 257.836 115.694 257.836 115.695C257.835 115.695 257.835 115.695 257.835 115.695C257.834 115.696 257.833 115.697 257.832 115.698C257.829 115.701 257.825 115.705 257.82 115.71C257.809 115.72 257.794 115.735 257.773 115.754C257.732 115.794 257.67 115.852 257.59 115.929C257.429 116.083 257.192 116.311 256.886 116.606C256.274 117.197 255.386 118.058 254.283 119.143C252.075 121.311 249.002 124.373 245.54 127.946C238.619 135.086 230.121 144.287 223.866 152.485L224.762 152.627C230.962 144.502 239.406 135.356 246.312 128.231C249.763 124.671 252.825 121.62 255.024 119.459C256.124 118.379 257.007 117.521 257.616 116.934C257.92 116.64 258.155 116.414 258.315 116.262C258.394 116.186 258.455 116.128 258.495 116.089C258.515 116.07 258.531 116.056 258.541 116.046C258.546 116.041 258.55 116.037 258.552 116.035C258.553 116.034 258.554 116.033 258.555 116.032C258.555 116.032 258.555 116.032 258.556 116.032C258.556 116.032 258.556 116.032 258.196 115.863ZM211.67 117.001L257.952 116.3L258.439 115.426L212.157 116.127L211.67 117.001ZM161.431 153.707C178.921 138.337 199.267 124.863 212.112 116.857L211.715 116.271C198.833 124.3 178.376 137.844 160.766 153.319L161.431 153.707ZM224.557 152.119L161.342 153.076L160.855 153.95L224.071 152.993L224.557 152.119ZM299.318 151.42L319.653 114.932L318.653 114.948L298.318 151.435L299.318 151.42ZM234.23 152.839L298.574 151.865L299.061 150.991L234.717 151.965L234.23 152.839ZM269.725 115.482C262.714 121.493 253.79 130.706 246.638 138.392C243.057 142.24 239.913 145.714 237.664 148.227C236.539 149.483 235.638 150.498 235.018 151.2C234.708 151.551 234.468 151.824 234.306 152.009C234.225 152.101 234.163 152.172 234.121 152.219C234.1 152.243 234.084 152.261 234.074 152.273C234.069 152.279 234.065 152.284 234.062 152.287C234.061 152.288 234.06 152.29 234.059 152.29C234.059 152.291 234.058 152.291 234.058 152.291C234.058 152.291 234.058 152.292 234.474 152.402C234.889 152.513 234.89 152.512 234.89 152.512C234.89 152.512 234.89 152.512 234.89 152.511C234.891 152.511 234.892 152.51 234.893 152.508C234.896 152.505 234.9 152.501 234.905 152.495C234.915 152.483 234.931 152.465 234.951 152.442C234.992 152.395 235.054 152.325 235.134 152.233C235.296 152.049 235.535 151.778 235.844 151.428C236.462 150.729 237.36 149.716 238.482 148.463C240.726 145.956 243.863 142.49 247.435 138.652C254.587 130.966 263.45 121.819 270.372 115.885L269.725 115.482ZM319.397 114.503L270.292 115.247L269.805 116.12L318.91 115.377L319.397 114.503ZM377.045 114.496C376.947 114.498 376.927 114.461 376.949 114.483C376.967 114.5 376.994 114.539 377.025 114.615C377.085 114.765 377.134 115.004 377.167 115.337C377.233 115.999 377.229 116.972 377.167 118.194C377.042 120.634 376.686 124.022 376.207 127.796C375.249 135.342 373.807 144.404 372.77 150.447L373.873 150.153C374.911 144.104 376.355 135.032 377.314 127.474C377.794 123.696 378.153 120.29 378.278 117.827C378.341 116.597 378.346 115.591 378.277 114.889C378.242 114.541 378.188 114.251 378.105 114.044C378.063 113.941 378.01 113.845 377.935 113.771C377.866 113.703 377.744 113.62 377.532 113.623L377.045 114.496ZM328.505 115.231L377.045 114.496L377.532 113.623L328.992 114.358L328.505 115.231ZM308.913 151.275L329.249 114.787L328.249 114.802L307.913 151.29L308.913 151.275ZM373.565 149.863L308.656 150.846L308.169 151.719L373.078 150.736L373.565 149.863ZM435.479 113.508C439.017 117.915 441.442 124.807 443.033 131.656C444.622 138.499 445.373 145.269 445.576 149.408L446.687 148.986C446.483 144.82 445.729 138.021 444.133 131.149C442.538 124.283 440.096 117.315 436.498 112.834L435.479 113.508ZM390.027 114.3L435.745 113.608L436.232 112.734L390.514 113.426L390.027 114.3ZM384.545 150.13C384.786 149.698 385.03 148.975 385.279 148.065C385.533 147.138 385.805 145.971 386.088 144.625C386.653 141.933 387.264 138.511 387.861 134.843C389.056 127.507 390.201 119.172 390.825 113.698L389.716 114.028C389.094 119.492 387.951 127.816 386.757 135.142C386.16 138.806 385.551 142.217 384.989 144.894C384.708 146.233 384.44 147.385 384.191 148.29C383.938 149.213 383.717 149.837 383.545 150.145L384.545 150.13ZM446.375 148.76L384.289 149.701L383.802 150.574L445.888 149.634L446.375 148.76ZM428.76 104.648C425.271 99.7727 417.196 93.5914 408.089 88.564C398.992 83.5424 388.783 79.6257 380.993 79.347L380.45 80.22C388.024 80.4909 398.116 84.3341 407.208 89.3531C416.29 94.3665 424.294 100.507 427.727 105.305L428.76 104.648ZM389.055 106.003L428 105.413L428.487 104.54L389.541 105.13L389.055 106.003ZM380.196 80.0977C382.454 83.8753 384.719 89.3255 386.356 94.3242C387.174 96.8225 387.835 99.2034 388.258 101.201C388.685 103.212 388.864 104.8 388.744 105.727L389.852 105.406C389.985 104.373 389.785 102.708 389.36 100.702C388.932 98.6848 388.267 96.2882 387.445 93.7796C385.803 88.7644 383.526 83.2827 381.247 79.4693L380.196 80.0977ZM350.13 76.2727C360.31 77.8582 366.715 83.2837 370.579 89.3302C374.443 95.3767 375.747 102.014 375.76 105.962L376.872 105.564C376.859 101.526 375.533 94.8073 371.624 88.6914C367.716 82.5756 361.205 77.0331 350.786 75.4103L350.13 76.2727ZM333.92 106.405L350.958 75.8339L349.958 75.8491L332.92 106.42L333.92 106.405ZM376.56 105.326L333.664 105.976L333.177 106.849L376.073 106.2L376.56 105.326ZM324.325 106.55L340.813 76.9654L339.814 76.9805L323.325 106.565L324.325 106.55ZM280.686 107.644L323.582 106.994L324.069 106.121L281.173 106.77L280.686 107.644ZM340.609 76.5379C337.16 76.2492 330.116 77.6327 320.001 82.1754C309.864 86.7273 296.594 94.4722 280.639 106.978L281.219 107.436C297.066 95.0147 310.191 87.3664 320.147 82.8952C330.125 78.4146 336.872 77.1447 340.018 77.408L340.609 76.5379ZM269.455 107.536C272.584 104.379 279.048 99.4789 286.231 94.5003C293.395 89.5352 301.198 84.5437 306.951 81.2141L306.614 80.592C300.801 83.9565 292.948 88.9804 285.749 93.9704C278.569 98.9468 271.963 103.941 268.697 107.237L269.455 107.536ZM229.888 108.413L268.833 107.823L269.32 106.95L230.375 107.54L229.888 108.413ZM306.962 80.4706C293.46 82.0532 277.907 86.837 263.904 92.2205C249.898 97.6052 237.4 103.606 229.986 107.652L230.276 108.3C237.607 104.3 250.022 98.3369 263.949 92.9825C277.879 87.6269 293.28 82.897 306.603 81.3355L306.962 80.4706Z" fill="#95782A"/>
<path d="M140.14 160.464L137.094 153.538L149.35 152.515L154.29 160.63L140.14 160.464Z" fill="#95782A"/>
<path fill-rule="evenodd" clip-rule="evenodd" d="M454.832 142.6C456.048 112.277 434.79 54.4078 348.846 57.6434C241.417 61.688 148.257 141.439 137.826 153.203L454.361 148.41L454.832 142.6ZM222.564 144.183C234.883 128.039 256.076 107.891 256.076 107.891L210.299 108.584C197.576 116.514 177.397 129.876 160.039 145.13L222.564 144.183ZM316.369 106.978L296.255 143.068L232.613 144.031C232.613 144.031 254.019 119.528 267.8 107.713L316.369 106.978ZM369.946 141.952C371.998 129.992 375.656 106.08 373.87 106.107L325.859 106.834L305.745 142.924L369.946 141.952ZM441.962 140.861C441.558 132.646 438.987 114.019 431.929 105.228L386.71 105.913C385.478 116.731 382.184 138.865 380.553 141.791L441.962 140.861ZM377.265 72.2049C392.462 72.7485 417.423 87.5551 424.268 97.1231L385.748 97.7064C386.248 93.8301 381.753 79.7131 377.265 72.2049ZM372.908 97.9008C372.882 90.0027 367.706 71.4792 347.332 68.3059L330.48 98.5432L372.908 97.9008ZM337.298 69.425L320.99 98.6869L278.561 99.3293C310.016 74.6739 330.775 68.879 337.298 69.425ZM304.133 73.3122C292.693 79.9332 273.163 93.1245 266.838 99.5069L228.318 100.09C242.902 92.132 277.6 76.422 304.133 73.3122Z" fill="#AE8C2F"/>
<path d="M348.846 57.6434L348.616 58.0798L348.846 57.6434ZM454.832 142.6L455.387 142.425L455.387 142.419L455.388 142.413L454.832 142.6ZM137.826 153.203L137.414 153.088L136.916 153.65L137.583 153.64L137.826 153.203ZM454.361 148.41L454.118 148.847L454.868 148.835L454.916 148.235L454.361 148.41ZM256.076 107.891L256.436 108.059L257.085 107.442L256.32 107.454L256.076 107.891ZM222.564 144.183L222.321 144.62L222.738 144.614L223.012 144.254L222.564 144.183ZM210.299 108.584L210.542 108.147L210.325 108.15L210.1 108.291L210.299 108.584ZM160.039 145.13L159.706 144.936L158.974 145.579L159.795 145.567L160.039 145.13ZM296.255 143.068L296.012 143.504L296.511 143.497L296.755 143.06L296.255 143.068ZM316.369 106.978L316.869 106.97L317.112 106.533L316.612 106.541L316.369 106.978ZM232.613 144.031L232.197 143.921L231.71 144.478L232.369 144.468L232.613 144.031ZM267.8 107.713L268.043 107.276L267.745 107.281L267.476 107.512L267.8 107.713ZM369.946 141.952L369.702 142.388L370.399 142.378L370.497 141.805L369.946 141.952ZM325.859 106.834L326.103 106.397L325.603 106.405L325.359 106.842L325.859 106.834ZM305.745 142.924L305.245 142.931L305.002 143.368L305.502 143.361L305.745 142.924ZM431.929 105.228L432.439 104.891L432.357 104.788L432.173 104.791L431.929 105.228ZM441.962 140.861L441.718 141.298L442.549 141.285L442.518 140.65L441.962 140.861ZM386.71 105.913L386.953 105.476L386.223 105.487L386.156 106.078L386.71 105.913ZM380.553 141.791L380.053 141.799L379.809 142.235L380.309 142.228L380.553 141.791ZM424.268 97.1231L424.025 97.5599L425.318 97.5403L424.785 96.7948L424.268 97.1231ZM377.265 72.2049L377.537 71.7684L376.264 71.7229L376.74 72.5191L377.265 72.2049ZM385.748 97.7064L385.195 97.8668L385.158 98.1484L385.505 98.1431L385.748 97.7064ZM347.332 68.3059L347.66 67.8747L347.123 67.7911L346.832 68.3134L347.332 68.3059ZM372.908 97.9008L372.665 98.3375L373.466 98.3254L373.464 97.7019L372.908 97.9008ZM330.48 98.5432L329.98 98.5508L329.737 98.9875L330.237 98.98L330.48 98.5432ZM320.99 98.6869L320.746 99.1237L321.246 99.1161L321.489 98.6793L320.99 98.6869ZM337.298 69.425L337.798 69.4174L338.017 69.0253L337.594 68.9899L337.298 69.425ZM278.561 99.3293L278.272 99.1003L277.405 99.7799L278.318 99.7661L278.561 99.3293ZM266.838 99.5069L266.595 99.9436L266.938 99.9384L267.217 99.6566L266.838 99.5069ZM304.133 73.3122L304.301 73.6233L305.909 72.6926L304.312 72.8798L304.133 73.3122ZM228.318 100.09L228.172 99.766L226.741 100.547L228.074 100.527L228.318 100.09ZM348.616 58.0798C391.443 56.4675 418.159 70.0778 434.021 87.8828C449.888 105.692 454.881 127.685 454.276 142.787L455.388 142.413C455.998 127.192 450.97 105.088 435.026 87.1916C419.078 69.2902 392.194 55.5837 349.077 57.207L348.616 58.0798ZM138.238 153.318C140.791 150.439 148.514 143.292 160.376 134.11C172.224 124.941 188.165 113.77 207.129 102.84C245.054 80.9826 295.055 60.0963 348.616 58.0798L349.077 57.207C295.209 59.2351 244.915 80.2466 206.795 102.216C187.737 113.2 171.717 124.426 159.806 133.645C147.91 142.852 140.077 150.085 137.414 153.088L138.238 153.318ZM454.605 147.973L138.069 152.766L137.583 153.64L454.118 148.847L454.605 147.973ZM454.277 142.775L453.806 148.585L454.916 148.235L455.387 142.425L454.277 142.775ZM256.076 107.891C255.716 107.722 255.716 107.722 255.716 107.722C255.716 107.723 255.716 107.723 255.715 107.723C255.715 107.724 255.714 107.725 255.712 107.726C255.71 107.729 255.706 107.732 255.7 107.737C255.69 107.747 255.674 107.762 255.654 107.781C255.613 107.82 255.553 107.878 255.473 107.955C255.314 108.107 255.079 108.332 254.777 108.624C254.171 109.208 253.293 110.06 252.202 111.133C250.018 113.278 246.979 116.306 243.554 119.84C236.708 126.903 228.303 136.003 222.116 144.113L223.012 144.254C229.144 136.218 237.495 127.173 244.326 120.125C247.739 116.604 250.768 113.586 252.943 111.449C254.031 110.381 254.905 109.533 255.507 108.952C255.807 108.661 256.04 108.438 256.198 108.287C256.276 108.212 256.336 108.155 256.376 108.117C256.396 108.097 256.411 108.083 256.421 108.073C256.426 108.069 256.43 108.065 256.433 108.063C256.434 108.062 256.435 108.061 256.435 108.06C256.436 108.06 256.436 108.06 256.436 108.06C256.436 108.059 256.436 108.059 256.076 107.891ZM210.055 109.021L255.833 108.327L256.32 107.454L210.542 108.147L210.055 109.021ZM160.371 145.324C177.669 130.123 197.793 116.795 210.497 108.877L210.1 108.291C197.358 116.233 177.124 129.63 159.706 144.936L160.371 145.324ZM222.808 143.747L160.282 144.693L159.795 145.567L222.321 144.62L222.808 143.747ZM296.755 143.06L316.869 106.97L315.869 106.985L295.755 143.075L296.755 143.06ZM232.369 144.468L296.012 143.504L296.498 142.631L232.856 143.594L232.369 144.468ZM267.476 107.512C260.542 113.457 251.715 122.57 244.64 130.173C241.099 133.979 237.988 137.415 235.764 139.9C234.651 141.142 233.76 142.147 233.147 142.841C232.84 143.189 232.603 143.458 232.442 143.641C232.362 143.732 232.301 143.802 232.26 143.849C232.239 143.873 232.223 143.891 232.213 143.903C232.208 143.908 232.204 143.913 232.201 143.916C232.2 143.918 232.199 143.919 232.198 143.919C232.198 143.92 232.198 143.92 232.197 143.92C232.197 143.921 232.197 143.921 232.613 144.031C233.029 144.142 233.029 144.142 233.029 144.141C233.029 144.141 233.029 144.141 233.03 144.141C233.03 144.14 233.031 144.139 233.032 144.137C233.035 144.134 233.039 144.13 233.044 144.124C233.054 144.113 233.069 144.095 233.09 144.072C233.13 144.025 233.191 143.956 233.271 143.865C233.431 143.683 233.667 143.415 233.972 143.069C234.584 142.377 235.472 141.375 236.582 140.136C238.802 137.657 241.904 134.229 245.437 130.433C252.511 122.83 261.277 113.784 268.124 107.915L267.476 107.512ZM316.612 106.541L268.043 107.276L267.556 108.15L316.125 107.415L316.612 106.541ZM373.627 106.544C373.527 106.545 373.507 106.508 373.529 106.529C373.546 106.546 373.573 106.584 373.603 106.659C373.662 106.807 373.711 107.043 373.744 107.373C373.809 108.028 373.805 108.99 373.743 110.198C373.62 112.612 373.267 115.963 372.794 119.696C371.847 127.159 370.42 136.122 369.394 142.099L370.497 141.805C371.524 135.822 372.953 126.849 373.901 119.373C374.375 115.637 374.73 112.267 374.855 109.831C374.917 108.615 374.922 107.62 374.853 106.925C374.819 106.58 374.765 106.294 374.683 106.089C374.642 105.987 374.589 105.891 374.515 105.818C374.446 105.75 374.324 105.667 374.113 105.67L373.627 106.544ZM325.616 107.271L373.627 106.544L374.113 105.67L326.103 106.397L325.616 107.271ZM306.245 142.916L326.359 106.827L325.359 106.842L305.245 142.931L306.245 142.916ZM370.189 141.515L305.989 142.487L305.502 143.361L369.702 142.388L370.189 141.515ZM431.42 105.565C434.919 109.924 437.317 116.74 438.891 123.514C440.463 130.282 441.205 136.979 441.406 141.072L442.518 140.65C442.315 136.529 441.569 129.804 439.991 123.007C438.413 116.216 435.997 109.323 432.439 104.891L431.42 105.565ZM386.467 106.349L431.686 105.665L432.173 104.791L386.953 105.476L386.467 106.349ZM381.053 141.784C381.291 141.356 381.532 140.64 381.779 139.74C382.03 138.824 382.299 137.669 382.579 136.338C383.138 133.675 383.742 130.29 384.333 126.662C385.515 119.406 386.648 111.162 387.264 105.748L386.156 106.078C385.54 111.482 384.41 119.715 383.229 126.961C382.639 130.585 382.036 133.958 381.48 136.606C381.202 137.931 380.937 139.07 380.691 139.966C380.441 140.879 380.222 141.494 380.053 141.799L381.053 141.784ZM442.205 140.425L380.796 141.354L380.309 142.228L441.718 141.298L442.205 140.425ZM424.785 96.7948C421.334 91.972 413.347 85.8579 404.339 80.8853C395.341 75.9184 385.243 72.0441 377.537 71.7684L376.994 72.6414C384.484 72.9093 394.465 76.7101 403.458 81.6744C412.441 86.633 420.357 92.7062 423.752 97.4514L424.785 96.7948ZM385.505 98.1431L424.025 97.5599L424.512 96.6864L385.992 97.2696L385.505 98.1431ZM376.74 72.5191C378.973 76.2553 381.213 81.6459 382.832 86.5899C383.642 89.0609 384.295 91.4157 384.714 93.3917C385.136 95.3803 385.313 96.951 385.195 97.8668L386.302 97.5459C386.434 96.5236 386.236 94.8761 385.815 92.8929C385.392 90.8971 384.734 88.5266 383.922 86.0453C382.297 81.0847 380.045 75.6626 377.791 71.8907L376.74 72.5191ZM347.004 68.7371C357.071 70.3051 363.406 75.6708 367.228 81.6509C371.05 87.631 372.339 94.1956 372.352 98.0997L373.464 97.7019C373.451 93.7078 372.139 87.0616 368.273 81.0121C364.407 74.9627 357.967 69.48 347.66 67.8747L347.004 68.7371ZM330.98 98.5356L347.832 68.2983L346.832 68.3134L329.98 98.5508L330.98 98.5356ZM373.152 97.464L330.723 98.1065L330.237 98.98L372.665 98.3375L373.152 97.464ZM321.489 98.6793L337.798 69.4174L336.798 69.4325L320.49 98.6945L321.489 98.6793ZM278.318 99.7661L320.746 99.1237L321.233 98.2502L278.805 98.8926L278.318 99.7661ZM337.594 68.9899C334.181 68.7042 327.212 70.0732 317.206 74.5667C307.179 79.0695 294.053 86.7304 278.272 99.1003L278.851 99.5584C294.525 87.2728 307.505 79.7086 317.353 75.2865C327.22 70.8552 333.893 69.5997 337.002 69.86L337.594 68.9899ZM267.217 99.6566C270.311 96.5346 276.704 91.6883 283.808 86.764C290.894 81.8532 298.611 76.9163 304.301 73.6233L303.964 73.0012C298.214 76.3292 290.447 81.2984 283.326 86.2341C276.224 91.1562 269.69 96.0967 266.459 99.3571L267.217 99.6566ZM228.074 100.527L266.595 99.9436L267.081 99.0701L228.561 99.6534L228.074 100.527ZM304.312 72.8798C290.956 74.4452 275.572 79.1771 261.722 84.502C247.868 89.8282 235.506 95.764 228.172 99.766L228.463 100.414C235.713 96.458 247.992 90.5599 261.767 85.2641C275.545 79.967 290.777 75.2891 303.953 73.7447L304.312 72.8798Z" fill="#AE8C2F"/>
<path fill-rule="evenodd" clip-rule="evenodd" d="M92.256 268.162C91.5604 299.322 114.226 358.816 201.622 355.596C310.867 351.57 404.24 269.728 414.645 257.652L92.6309 262.192L92.256 268.162ZM105.383 269.965C105.94 278.408 108.89 297.553 116.228 306.596L162.23 305.947C163.29 294.831 166.247 272.09 167.854 269.085L105.383 269.965ZM178.645 268.933C176.77 281.22 173.475 305.788 175.292 305.763L224.134 305.074L243.956 268.012L178.645 268.933ZM233.788 304.938L253.611 267.876L318.355 266.963C318.355 266.963 297.01 292.117 283.198 304.242L233.788 304.938ZM328.577 266.819C316.33 283.395 295.124 304.073 295.124 304.073L341.694 303.417C354.499 295.283 374.794 281.576 392.185 265.922L328.577 266.819ZM172.443 340.598C156.969 340.021 131.305 324.775 124.168 314.934L163.355 314.381C162.916 318.364 167.742 332.877 172.443 340.598ZM176.417 314.197C176.586 322.314 182.183 341.355 202.972 344.641L219.58 313.589L176.417 314.197ZM213.162 343.503L229.235 313.452L272.397 312.844C240.83 338.142 219.809 344.072 213.162 343.503ZM246.841 339.549C258.364 332.759 278.001 319.227 284.323 312.676L323.51 312.123C308.812 320.284 273.784 336.385 246.841 339.549Z" fill="#95782A" stroke="#95782A"/>
<path fill-rule="evenodd" clip-rule="evenodd" d="M86.7931 263.077C86.0975 294.236 108.763 353.731 196.159 350.51C305.404 346.485 398.777 264.643 409.182 252.567L87.168 257.107L86.7931 263.077ZM99.9197 264.88C100.477 273.322 103.427 292.468 110.765 301.51L156.767 300.862C157.827 289.745 160.784 267.004 162.392 263.999L99.9197 264.88ZM173.182 263.847C171.307 276.134 168.012 300.703 169.829 300.677L218.671 299.989L238.494 262.926L173.182 263.847ZM228.326 299.853L248.148 262.79L312.892 261.877C312.892 261.877 291.547 287.032 277.735 299.156L228.326 299.853ZM323.114 261.733C310.867 278.309 289.661 298.988 289.661 298.988L336.231 298.331C349.036 290.198 369.331 276.491 386.722 260.836L323.114 261.733ZM166.98 335.512C151.507 334.935 125.842 319.689 118.705 309.848L157.892 309.296C157.453 313.279 162.279 327.791 166.98 335.512ZM170.955 309.112C171.123 317.228 176.72 336.27 197.509 339.556L214.117 308.503L170.955 309.112ZM207.699 338.418L223.772 308.367L266.934 307.758C235.367 333.057 214.346 338.987 207.699 338.418ZM241.378 334.463C252.901 327.673 272.538 314.141 278.86 307.59L318.047 307.038C303.349 315.198 268.321 331.3 241.378 334.463Z" fill="#AE8C2F" stroke="#AE8C2F"/>
<path d="M415.574 257.139L409.989 252.062L398.591 263.647L415.574 257.139Z" fill="#95782A"/>
<path d="M207.463 241.235L205.123 237.391L215.151 236.555L218.011 241.253L207.463 241.235Z" fill="#95782A"/>
<path d="M103.224 208.693C105.978 203.656 109.646 198.85 114.227 194.274C118.917 189.632 124.091 185.546 129.751 182.015C135.519 178.419 141.539 175.54 147.812 173.38C154.159 171.218 160.383 170.066 166.485 169.923C172.878 169.775 178.354 170.843 182.914 173.129C187.474 175.415 190.604 178.741 192.305 183.108L181.819 189.301C180.72 185.801 178.493 183.052 175.14 181.053C171.821 178.99 167.582 178.018 162.424 178.138C157.92 178.243 153.252 179.107 148.42 180.731C143.695 182.288 139.129 184.409 134.721 187.093C130.313 189.776 126.262 192.923 122.566 196.535C118.871 200.146 115.89 204.024 113.624 208.168C111.498 212.057 110.294 215.768 110.013 219.299C109.804 222.829 110.403 225.931 111.81 228.605C113.252 231.216 115.462 233.273 118.441 234.777C121.493 236.28 125.162 236.981 129.448 236.882C132.644 236.807 136.101 236.192 139.817 235.035C143.568 233.814 147.238 232.218 150.827 230.246C154.415 228.274 157.723 225.963 160.75 223.311C163.85 220.658 166.292 217.832 168.076 214.831L146.827 215.326L151.323 207.101L183.906 206.343L182.546 208.829C179.583 214.249 175.882 219.182 171.443 223.629C167.038 228.012 162.219 231.775 156.987 234.918C151.826 238.06 146.432 240.515 140.804 242.282C135.175 244.05 129.673 244.997 124.297 245.122C118.776 245.25 114.032 244.417 110.065 242.621C106.133 240.761 103.166 238.186 101.163 234.896C99.2328 231.605 98.3791 227.722 98.602 223.248C98.8598 218.709 100.4 213.858 103.224 208.693Z" fill="#95782A"/>
<path d="M253.291 169.413L248.794 177.638L219.263 178.326L208.178 198.601L236.728 197.936L232.231 206.161L203.681 206.826L184.335 242.213L174.091 242.452L213.516 170.339L253.291 169.413Z" fill="#95782A"/>
<path d="M287.632 165.592L285.763 239.851L274.757 240.108L275.268 222.25L237.564 223.128L218.31 241.422L207.304 241.678L287.632 165.592ZM275.515 214.124L276.861 185.294L246.311 214.804L275.515 214.124Z" fill="#95782A"/>
<path d="M307.568 204.124C310.427 198.896 314.237 193.96 318.999 189.317C323.796 184.61 329.097 180.489 334.902 176.955C340.707 173.42 346.802 170.603 353.186 168.503C359.642 166.401 365.921 165.28 372.024 165.137C375.729 165.051 379.098 165.382 382.132 166.13C385.201 166.813 387.844 167.948 390.062 169.533L384.362 179.958C382.566 177.733 380.11 176.059 376.995 174.936C373.952 173.811 370.469 173.294 366.546 173.385C362.115 173.488 357.483 174.352 352.651 175.975C347.891 177.597 343.29 179.781 338.848 182.528C334.513 185.21 330.497 188.357 326.802 191.968C323.179 195.577 320.234 199.454 317.969 203.599C315.772 207.615 314.534 211.39 314.253 214.921C314.006 218.389 314.604 221.428 316.046 224.039C317.488 226.649 319.752 228.673 322.838 230.112C325.924 231.551 329.72 232.218 334.224 232.113C338.365 232.017 342.6 231.289 346.929 229.929C351.331 228.567 355.757 226.639 360.205 224.143L354.401 234.759C350.226 236.493 346.059 237.818 341.901 238.733C337.708 239.712 333.759 240.244 330.054 240.331C324.387 240.463 319.481 239.664 315.334 237.935C311.187 236.206 308.058 233.73 305.948 230.506C303.837 227.281 302.821 223.434 302.899 218.963C303.049 214.49 304.605 209.544 307.568 204.124Z" fill="#95782A"/>
<path d="M395.844 166.094L445.099 164.947L440.602 173.172L421.097 173.626L386.168 237.513L375.925 237.752L410.853 173.864L391.348 174.319L395.844 166.094Z" fill="#95782A"/>
<path d="M146.827 215.326L144.214 211.035L150.154 210.563L151.64 214.927L146.827 215.326Z" fill="#95782A"/>
<path d="M274.684 240.115L272.084 235.844L282.799 235.174L285.659 239.872L274.684 240.115Z" fill="#95782A"/>
<path d="M384.314 179.809L381.714 175.539L387.462 165.262L390.062 169.533L384.314 179.809Z" fill="#95782A"/>
<path d="M354.402 234.759L351.802 230.489L357.606 219.873L360.206 224.143L354.402 234.759Z" fill="#95782A"/>
<path d="M103.224 208.693C105.978 203.656 109.646 198.85 114.228 194.274C118.917 189.632 124.092 185.546 129.752 182.015C135.519 178.419 141.54 175.54 147.813 173.38C154.159 171.218 160.383 170.066 166.486 169.923C172.879 169.775 178.355 170.843 182.915 173.129C187.474 175.415 190.605 178.741 192.306 183.108L181.819 189.301C180.72 185.801 178.494 183.052 175.14 181.053C171.821 178.99 167.583 178.018 162.425 178.138C157.921 178.243 153.252 179.107 148.42 180.731C143.696 182.288 139.129 184.409 134.722 187.093C130.314 189.776 126.262 192.923 122.567 196.535C118.871 200.146 115.89 204.024 113.625 208.168C111.498 212.057 110.294 215.768 110.013 219.299C109.805 222.829 110.404 225.931 111.811 228.605C113.253 231.216 115.463 233.273 118.442 234.777C121.493 236.28 125.162 236.981 129.448 236.882C132.645 236.807 136.101 236.192 139.818 235.035C143.569 233.814 147.239 232.218 150.827 230.246C154.416 228.274 157.723 225.963 160.751 223.311C163.851 220.658 166.293 217.832 168.076 214.831L146.827 215.326L151.324 207.101L183.906 206.343L182.547 208.829C179.584 214.249 175.883 219.182 171.443 223.629C167.039 228.012 162.22 231.775 156.987 234.918C151.827 238.06 146.432 240.515 140.804 242.282C135.176 244.05 129.674 244.997 124.298 245.122C118.777 245.25 114.033 244.417 110.066 242.621C106.134 240.761 103.166 238.186 101.163 234.896C99.2333 231.605 98.3797 227.722 98.6026 223.248C98.8603 218.709 100.401 213.858 103.224 208.693Z" fill="#95782A"/>
<path d="M253.291 169.413L248.794 177.638L219.263 178.326L208.178 198.601L236.729 197.936L232.232 206.161L203.682 206.826L184.335 242.213L174.092 242.452L213.517 170.339L253.291 169.413Z" fill="#95782A"/>
<path d="M287.632 165.592L285.764 239.851L274.758 240.108L275.269 222.25L237.565 223.128L218.311 241.422L207.305 241.678L287.632 165.592ZM275.515 214.124L276.861 185.294L246.311 214.804L275.515 214.124Z" fill="#95782A"/>
<path d="M307.569 204.124C310.427 198.896 314.237 193.96 318.999 189.317C323.796 184.61 329.097 180.489 334.902 176.955C340.708 173.42 346.802 170.603 353.186 168.503C359.643 166.401 365.922 165.28 372.024 165.137C375.729 165.051 379.099 165.382 382.133 166.13C385.201 166.813 387.845 167.948 390.062 169.533L384.363 179.958C382.566 177.733 380.111 176.06 376.995 174.936C373.953 173.811 370.47 173.294 366.547 173.385C362.115 173.488 357.484 174.352 352.651 175.975C347.892 177.597 343.291 179.781 338.848 182.528C334.513 185.21 330.498 188.357 326.802 191.968C323.179 195.577 320.235 199.454 317.969 203.599C315.773 207.615 314.534 211.39 314.253 214.921C314.007 218.389 314.605 221.428 316.046 224.039C317.488 226.649 319.752 228.673 322.839 230.112C325.925 231.551 329.72 232.218 334.224 232.113C338.365 232.017 342.6 231.289 346.93 229.929C351.332 228.567 355.757 226.639 360.206 224.143L354.402 234.759C350.226 236.493 346.06 237.818 341.901 238.733C337.708 239.712 333.759 240.244 330.054 240.331C324.388 240.463 319.481 239.664 315.334 237.935C311.187 236.206 308.058 233.73 305.948 230.506C303.838 227.281 302.821 223.434 302.899 218.963C303.049 214.49 304.606 209.544 307.569 204.124Z" fill="#95782A"/>
<path d="M395.845 166.094L445.1 164.947L440.603 173.172L421.097 173.626L386.169 237.513L375.926 237.752L410.854 173.864L391.348 174.319L395.845 166.094Z" fill="#95782A"/>
<path d="M146.827 215.326L144.215 211.035L150.155 210.563L151.641 214.927L146.827 215.326Z" fill="#95782A"/>
<path d="M229.632 201.891L232.232 206.161L236.729 197.936L234.128 193.666L229.632 201.891Z" fill="#95782A"/>
<path d="M100.624 204.423C103.378 199.386 107.046 194.579 111.628 190.003C116.317 185.362 121.492 181.275 127.152 177.744C132.919 174.148 138.939 171.269 145.213 169.109C151.559 166.947 157.783 165.795 163.885 165.653C170.278 165.504 175.755 166.572 180.315 168.858C184.874 171.144 188.005 174.47 189.705 178.837L179.219 185.03C178.12 181.53 175.894 178.781 172.54 176.782C169.221 174.719 164.983 173.747 159.825 173.868C155.321 173.972 150.652 174.837 145.82 176.46C141.095 178.018 136.529 180.138 132.122 182.822C127.714 185.505 123.662 188.653 119.967 192.264C116.271 195.875 113.29 199.753 111.024 203.897C108.898 207.787 107.694 211.497 107.413 215.029C107.205 218.559 107.804 221.661 109.211 224.335C110.653 226.945 112.863 229.002 115.842 230.507C118.893 232.009 122.562 232.711 126.848 232.611C130.045 232.536 133.501 231.921 137.217 230.764C140.969 229.544 144.639 227.948 148.227 225.976C151.815 224.004 155.123 221.692 158.151 219.04C161.251 216.387 163.693 213.561 165.476 210.561L144.227 211.056L148.724 202.83L181.306 202.072L179.947 204.558C176.984 209.978 173.282 214.911 168.843 219.358C164.439 223.741 159.62 227.504 154.387 230.648C149.227 233.789 143.832 236.244 138.204 238.012C132.576 239.779 127.073 240.726 121.698 240.851C116.176 240.98 111.432 240.146 107.466 238.35C103.533 236.49 100.566 233.915 98.5633 230.626C96.6332 227.334 95.7795 223.451 96.0024 218.977C96.2602 214.439 97.8008 209.587 100.624 204.423Z" fill="#AE8C2F"/>
<path d="M250.691 165.142L246.194 173.367L216.663 174.055L205.578 194.331L234.128 193.666L229.632 201.891L201.081 202.556L181.735 237.942L171.492 238.181L210.917 166.068L250.691 165.142Z" fill="#AE8C2F"/>
<path d="M285.032 161.321L283.163 235.58L272.157 235.837L272.668 217.979L234.965 218.857L215.711 237.151L204.705 237.407L285.032 161.321ZM272.915 209.853L274.261 181.023L243.711 210.533L272.915 209.853Z" fill="#AE8C2F"/>
<path d="M304.969 199.853C307.827 194.625 311.637 189.689 316.399 185.046C321.196 180.339 326.497 176.218 332.302 172.684C338.108 169.15 344.202 166.332 350.586 164.232C357.042 162.131 363.322 161.009 369.424 160.867C373.129 160.78 376.499 161.111 379.533 161.859C382.601 162.543 385.244 163.677 387.462 165.262L381.763 175.687C379.966 173.463 377.51 171.789 374.395 170.665C371.352 169.54 367.87 169.023 363.947 169.115C359.515 169.218 354.883 170.081 350.051 171.704C345.292 173.326 340.691 175.51 336.248 178.258C331.913 180.939 327.898 184.086 324.202 187.697C320.579 191.306 317.635 195.183 315.369 199.328C313.173 203.345 311.934 207.119 311.653 210.651C311.407 214.118 312.004 217.158 313.446 219.768C314.888 222.378 317.152 224.403 320.238 225.841C323.325 227.28 327.12 227.947 331.624 227.843C335.765 227.746 340 227.018 344.33 225.658C348.732 224.297 353.157 222.368 357.606 219.873L351.802 230.489C347.626 232.222 343.459 233.547 339.301 234.462C335.108 235.441 331.159 235.974 327.454 236.06C321.788 236.192 316.881 235.393 312.734 233.664C308.587 231.936 305.458 229.459 303.348 226.235C301.238 223.011 300.221 219.163 300.299 214.692C300.449 210.219 302.006 205.273 304.969 199.853Z" fill="#AE8C2F"/>
<path d="M393.245 161.823L442.499 160.676L438.003 168.901L418.497 169.355L383.372 233.067L373.511 233.216L408.254 169.594L388.748 170.048L393.245 161.823Z" fill="#AE8C2F"/>
<path d="M375.926 237.752L373.511 233.216L383.372 233.067L385.972 237.338L375.926 237.752Z" fill="#95782A"/>
<path d="M391.481 174.275L388.881 170.004L394.025 169.799L395.938 173.903L391.481 174.275Z" fill="#95782A"/>
<path d="M440.524 173.101L437.924 168.83L442.417 160.826L445.017 165.097L440.524 173.101Z" fill="#95782A"/>
<path d="M171.512 237.951L174.112 242.222L183.972 242.073L181.372 237.802L171.512 237.951Z" fill="#95782A"/>
<path d="M248.813 177.426L245.785 173.415L250.706 165.152L253.306 169.422L248.813 177.426Z" fill="#95782A"/>
<path d="M288.012 165.854L284.725 161.416L284.54 172.651L287.288 173.319L288.012 165.854Z" fill="#95782A"/>
<path d="M183.914 206.401L181.314 202.13L174.407 208.091L183.914 206.401Z" fill="#95782A"/>
<path d="M175.947 103.398L174.762 101.562L186.362 94.3466L190.108 100.154C188.85 102.072 187.407 103.825 185.779 105.413C184.147 106.994 182.334 108.404 180.34 109.642C177.649 111.312 174.99 112.505 172.362 113.219C169.742 113.918 167.47 113.993 165.545 113.444C163.62 112.895 162.162 111.851 161.17 110.314C160.188 108.791 159.826 107.027 160.086 105.022C160.353 103.002 161.327 101.022 163.007 99.0816C164.687 97.1416 166.891 95.3247 169.62 93.6308C171.601 92.401 173.508 91.4761 175.342 90.8562C177.183 90.2214 178.77 89.9491 180.102 90.0392C181.434 90.1294 182.677 90.5542 183.829 91.3136L180.889 93.8564C179.964 93.3145 179.049 93.0053 178.145 92.9288C177.24 92.8523 176.134 93.0308 174.826 93.4642C173.513 93.8904 172.165 94.5329 170.782 95.3914C169.125 96.4201 167.786 97.4555 166.766 98.4976C165.741 99.5325 165.006 100.517 164.561 101.451C164.129 102.377 163.889 103.249 163.84 104.066C163.767 105.467 164.095 106.734 164.825 107.865C165.725 109.26 166.895 110.168 168.336 110.59C169.79 111.003 171.467 110.939 173.368 110.397C175.269 109.854 177.123 109.022 178.93 107.901C180.5 106.926 181.922 105.804 183.197 104.534C184.467 103.257 185.362 102.183 185.882 101.312L184.002 98.3979L175.947 103.398Z" fill="white"/>
<path d="M198.424 98.6642L190.814 81.5576L194.545 79.5007L202.155 96.6073L198.424 98.6642Z" fill="white"/>
<path d="M206.087 94.2206L211.766 70.5044L215.858 68.4892L232.953 80.9917L228.625 83.1226L223.658 79.2327L211.655 85.1433L210.121 92.2343L206.087 94.2206ZM212.175 82.6323L221.907 77.8402L217.431 74.2508C216.067 73.1622 215.019 72.2324 214.286 71.4613C214.263 72.8139 214.088 74.2321 213.76 75.7159L212.175 82.6323Z" fill="white"/>
<path d="M256.914 63.8954L260.835 62.9815C260.241 65.4649 258.947 67.7047 256.953 69.7008C254.971 71.6826 252.464 73.2936 249.43 74.5338C246.29 75.8173 243.69 76.4302 241.63 76.3724C239.582 76.3001 237.96 75.6509 236.763 74.4248C235.579 73.1933 234.893 71.6317 234.706 69.74C234.501 67.6771 234.899 65.6443 235.899 63.6417C236.912 61.6247 238.446 59.7838 240.5 58.1192C242.567 56.44 244.886 55.0752 247.456 54.0245C250.37 52.833 252.871 52.3355 254.959 52.5321C257.046 52.7286 258.572 53.5815 259.535 55.0906L255.8 57.2504C254.981 56.0852 253.896 55.4365 252.546 55.3043C251.195 55.172 249.546 55.5039 247.599 56.3C245.36 57.2153 243.521 58.3465 242.084 59.6936C240.659 61.0353 239.703 62.4477 239.216 63.931C238.728 65.4053 238.549 66.7955 238.679 68.1017C238.846 69.7863 239.35 71.1129 240.191 72.0816C241.044 73.0359 242.263 73.5124 243.848 73.5112C245.433 73.5099 247.114 73.1464 248.889 72.4207C251.049 71.5379 252.835 70.3671 254.248 68.9084C255.661 67.4496 256.55 65.7786 256.914 63.8954Z" fill="white"/>
<path d="M278.82 63.3613L281.473 41.9214L301.091 36.0955L300.778 38.6256L285.008 43.3087L284.187 49.9483L297.834 45.8956L297.52 48.4256L283.874 52.4784L282.668 62.2185L278.82 63.3613Z" fill="white"/>
<path d="M305.998 45.3554C306.996 41.6544 309.05 38.4881 312.16 35.8567C315.273 33.2151 318.843 31.4651 322.872 30.6069C325.509 30.0448 327.755 30.0299 329.608 30.5622C331.46 31.0945 332.701 32.1251 333.33 33.6541C333.975 35.1702 333.996 37.0437 333.395 39.2744C332.785 41.5356 331.655 43.6831 330.004 45.7169C328.354 47.7506 326.332 49.4573 323.939 50.8369C321.549 52.2063 319.113 53.1554 316.631 53.6842C313.941 54.2573 311.674 54.2625 309.829 53.6998C307.985 53.1371 306.753 52.0949 306.135 50.5733C305.516 49.0517 305.471 47.3124 305.998 45.3554ZM309.884 44.5704C309.16 47.2575 309.511 49.1801 310.938 50.3384C312.38 51.4837 314.499 51.7588 317.292 51.1635C320.138 50.5572 322.688 49.2781 324.941 47.3262C327.207 45.3715 328.727 42.9594 329.501 40.0898C329.99 38.2748 330.02 36.7774 329.591 35.5977C329.178 34.4051 328.311 33.6006 326.99 33.1843C325.685 32.7551 324.09 32.7413 322.206 33.1427C319.529 33.7131 317.029 34.9244 314.704 36.7768C312.396 38.6163 310.789 41.2142 309.884 44.5704Z" fill="white"/>
<path d="M363.65 24.5603L367.302 24.1309L361.787 37.3528C360.827 39.6527 359.752 41.516 358.56 42.9427C357.368 44.3694 355.772 45.6061 353.772 46.6528C351.789 47.6876 349.468 48.3615 346.807 48.6744C344.222 48.9784 342.262 48.8576 340.926 48.3121C339.59 47.7665 338.862 46.8378 338.741 45.526C338.624 44.2037 339.071 42.3301 340.083 39.9053L345.598 26.6834L349.25 26.2539L343.741 39.4602C342.912 41.448 342.52 42.8895 342.564 43.7849C342.625 44.6684 343.089 45.3016 343.955 45.6846C344.834 46.0662 346.058 46.1647 347.627 45.9802C350.312 45.6644 352.437 44.9346 354 43.7908C355.563 42.647 356.943 40.639 358.141 37.7667L363.65 24.5603Z" fill="white"/>
<path d="M364.43 46.5481L377.232 23.439L380.795 23.3761L384.527 41.2765L394.579 23.1329L397.909 23.0741L385.106 46.1832L381.544 46.2461L377.82 28.3299L367.759 46.4893L364.43 46.5481Z" fill="white"/>
<path d="M391.484 46.4071L407.358 23.4108L415.8 24.2122C417.706 24.3931 419.085 24.641 419.936 24.9558C421.131 25.3924 421.95 26.0552 422.394 26.9441C422.979 28.0917 423.037 29.4956 422.568 31.1559C422.117 32.8069 421.185 34.6572 419.77 36.7069C418.564 38.4533 417.279 39.9804 415.913 41.2882C414.547 42.5959 413.217 43.662 411.924 44.4864C410.638 45.3003 409.411 45.9248 408.243 46.36C407.095 46.7858 405.856 47.0749 404.527 47.2274C403.21 47.3809 401.81 47.3873 400.328 47.2466L391.484 46.4071ZM396.601 44.0012L401.833 44.498C403.449 44.6514 404.812 44.6303 405.921 44.4347C407.041 44.2401 408.051 43.9126 408.95 43.452C410.217 42.8034 411.481 41.8927 412.742 40.7198C414.022 39.5375 415.26 38.0784 416.459 36.3424C418.119 33.9372 418.969 32.0512 419.01 30.6845C419.069 29.3084 418.649 28.3436 417.748 27.7901C417.095 27.3939 415.805 27.1042 413.877 26.9212L408.728 26.4324L396.601 44.0012Z" fill="white"/>
<path d="M414.053 48.7012L441.209 27.9587L444.433 28.6488L435.218 53.231L431.809 52.5014L434.765 45.0916L425.309 43.0678L417.231 49.3813L414.053 48.7012ZM428.163 40.8168L435.83 42.4577L438.586 35.6932C439.42 33.6377 440.162 31.961 440.812 30.6631C439.339 32.0507 437.757 33.4027 436.065 34.719L428.163 40.8168Z" fill="white"/>
<path d="M440.837 55.417L459.054 36.0143L452.254 33.6776L454.692 31.0816L471.051 36.7032L468.614 39.2992L461.786 36.9529L443.568 56.3556L440.837 55.417Z" fill="white"/>
<path d="M453.607 60.3578L475.74 38.9474L478.26 40.0999L456.127 61.5103L453.607 60.3578Z" fill="white"/>
<path d="M471.948 53.1771C475.887 49.765 479.726 47.5671 483.466 46.5833C487.216 45.5901 490.291 45.8383 492.689 47.3281C494.26 48.3036 495.153 49.6364 495.367 51.3265C495.582 53.0166 495.079 54.8791 493.859 56.9142C492.657 58.9447 490.869 60.9882 488.495 63.0448C486.089 65.1295 483.588 66.7782 480.992 67.9909C478.396 69.2037 475.969 69.839 473.711 69.8968C471.463 69.9452 469.6 69.5105 468.122 68.5926C466.52 67.5978 465.628 66.2414 465.446 64.5233C465.264 62.8052 465.782 60.9357 466.999 58.9148C468.215 56.8939 469.865 54.9813 471.948 53.1771ZM474.221 54.6609C471.361 57.1381 469.655 59.4331 469.103 61.5457C468.569 63.6538 469.134 65.2245 470.797 66.2577C472.492 67.3101 474.715 67.4553 477.468 66.6933C480.229 65.936 483.136 64.2347 486.19 61.5891C488.122 59.9158 489.569 58.3109 490.533 56.7745C491.514 55.2335 491.947 53.8407 491.829 52.596C491.73 51.3468 491.12 50.3738 489.998 49.677C488.404 48.687 486.264 48.4978 483.579 49.1092C480.912 49.7161 477.793 51.5666 474.221 54.6609Z" fill="white"/>
<path d="M479.612 75.7505L505.293 56.6853L507.179 58.4591L494.316 80.2914L514.478 65.3227L516.242 66.9807L490.561 86.0459L488.674 84.272L501.555 62.4268L481.375 77.4085L479.612 75.7505Z" fill="white"/>
<path d="M492.418 87.9496L523.695 76.3783L525.235 78.5458L502.53 102.178L500.901 99.8861L507.857 92.8399L503.339 86.4827L493.936 90.0859L492.418 87.9496ZM506.675 85.1871L510.338 90.3413L516.723 83.933C518.662 81.9844 520.281 80.4215 521.582 79.2443C519.705 80.167 517.784 81.0023 515.819 81.7502L506.675 85.1871Z" fill="white"/>
<path d="M503.494 104.429L531.594 88.6862L532.644 90.9258L507.86 104.811L511.77 113.146L508.454 115.003L503.494 104.429Z" fill="white"/>
</svg>
