<svg width="511" height="815" viewBox="0 0 511 815" fill="none" xmlns="http://www.w3.org/2000/svg">
<path d="M27.948 140.41H482.098L426.203 747.541H90.8303L27.948 140.41Z" fill="white"/>
<ellipse cx="258.516" cy="740.795" rx="167.686" ry="74.2049" fill="white"/>
<path d="M86.1537 2.69042C87.0148 1.03705 88.7241 0 90.5883 0H419.457C421.321 0 423.031 1.03705 423.892 2.69042L461.137 74.2049H48.9084L86.1537 2.69042Z" fill="#E6E6E6"/>
<path d="M447.163 599.131C447.163 617.76 364.267 632.861 262.01 632.861C159.752 632.861 69.8694 617.761 69.8694 599.133C69.8694 580.505 159.752 565.402 262.01 565.402C364.267 565.402 447.163 580.503 447.163 599.131Z" fill="#FFD394"/>
<path d="M447.163 599.131H69.8691L31.4414 261.836H41.9219C41.9229 280.465 140.178 295.566 255.69 295.566C371.203 295.566 468.123 280.465 468.124 261.836H485.032L447.163 599.131Z" fill="#FFD394"/>
<path fill-rule="evenodd" clip-rule="evenodd" d="M261.583 322.549C182.615 322.549 118.778 384.387 118.778 460.888C118.778 522.039 159.681 573.803 216.424 592.124C223.518 593.501 226.117 589.147 226.117 585.485C226.117 582.277 225.883 571.285 225.883 559.831C186.158 568.077 177.886 543.34 177.886 543.34C171.502 527.307 162.043 523.186 162.043 523.186C149.041 514.712 162.99 514.712 162.99 514.712C177.412 515.628 184.98 528.912 184.98 528.912C197.745 549.982 218.315 544.028 226.591 540.363C227.772 531.43 231.557 525.247 235.576 521.812C203.893 518.605 170.558 506.695 170.558 453.557C170.558 438.441 176.228 426.073 185.214 416.455C183.796 413.02 178.83 398.817 186.635 379.808C186.635 379.808 198.693 376.142 225.88 394.008C237.52 390.98 249.525 389.439 261.583 389.426C273.641 389.426 285.932 391.031 297.283 394.008C324.474 376.142 336.531 379.808 336.531 379.808C344.336 398.817 339.367 413.02 337.949 416.455C347.171 426.073 352.608 438.441 352.608 453.557C352.608 506.695 319.273 518.374 287.353 521.812C292.556 526.163 297.046 534.407 297.046 547.463C297.046 566.014 296.812 580.903 296.812 585.482C296.812 589.147 299.414 593.501 306.505 592.127C363.249 573.8 404.151 522.039 404.151 460.888C404.385 384.387 340.314 322.549 261.583 322.549Z" fill="#24292F"/>
<path d="M0 71.3398C0 68.5263 2.3206 66.2667 5.13319 66.3416L255 73L504.913 66.3416C507.725 66.2667 510.046 68.5262 510.046 71.3398V148.902C510.046 151.663 507.807 153.902 505.046 153.902H5.00001C2.23858 153.902 0 151.663 0 148.902V71.3398Z" fill="#F3F3F3"/>
<ellipse cx="255" cy="150.5" rx="255" ry="36.5" fill="#F3F3F3"/>
</svg>
