<svg width="591" height="470" viewBox="0 0 591 470" fill="none" xmlns="http://www.w3.org/2000/svg">
<path d="M561.574 234.719C491.973 360.824 320.02 466.189 177.505 470.059C34.9898 473.929 -24.119 374.838 45.4814 248.733C115.082 122.628 287.035 17.2632 429.55 13.3933C572.065 9.52346 631.174 108.614 561.574 234.719Z" fill="#C8C8C8"/>
<path d="M544.68 217.239C475.789 342.057 304.411 446.379 161.896 450.249C19.3814 454.119 -40.303 356.071 28.5874 231.253C97.4778 106.435 268.856 2.11229 411.371 -1.75759C553.886 -5.62747 613.57 92.4205 544.68 217.239Z" fill="white"/>
<path fill-rule="evenodd" clip-rule="evenodd" d="M453.458 150.086C450.943 122.276 425.22 69.6582 349.328 74.2766C254.464 80.0497 181.235 154.92 173.372 165.901L453.729 155.419L453.458 150.086ZM441.83 148.739C440.498 141.22 436.009 124.2 428.704 116.281L388.653 117.778C388.841 127.715 388.54 148.06 387.44 150.773L441.83 148.739ZM378.045 151.124C378.449 140.126 378.862 118.144 377.28 118.203L334.757 119.793L321.182 153.25L378.045 151.124ZM326.351 120.107L312.777 153.564L256.409 155.672C256.409 155.672 272.503 132.807 283.333 121.716L326.351 120.107ZM247.508 156.005C256.529 140.974 272.95 122.104 272.95 122.104L232.404 123.62C222.052 131.131 205.727 143.763 192.129 158.075L247.508 156.005ZM376.276 87.0723C389.827 87.278 413.735 100.365 420.944 109.001L386.827 110.277C386.811 106.715 381.149 93.8659 376.276 87.0723ZM375.454 110.702C374.494 103.465 367.706 86.5912 349.248 84.0754L337.875 112.107L375.454 110.702ZM340.476 85.2939L329.47 112.421L291.891 113.826C316.885 90.6285 334.622 84.9191 340.476 85.2939ZM311.502 89.494C302.134 95.7811 286.364 108.244 281.507 114.214L247.39 115.49C259.39 107.917 288.323 92.8541 311.502 89.494Z" fill="#958A6E" fill-opacity="0.44"/>
<path fill-rule="evenodd" clip-rule="evenodd" d="M117.735 309.176C121.796 336.969 150.277 388.321 225.295 379.2C319.068 367.799 387.487 288.246 394.668 276.749L117.166 303.833L117.735 309.176ZM129.345 309.842C131.09 317.319 136.502 334.155 144.194 341.681L183.837 337.812C183.09 327.838 182.243 307.378 183.181 304.588L129.345 309.842ZM192.48 303.68C192.699 314.755 193.528 336.866 195.094 336.713L237.184 332.605L248.764 298.187L192.48 303.68ZM245.504 331.793L257.084 297.375L312.878 291.929C312.878 291.929 298.202 315.854 288.084 327.638L245.504 331.793ZM321.688 291.069C313.587 306.705 298.362 326.635 298.362 326.635L338.495 322.718C348.34 314.559 363.821 300.902 376.503 285.72L321.688 291.069ZM197.844 367.934C184.391 368.527 159.939 356.789 152.301 348.537L186.071 345.241C186.288 348.819 192.628 361.396 197.844 367.934ZM197.328 344.143C198.687 351.357 206.372 367.911 224.822 369.35L234.524 340.512L197.328 344.143ZM233.455 367.607L242.844 339.7L280.04 336.07C256.555 360.854 239.283 367.638 233.455 367.607ZM261.958 361.677C270.897 354.806 285.837 341.352 290.318 335.067L324.088 331.771C312.612 340.089 284.761 356.932 261.958 361.677Z" fill="#958A6E" fill-opacity="0.44"/>
<path d="M408.464 4.40849C547.36 0.63687 605.529 96.1954 538.388 217.844C471.247 339.493 304.22 441.167 165.324 444.939C26.4275 448.71 -31.7415 353.152 35.3997 231.503C102.541 109.854 269.567 8.18012 408.464 4.40849ZM373.651 59.3477C265.094 62.2736 136.282 138.551 85.941 229.718C35.5998 320.884 82.7933 392.417 191.35 389.492C299.907 386.565 428.719 310.288 479.06 219.122C529.401 127.955 482.208 56.4217 373.651 59.3477Z" fill="#B5201D"/>
<path fill-rule="evenodd" clip-rule="evenodd" d="M466.927 145.88C468.293 115.096 446.867 56.4425 359.253 60.0745C249.734 64.6144 154.443 145.941 143.762 157.924L466.423 151.779L466.927 145.88ZM227.855 149.837C240.479 133.4 262.165 112.863 262.165 112.863L215.502 113.752C202.5 121.853 181.876 135.497 164.119 151.051L227.855 149.837ZM323.625 111.693L302.972 148.406L238.098 149.642C238.098 149.642 260.02 124.684 274.116 112.636L323.625 111.693ZM378.089 146.976C380.231 134.828 384.06 110.542 382.239 110.576L333.299 111.508L312.646 148.222L378.089 146.976ZM451.498 145.578C451.121 137.241 448.578 118.344 441.422 109.449L395.327 110.327C394.026 121.313 390.576 143.793 388.901 146.77L451.498 145.578ZM385.841 76.1506C401.329 76.6409 426.709 91.5691 433.647 101.253L394.381 102.001C394.907 98.0647 390.384 83.7535 385.841 76.1506ZM381.292 102.25C381.298 94.2337 376.1 75.4527 355.347 72.314L338.043 103.074L381.292 102.25ZM345.115 73.4905L328.369 103.258L285.12 104.082C317.285 78.9288 338.468 72.9627 345.115 73.4905ZM311.293 77.5704C299.605 84.3372 279.643 97.8059 273.17 104.31L233.904 105.058C248.802 96.9208 284.236 80.8343 311.293 77.5704Z" fill="#95782A"/>
<path d="M142.961 158.113L139.919 151.172L152.279 150.096L157.226 158.223L142.961 158.113Z" fill="#95782A"/>
<path fill-rule="evenodd" clip-rule="evenodd" d="M460.296 138.919C461.647 108.471 440.455 50.458 353.797 54.0503C245.473 58.5407 151.222 138.98 140.657 150.833L459.798 144.754L460.296 138.919ZM226.125 141.438C238.611 125.18 260.061 104.868 260.061 104.868L213.906 105.747C201.047 113.759 180.648 127.255 163.084 142.639L226.125 141.438ZM320.85 103.71L300.422 140.023L236.256 141.245C236.256 141.245 257.938 116.559 271.881 104.643L320.85 103.71ZM374.719 138.608C376.838 126.593 380.625 102.572 378.824 102.606L330.418 103.528L309.991 139.841L374.719 138.608ZM447.328 137.225C446.955 128.98 444.44 110.289 437.361 101.491L391.77 102.359C390.483 113.226 387.07 135.46 385.414 138.405L447.328 137.225ZM382.387 68.5557C397.706 69.0407 422.809 83.8061 429.671 93.3846L390.834 94.1243C391.354 90.2307 386.881 76.0757 382.387 68.5557ZM377.888 94.3709C377.894 86.4416 372.753 67.8654 352.226 64.7611L335.111 95.1856L377.888 94.3709ZM342.105 65.9247L325.542 95.3678L282.765 96.1826C314.579 71.3036 335.531 65.4026 342.105 65.9247ZM308.653 69.9601C297.092 76.6531 277.348 89.9748 270.945 96.4077L232.108 97.1474C246.843 89.0994 281.891 73.1884 308.653 69.9601Z" fill="#AE8C2F"/>
<path fill-rule="evenodd" clip-rule="evenodd" d="M94.2387 266.43C93.4084 297.715 116.012 357.355 204.136 353.772C314.29 349.293 408.765 266.754 419.305 254.588L94.6413 260.435L94.2387 266.43ZM107.465 268.188C107.992 276.661 110.886 295.87 118.247 304.92L164.628 304.084C165.743 292.92 168.818 270.077 170.451 267.053L107.465 268.188ZM181.33 266.857C179.389 279.201 175.965 303.88 177.798 303.847L227.041 302.96L247.179 265.672L181.33 266.857ZM236.775 302.785L256.913 265.496L322.189 264.321C322.189 264.321 300.566 289.66 286.591 301.888L236.775 302.785ZM332.496 264.135C320.08 280.826 298.616 301.671 298.616 301.671L345.569 300.826C358.512 292.609 379.029 278.766 396.627 262.98L332.496 264.135ZM174.781 338.832C159.183 338.314 133.373 323.11 126.218 313.259L165.727 312.548C165.268 316.548 170.073 331.099 174.781 338.832ZM178.897 312.31C179.033 320.458 184.598 339.553 205.542 342.769L222.415 311.527L178.897 312.31ZM215.821 341.585L232.149 311.351L275.666 310.568C243.736 336.093 222.52 342.13 215.821 341.585ZM249.791 337.481C261.436 330.618 281.29 316.954 287.691 310.351L327.2 309.64C312.348 317.891 276.967 334.197 249.791 337.481Z" fill="#95782A"/>
<path fill-rule="evenodd" clip-rule="evenodd" d="M88.7523 261.346C87.9221 292.632 110.526 352.271 198.65 348.688C308.804 344.21 403.279 261.67 413.818 249.504L89.155 255.351L88.7523 261.346ZM101.979 263.104C102.506 271.577 105.4 290.787 112.761 299.836L159.141 299.001C160.257 287.836 163.332 264.993 164.965 261.97L101.979 263.104ZM175.844 261.774C173.903 274.117 170.479 298.796 172.311 298.763L221.555 297.877L241.693 260.588L175.844 261.774ZM231.289 297.701L251.427 260.413L316.703 259.237C316.703 259.237 295.08 284.577 281.105 296.804L231.289 297.701ZM327.01 259.052C314.594 275.742 293.129 296.588 293.129 296.588L340.082 295.742C353.026 287.525 373.543 273.683 391.141 257.897L327.01 259.052ZM169.294 333.748C153.697 333.23 127.886 318.026 120.732 308.175L160.241 307.464C159.782 311.464 164.587 326.015 169.294 333.748ZM173.411 307.227C173.547 315.374 179.111 334.469 200.056 337.685L216.928 306.443L173.411 307.227ZM210.334 336.502L226.662 306.268L270.18 305.484C238.25 331.009 217.034 337.046 210.334 336.502ZM244.305 332.397C255.95 325.534 275.804 311.87 282.205 305.267L321.714 304.556C306.862 312.807 271.481 329.113 244.305 332.397Z" fill="#AE8C2F"/>
<path d="M420.244 254.07L414.634 248.995L403.095 260.671L420.244 254.07Z" fill="#95782A"/>
<path d="M150.166 217.135C152.773 212.411 156.282 207.898 160.695 203.597C165.211 199.233 170.215 195.387 175.708 192.057C181.304 188.666 187.163 185.945 193.285 183.894C199.478 181.841 205.571 180.733 211.564 180.57C217.843 180.4 223.244 181.372 227.769 183.487C232.294 185.603 235.435 188.698 237.192 192.773L227.01 198.615C225.861 195.348 223.62 192.788 220.286 190.935C216.984 189.022 212.801 188.135 207.735 188.272C203.311 188.392 198.742 189.223 194.025 190.765C189.414 192.245 184.969 194.25 180.69 196.781C176.412 199.312 172.493 202.275 168.932 205.67C165.372 209.065 162.519 212.706 160.374 216.592C158.361 220.24 157.251 223.715 157.044 227.019C156.908 230.321 157.557 233.219 158.992 235.713C160.46 238.147 162.672 240.06 165.628 241.452C168.656 242.842 172.275 243.48 176.484 243.366C179.623 243.28 183.007 242.688 186.636 241.588C190.298 240.428 193.873 238.918 197.36 237.056C200.847 235.195 204.052 233.017 206.975 230.523C209.969 228.026 212.313 225.371 214.007 222.557L193.138 223.124L197.395 215.41L229.394 214.541L228.107 216.873C225.302 221.956 221.762 226.587 217.487 230.767C213.245 234.887 208.584 238.43 203.504 241.395C198.495 244.358 193.243 246.68 187.748 248.361C182.252 250.041 176.864 250.953 171.585 251.097C166.162 251.244 161.485 250.487 157.552 248.827C153.652 247.107 150.686 244.714 148.654 241.648C146.693 238.579 145.778 234.952 145.909 230.767C146.074 226.522 147.492 221.978 150.166 217.135Z" fill="#D0CCBF" fill-opacity="0.37"/>
<path d="M269.984 180.397C275.834 180.239 280.562 180.523 284.166 181.249C287.771 181.976 290.36 183.142 291.933 184.749C293.611 186.294 294.343 188.276 294.132 190.697C293.953 193.058 292.973 195.852 291.191 199.081C289.607 201.951 287.62 204.597 285.229 207.018C282.839 209.438 279.972 211.578 276.627 213.436C273.316 215.233 269.524 216.691 265.253 217.808C261.087 218.864 256.435 219.461 251.298 219.601L246.268 219.737L230.625 248.08L220.565 248.353L257.89 180.726L269.984 180.397ZM250.426 212.203L253.53 212.119C261.307 211.908 267.397 210.741 271.801 208.619C276.238 206.437 279.595 203.283 281.872 199.158C283.324 196.527 283.802 194.452 283.304 192.934C282.911 191.355 281.859 190.205 280.147 189.486C278.469 188.707 276.34 188.235 273.761 188.069C271.253 187.902 268.679 187.854 266.039 187.926L263.792 187.987L250.426 212.203Z" fill="#D0CCBF" fill-opacity="0.37"/>
<path d="M354.221 178.11L349.964 185.824L316.681 186.727L306.235 205.652L338.556 204.774L334.298 212.488L301.978 213.366L287.87 238.928L321.153 238.024L316.896 245.737L273.553 246.914L310.878 179.287L354.221 178.11Z" fill="#D0CCBF" fill-opacity="0.37"/>
<path d="M397.498 246.287L366.279 194.745L338.459 245.152L328.399 245.425L367.506 174.569L398.725 226.111L426.298 176.153L436.357 175.88L397.498 246.287Z" fill="#D0CCBF" fill-opacity="0.37"/>
<path d="M136.428 201.146C139.013 196.407 142.502 191.885 146.896 187.58C151.394 183.213 156.383 179.369 161.862 176.047C167.446 172.663 173.296 169.956 179.412 167.923C185.599 165.89 191.692 164.806 197.689 164.673C203.971 164.534 209.382 165.54 213.922 167.691C218.461 169.842 221.62 172.972 223.399 177.081L213.239 182.907C212.073 179.614 209.817 177.027 206.47 175.146C203.156 173.204 198.965 172.29 193.896 172.402C189.469 172.501 184.9 173.313 180.188 174.84C175.58 176.305 171.142 178.3 166.873 180.825C162.604 183.349 158.697 186.31 155.151 189.708C151.605 193.105 148.769 196.753 146.642 200.653C144.646 204.312 143.552 207.803 143.362 211.126C143.243 214.448 143.908 217.366 145.356 219.882C146.838 222.339 149.061 224.275 152.027 225.69C155.065 227.105 158.689 227.765 162.901 227.671C166.043 227.602 169.427 227.023 173.053 225.935C176.712 224.787 180.281 223.285 183.762 221.43C187.242 219.575 190.439 217.4 193.351 214.906C196.335 212.41 198.667 209.751 200.348 206.928L179.465 207.391L183.686 199.653L215.706 198.942L214.43 201.282C211.649 206.381 208.13 211.022 203.873 215.206C199.649 219.329 195.002 222.87 189.933 225.827C184.935 228.782 179.691 231.092 174.2 232.754C168.708 234.417 163.321 235.307 158.038 235.424C152.612 235.545 147.927 234.76 143.982 233.069C140.07 231.319 137.09 228.896 135.04 225.801C133.062 222.704 132.128 219.05 132.238 214.84C132.381 210.57 133.777 206.005 136.428 201.146Z" fill="#95782A"/>
<path d="M256.154 164.798C262.008 164.668 266.741 164.978 270.352 165.727C273.964 166.477 276.561 167.664 278.143 169.288C279.83 170.851 280.574 172.849 280.374 175.283C280.208 177.658 279.241 180.464 277.474 183.704C275.903 186.583 273.928 189.235 271.548 191.658C269.168 194.081 266.31 196.219 262.972 198.071C259.667 199.863 255.88 201.31 251.611 202.412C247.447 203.453 242.794 204.03 237.654 204.144L232.62 204.256L217.11 232.691L207.043 232.914L244.053 165.067L256.154 164.798ZM236.743 196.697L239.849 196.628C247.631 196.456 253.72 195.313 258.117 193.201C262.546 191.028 265.89 187.872 268.148 183.733C269.588 181.093 270.055 179.009 269.549 177.479C269.148 175.888 268.089 174.726 266.372 173.994C264.688 173.202 262.556 172.716 259.973 172.536C257.463 172.355 254.887 172.293 252.245 172.352L249.996 172.402L236.743 196.697Z" fill="#95782A"/>
<path d="M340.447 162.927L336.226 170.666L302.921 171.405L292.564 190.392L324.905 189.674L320.684 197.412L288.343 198.13L274.354 223.776L307.659 223.036L303.438 230.775L260.066 231.738L297.075 163.89L340.447 162.927Z" fill="#95782A"/>
<path d="M384.107 231.74L352.6 179.725L325.015 230.296L314.948 230.519L353.725 159.432L385.231 211.447L412.571 161.326L422.638 161.103L384.107 231.74Z" fill="#95782A"/>
<path d="M322.803 186.221L324.905 189.674L319.962 189.903L322.803 186.221Z" fill="#95782A"/>
<path d="M305.473 219.428L307.659 223.036L302.727 223.644L305.473 219.428Z" fill="#95782A"/>
<path d="M338.345 159.474L340.447 162.927L335.859 163.66L338.345 159.474Z" fill="#95782A"/>
<path d="M207.043 232.914L204.941 229.461C206.679 229.318 209.879 229.445 211.144 229.351C211.432 229.185 211.626 229.12 211.673 229.198C211.721 229.276 211.516 229.323 211.144 229.351C210.166 229.917 208.104 231.659 207.043 232.914Z" fill="#95782A"/>
<path d="M263.569 227.188L260.066 231.738L257.964 228.284L263.569 227.188Z" fill="#95782A"/>
<path d="M213.586 195.495L215.688 198.948L211.192 199.319L213.586 195.495Z" fill="#95782A"/>
<path d="M177.397 203.917L179.499 207.37L183.711 203.623L177.397 203.917Z" fill="#95782A"/>
<path d="M312.846 227.066L314.948 230.519L317.64 226.812L312.846 227.066Z" fill="#D9D9D9"/>
<path d="M312.846 227.066L314.948 230.519L317.64 226.812L312.846 227.066Z" fill="#95782A"/>
<path d="M134.326 197.693C136.911 192.954 140.4 188.432 144.794 184.126C149.292 179.76 154.281 175.915 159.76 172.594C165.344 169.21 171.194 166.502 177.31 164.47C183.497 162.436 189.589 161.353 195.587 161.22C201.869 161.081 207.28 162.086 211.82 164.238C216.359 166.389 219.518 169.519 221.297 173.628L211.137 179.454C209.971 176.161 207.715 173.574 204.368 171.692C201.054 169.751 196.863 168.837 191.794 168.949C187.367 169.047 182.798 169.86 178.086 171.387C173.478 172.852 169.04 174.847 164.771 177.371C160.502 179.896 156.595 182.857 153.049 186.254C149.503 189.652 146.667 193.3 144.54 197.199C142.543 200.859 141.45 204.35 141.26 207.673C141.141 210.994 141.806 213.913 143.254 216.429C144.736 218.885 146.959 220.821 149.925 222.237C152.962 223.651 156.587 224.312 160.799 224.218C163.941 224.148 167.324 223.57 170.951 222.482C174.61 221.334 178.179 219.832 181.66 217.977C185.14 216.122 188.337 213.947 191.249 211.453C194.233 208.957 196.565 206.297 198.246 203.475L177.363 203.938L181.584 196.2L213.604 195.489L212.328 197.828C209.547 202.928 206.028 207.569 201.771 211.753C197.547 215.876 192.9 219.417 187.831 222.374C182.833 225.329 177.589 227.638 172.097 229.301C166.606 230.964 161.219 231.854 155.936 231.971C150.51 232.091 145.824 231.306 141.88 229.616C137.968 227.866 134.987 225.443 132.938 222.347C130.96 219.25 130.026 215.597 130.136 211.387C130.279 207.117 131.675 202.552 134.326 197.693Z" fill="#AE8C2F"/>
<path d="M254.052 161.345C259.906 161.215 264.639 161.525 268.25 162.274C271.862 163.024 274.459 164.211 276.041 165.835C277.728 167.397 278.471 169.396 278.272 171.83C278.106 174.204 277.139 177.011 275.372 180.25C273.801 183.13 271.826 185.781 269.446 188.205C267.066 190.628 264.207 192.766 260.87 194.618C257.565 196.41 253.778 197.857 249.509 198.959C245.344 200 240.692 200.577 235.552 200.691L230.518 200.803L215.008 229.238L204.941 229.461L241.951 161.613L254.052 161.345ZM234.641 193.244L237.747 193.175C245.529 193.002 251.618 191.86 256.015 189.747C260.444 187.575 263.788 184.419 266.046 180.28C267.486 177.64 267.953 175.556 267.447 174.026C267.045 172.435 265.986 171.273 264.27 170.541C262.586 169.748 260.453 169.262 257.871 169.083C255.361 168.901 252.785 168.84 250.143 168.899L247.894 168.948L234.641 193.244Z" fill="#AE8C2F"/>
<path d="M338.345 159.474L334.124 167.212L300.818 167.952L290.462 186.938L322.803 186.221L318.582 193.959L286.241 194.677L272.252 220.322L305.473 219.428L301.336 227.322L257.964 228.284L294.973 160.436L338.345 159.474Z" fill="#AE8C2F"/>
<path d="M382.005 228.287L350.498 176.272L322.913 226.843L312.846 227.066L351.623 155.979L383.129 207.994L410.469 157.873L420.536 157.65L382.005 228.287Z" fill="#AE8C2F"/>
<path d="M420.536 157.65L422.638 161.103L417.527 163.05L420.536 157.65Z" fill="#95782A"/>
<path d="M207.955 95.7536C203.371 98.5108 199.421 100.02 196.104 100.28C192.776 100.528 190.137 99.5884 188.188 97.4612C186.728 95.8689 186.126 94.2418 186.381 92.5801C186.66 90.9037 187.61 89.2381 189.233 87.5833C190.845 85.9163 192.918 84.3201 195.454 82.7949C196.966 81.8856 198.403 81.1433 199.767 80.5681C201.145 79.966 202.497 79.5016 203.824 79.1748L205.695 81.2169L204.985 81.9272C203.54 82.2493 202.166 82.6894 200.862 83.2475C199.571 83.7788 198.413 84.3524 197.389 84.9684C195.853 85.8923 194.62 86.879 193.691 87.9283C192.775 88.9508 192.264 90.0029 192.159 91.0846C192.066 92.1395 192.494 93.1835 193.441 94.2167C194.722 95.6146 196.432 96.2833 198.57 96.2227C200.708 96.1622 203.253 95.2447 206.203 93.4701C207.202 92.8688 208.146 92.2068 209.035 91.4839C209.923 90.7611 210.836 89.9005 211.775 88.9024L212.799 88.2864L214.787 90.4561C214.097 91.2297 213.191 92.0573 212.07 92.939C210.961 93.8328 209.589 94.771 207.955 95.7536ZM209.96 93.3599L204.712 87.6348L209.54 84.731L214.787 90.4561L209.96 93.3599ZM200.782 91.9507L198.71 89.6898L208.621 83.7281L210.526 85.8067L202.809 90.4484L200.782 91.9507Z" fill="white"/>
<path d="M225.69 84.9419L216.585 70.4747L221.782 67.757L230.887 82.2242L225.69 84.9419ZM222.376 86.6749L220.711 84.0295L223.101 83.0546L230.407 79.2341L232.536 77.8458L234.201 80.4913L222.376 86.6749ZM214.936 74.8531L213.271 72.2077L225.096 66.024L226.761 68.6695L224.371 69.6444L217.065 73.4648L214.936 74.8531Z" fill="white"/>
<path d="M238.638 78.3685L241.569 58.1327L248.542 54.9832L264.308 66.774L258.369 69.4563L256.87 67.9723L247.134 60.0501L246.182 58.8048L245.799 58.9778L245.985 60.5692L244.61 73.51L244.577 75.6862L238.638 78.3685ZM242.152 72.4587L241.052 69.7135L256.76 62.6184L257.86 65.3635L242.152 72.4587Z" fill="white"/>
<path d="M281.038 61.1727C278.207 62.2207 275.789 62.7219 273.785 62.6764C271.777 62.614 270.193 62.0638 269.032 61.0258C267.871 59.9878 267.132 58.5341 266.814 56.6647C266.457 54.5595 266.692 52.6464 267.522 50.9253C268.374 49.1779 269.672 47.6412 271.416 46.3153C273.16 44.9893 275.204 43.8929 277.545 43.0259C278.909 42.5209 280.226 42.1409 281.496 41.8857C282.791 41.6209 284.038 41.4726 285.236 41.4408L285.725 44.3207L284.842 44.9163C283.764 44.85 282.721 44.9136 281.715 45.1072C280.734 45.2913 279.768 45.5596 278.815 45.9121C277.374 46.4457 276.122 47.1241 275.058 47.9475C274.017 48.7445 273.249 49.7 272.755 50.8139C272.283 51.9015 272.169 53.161 272.412 54.5925C272.764 56.664 273.704 57.9357 275.234 58.4076C276.761 58.8626 278.67 58.6661 280.961 57.8182C281.99 57.4371 282.991 56.9682 283.963 56.4114C284.935 55.8546 285.879 55.2099 286.794 54.4773L287.763 54.387L288.257 57.2921C287.213 58.0723 286.102 58.7789 284.924 59.4119C283.775 60.0523 282.479 60.6392 281.038 61.1727Z" fill="white"/>
<path d="M306.686 52.78L307.312 50.4401L308.961 35.3055L308.824 33.161L319.009 30.5532C321.017 30.0388 322.641 29.8865 323.879 30.0963C325.142 30.2995 326.041 30.7775 326.577 31.5303C327.139 32.2766 327.356 33.2289 327.23 34.3874C327.143 35.1908 326.905 36.0053 326.519 36.8308C326.134 37.6377 325.553 38.4312 324.776 39.2114C324.027 39.9665 323.061 40.6587 321.88 41.288C320.725 41.9108 319.321 42.4339 317.668 42.8571L313.129 44.0194L312.576 49.0923L312.713 51.2368L306.686 52.78ZM313.489 40.7122L316.96 39.8234C318.613 39.4001 319.795 38.8703 320.507 38.2339C321.222 37.5788 321.629 36.7935 321.728 35.8779C321.83 34.9437 321.577 34.3183 320.969 34.0018C320.36 33.6853 319.23 33.7387 317.577 34.1619L314.106 35.0507L313.489 40.7122Z" fill="white"/>
<path d="M332.867 45.758L333.898 43.3419L338.348 27.4751L338.634 25.1898L355.251 22.2745L354.196 26.0356L352.043 26.1339L343.101 27.7027L341.726 32.6096L351.748 30.8513L350.71 34.5536L348.54 34.7107L340.753 36.0769L339.279 41.3364L348.22 39.7677L350.538 39.0817L349.484 42.8427L332.867 45.758Z" fill="white"/>
<path d="M357.391 41.6764L358.882 39.2263L367.666 20.4486L373.089 20.0358L377.264 32.219L376.747 35.2376L377.139 35.2078L383.515 21.5788L384.292 19.183L389.929 18.7539L388.438 21.204L379.654 39.9817L374.231 40.3945L370.056 28.2113L370.573 25.1927L370.181 25.2225L363.805 38.8515L363.028 41.2473L357.391 41.6764Z" fill="white"/>
<path d="M388.917 39.7787L390.842 37.3587L401.576 20.9419L402.832 18.4975L417.763 19.0406L415.218 22.932L413.408 22.5549L405.374 22.2627L402.054 27.3398L411.06 27.6673L408.555 31.4979L406.705 31.1816L399.708 30.9272L396.15 36.3691L404.185 36.6613L406.392 36.4303L403.848 40.3217L388.917 39.7787Z" fill="white"/>
<path d="M415.908 41.3909L418.163 39.0486L431.871 22.213L436.169 22.8441L422.462 39.6797L420.829 42.1135L415.908 41.3909ZM423.856 23.5761L427.064 19.6359L443.698 22.078L440.49 26.0182L438.864 25.4453L425.968 23.552L423.856 23.5761Z" fill="white"/>
<path d="M431.808 44.6418L434.363 42.4301L449.698 26.9548L451.687 24.5813L459.794 26.9026C461.131 27.2854 462.033 27.8627 462.501 28.6344C462.969 29.4062 463.013 30.3138 462.631 31.3574C462.25 32.4009 461.472 33.5149 460.298 34.6995C459.484 35.521 458.576 36.2665 457.574 36.9362C456.591 37.6112 455.533 38.1666 454.4 38.6025C453.286 39.0193 452.135 39.2783 450.947 39.3796C449.778 39.4617 448.609 39.3356 447.442 39.0013L443.742 37.9418L438.204 43.5301L436.215 45.9036L431.808 44.6418ZM442.881 47.8124L443.91 45.1639L446.377 36.6729L449.625 37.6031L450.15 40.5494L447.569 49.155L442.881 47.8124ZM447.008 34.6461L450.228 35.5682C451.169 35.8378 452.121 35.8406 453.084 35.5766C454.084 35.299 455.067 34.673 456.033 33.6986C456.979 32.7433 457.378 31.9747 457.23 31.3926C457.1 30.7914 456.556 30.3533 455.595 30.0783L452.432 29.1724L447.008 34.6461Z" fill="white"/>
<path d="M451.899 50.1894L480.22 34.1269L484.763 36.2158L468.624 57.8796L464.755 56.1005L466.796 53.7151L477.658 39.7629L479.377 37.9774L479.127 37.8626L476.909 39.4185L458.808 50.0422L455.768 51.9685L451.899 50.1894ZM460.225 47.37L464.036 44.1363L474.271 48.8422L470.46 52.0759L460.225 47.37Z" fill="white"/>
<path d="M472.996 60.4042L475.947 58.5459L495.225 44.4276L498.214 46.4193L478.937 60.5376L476.42 62.6845L472.996 60.4042ZM488.337 43.4724L492.849 40.1681L504.418 47.8751L499.906 51.1794L498.948 50.0631L489.979 44.088L488.337 43.4724Z" fill="white"/>
<path d="M485.339 69.0168L510.378 52.7647L512.956 55.0835L487.917 71.3356L485.339 69.0168ZM483.696 67.5381L488.274 64.5663L489.037 65.8067L492.661 69.0664L494.14 69.8424L489.561 72.8142L483.696 67.5381ZM504.156 54.2579L508.734 51.2861L514.6 56.5621L510.022 59.5339L509.259 58.2936L505.634 55.0339L504.156 54.2579Z" fill="white"/>
<path d="M496.392 82.3808C495.755 81.5513 495.36 80.6225 495.209 79.5942C495.057 78.5659 495.25 77.4551 495.788 76.2619C496.36 75.0678 497.362 73.8087 498.792 72.4847C500.232 71.1736 502.228 69.8007 504.78 68.366C507.331 66.9312 509.608 65.9013 511.611 65.2761C513.624 64.6639 515.384 64.3698 516.893 64.3939C518.411 64.4309 519.692 64.7128 520.735 65.2397C521.803 65.7526 522.656 66.4238 523.293 67.2532C523.94 68.0956 524.317 69.025 524.424 70.0413C524.556 71.0437 524.326 72.129 523.733 73.2972C523.151 74.4784 522.122 75.725 520.647 77.037C519.172 78.3491 517.159 79.7225 514.607 81.1572C512.081 82.578 509.821 83.6075 507.828 84.2456C505.86 84.8698 504.132 85.1828 502.643 85.1847C501.18 85.1726 499.931 84.9096 498.898 84.3957C497.874 83.8948 497.039 83.2231 496.392 82.3808ZM500.999 79.6509C501.616 80.4544 502.446 80.9342 503.488 81.0905C504.531 81.2467 505.803 81.0788 507.305 80.5867C508.817 80.1077 510.564 79.3109 512.545 78.1966C514.552 77.0683 516.087 76.0193 517.151 75.0497C518.24 74.0662 518.895 73.1411 519.116 72.2745C519.337 71.4078 519.144 70.5793 518.537 69.7887C517.929 68.9982 517.112 68.5113 516.084 68.3282C515.067 68.1581 513.814 68.3056 512.327 68.7707C510.875 69.2349 509.158 70.0242 507.176 71.1385C505.194 72.2529 503.629 73.3093 502.481 74.3078C501.367 75.3052 500.687 76.2442 500.441 77.1248C500.206 78.0183 500.392 78.8603 500.999 79.6509Z" fill="white"/>
<path d="M504.76 92.2405L507.917 91.0454L531.614 80.0402L533.117 83.4582L519.595 97.509L515.953 99.9041L516.062 100.152L533.262 92.1639L536.221 90.519L537.782 94.0719L534.626 95.267L510.928 106.272L509.426 102.854L522.948 88.8034L526.589 86.4083L526.481 86.1609L509.281 94.1485L506.322 95.7934L504.76 92.2405Z" fill="white"/>
<path d="M99.769 414.229L103.691 411.448L128.977 390.89L133.6 392.751L108.313 413.308L105.062 416.359L99.769 414.229ZM118.937 390.991L124.855 386.179L142.743 393.379L136.825 398.19L135.263 397.017L121.395 391.435L118.937 390.991Z" fill="white"/>
<path d="M124.262 425.785L127.75 422.538L148.645 400.212L151.348 396.843L168.829 399.581L163.877 404.873L161.912 404.091L152.505 402.618L146.043 409.523L156.586 411.174L151.711 416.383L149.669 415.684L141.477 414.401L134.551 421.802L143.958 423.275L146.696 423.23L141.743 428.522L124.262 425.785Z" fill="white"/>
<path d="M169.246 431.626C167.301 431.717 165.716 431.581 164.491 431.216C163.296 430.85 162.303 430.348 161.511 429.709L164.852 424.487L166.186 424.011C166.696 424.688 167.432 425.213 168.394 425.586C169.385 425.959 170.697 426.118 172.332 426.065C173.966 426.012 175.47 425.718 176.841 425.183C178.213 424.647 179.286 423.775 180.06 422.565C180.607 421.71 180.788 421.025 180.602 420.511C180.465 419.966 180.086 419.531 179.466 419.204C178.865 418.848 178.158 418.524 177.344 418.233C176.53 417.941 175.753 417.591 175.015 417.181C174.277 416.772 173.701 416.242 173.289 415.591C172.895 414.91 172.776 414.047 172.93 413.002C173.132 411.926 173.752 410.577 174.791 408.955C176.093 406.919 177.607 405.223 179.332 403.868C181.076 402.482 182.958 401.439 184.979 400.738C187.019 400.007 189.133 399.607 191.322 399.536C192.84 399.487 194.19 399.588 195.373 399.838C196.575 400.059 197.6 400.402 198.446 400.865L195.133 406.043L193.799 406.519C193.234 406.018 192.511 405.651 191.631 405.42C190.769 405.159 189.783 405.046 188.674 405.082C188.002 405.104 187.187 405.217 186.227 405.421C185.286 405.596 184.334 405.945 183.371 406.467C182.456 406.959 181.687 407.692 181.064 408.665C180.517 409.521 180.312 410.221 180.45 410.765C180.635 411.279 181.029 411.714 181.63 412.07C182.25 412.397 182.957 412.721 183.752 413.042C184.547 413.363 185.314 413.728 186.053 414.137C186.791 414.547 187.366 415.077 187.779 415.728C188.191 416.379 188.315 417.213 188.15 418.23C188.015 419.245 187.447 420.535 186.447 422.098C185.503 423.573 184.41 424.88 183.167 426.018C181.953 427.155 180.61 428.138 179.137 428.965C177.683 429.763 176.124 430.392 174.458 430.85C172.812 431.279 171.074 431.537 169.246 431.626Z" fill="white"/>
<path d="M210.696 428.864L212.273 425.321L220.071 400.976L226.576 399.728L218.778 424.073L218.144 427.436L210.696 428.864ZM209.686 406.046L211.511 400.348L236.683 395.521L234.858 401.219L232.168 401.33L212.653 405.072L209.686 406.046Z" fill="white"/>
<path d="M251.291 420.356L251.668 417.162L250.902 396.705L250.298 393.838L272.183 386.57L272.365 391.419L269.406 392.018L257.629 395.929L257.866 402.255L271.066 397.872L271.245 402.645L268.289 403.32L258.034 406.725L258.287 413.507L270.064 409.596L272.994 408.239L273.176 413.088L251.291 420.356Z" fill="white"/>
<path d="M298.364 403.904L297.656 401.268L289.532 385.062L287.833 382.896L302.057 376.169C304.403 375.059 306.549 374.366 308.495 374.089C310.441 373.812 312.096 373.933 313.459 374.452C314.822 374.97 315.815 375.85 316.437 377.09C316.868 377.95 317.048 378.88 316.977 379.879C316.938 380.863 316.595 381.891 315.948 382.964C315.291 384.018 314.309 385.076 313.003 386.14C311.686 387.183 310.004 388.189 307.955 389.158L301.463 392.228L304.396 398.081L306.095 400.247L298.364 403.904ZM317.792 394.715L314.408 393.346L302.519 389.687L308.218 386.991L314.07 387.046L326.019 390.824L317.792 394.715ZM299.733 388.777L305.383 386.105C307.035 385.324 308.23 384.486 308.967 383.593C309.728 382.664 309.852 381.689 309.341 380.669C308.839 379.669 307.983 379.183 306.771 379.211C305.549 379.22 304.095 379.623 302.41 380.42L296.86 383.045L299.733 388.777Z" fill="white"/>
</svg>
