<svg width="588" height="470" viewBox="0 0 588 470" fill="none" xmlns="http://www.w3.org/2000/svg">
<ellipse cx="256" cy="258.639" rx="256" ry="258.639" transform="matrix(0.999729 -0.0232791 -0.479704 0.87743 170.492 20.6143)" fill="#C8C8C8"/>
<circle cx="256" cy="256" r="256" transform="matrix(0.999729 -0.0232791 -0.479704 0.87743 152.396 5.45111)" fill="white"/>
<path fill-rule="evenodd" clip-rule="evenodd" d="M450.696 150.905C448.088 123.195 422.357 70.6815 347.099 74.9818C253.025 80.3572 180.695 154.644 172.939 165.55L450.986 156.218L450.696 150.905ZM439.157 149.518C437.805 142.022 433.282 125.052 426.004 117.134L386.283 118.468C386.51 128.367 386.295 148.63 385.214 151.328L439.157 149.518ZM375.897 151.641C376.253 140.687 376.573 118.794 375.004 118.846L332.831 120.262L319.503 153.534L375.897 151.641ZM324.495 120.542L311.167 153.813L255.263 155.69C255.263 155.69 271.134 132.978 281.831 121.973L324.495 120.542ZM246.436 155.986C255.322 141.05 271.533 122.319 271.533 122.319L231.322 123.669C221.084 131.11 204.943 143.628 191.513 157.829L246.436 155.986ZM373.881 87.8337C387.323 88.0922 411.091 101.223 418.277 109.853L384.441 110.989C384.41 107.441 378.742 94.6199 373.881 87.8337ZM373.162 111.367C372.181 104.155 365.378 87.3206 347.059 84.7418L335.893 112.618L373.162 111.367ZM338.363 85.9208L327.556 112.898L290.287 114.149C314.985 91.1412 332.555 85.5243 338.363 85.9208ZM309.641 89.9899C300.374 96.2152 284.783 108.567 279.989 114.495L246.153 115.63C258.025 108.135 286.663 93.2451 309.641 89.9899Z" fill="#958A6E" fill-opacity="0.44"/>
<path fill-rule="evenodd" clip-rule="evenodd" d="M118.339 308.042C122.48 335.743 150.94 387.005 225.315 378.217C318.282 367.231 385.823 288.262 392.899 276.838L117.752 302.718L118.339 308.042ZM129.857 308.752C131.618 316.206 137.055 332.997 144.716 340.524L184.023 336.827C183.241 326.89 182.317 306.507 183.237 303.731L129.857 308.752ZM192.457 302.864C192.719 313.896 193.631 335.924 195.184 335.777L236.917 331.852L248.263 297.614L192.457 302.864ZM245.167 331.076L256.512 296.839L311.833 291.635C311.833 291.635 297.373 315.408 287.385 327.105L245.167 331.076ZM320.568 290.813C312.597 306.355 297.576 326.146 297.576 326.146L337.368 322.404C347.1 314.316 362.401 300.774 374.918 285.701L320.568 290.813ZM198.04 366.886C184.697 367.424 160.395 355.635 152.786 347.386L186.269 344.236C186.499 347.801 192.839 360.353 198.04 366.886ZM197.43 343.186C198.808 350.378 206.498 366.898 224.805 368.403L234.311 339.717L197.43 343.186ZM233.362 366.702L242.56 338.941L279.441 335.472C256.247 360.067 239.142 366.756 233.362 366.702ZM261.61 360.907C270.448 354.099 285.212 340.757 289.632 334.514L323.115 331.365C311.765 339.604 284.208 356.271 261.61 360.907Z" fill="#958A6E" fill-opacity="0.44"/>
<path fill-rule="evenodd" clip-rule="evenodd" d="M166.097 443.46C303.855 440.252 469.115 339.638 535.216 218.733C601.317 97.8272 543.227 2.41425 405.469 5.62199C267.712 8.82973 102.452 109.443 36.3509 230.349C-29.75 351.255 28.3394 446.667 166.097 443.46ZM191.686 388.334C299.352 385.848 426.811 310.38 476.372 219.771C525.934 129.161 478.83 57.7222 371.163 60.2075C263.496 62.6928 136.038 138.161 86.4762 228.771C36.9149 319.38 84.0187 390.819 191.686 388.334Z" fill="#0D56A7"/>
<path fill-rule="evenodd" clip-rule="evenodd" d="M464.038 146.768C465.267 116.111 443.775 57.6033 356.884 60.8747C248.27 64.9639 154.082 145.594 143.536 157.488L463.563 152.642L464.038 146.768ZM226.916 149.765C239.371 133.442 260.797 113.072 260.797 113.072L214.515 113.773C201.652 121.79 181.25 135.3 163.7 150.722L226.916 149.765ZM321.755 112.149L301.419 148.637L237.075 149.611C237.075 149.611 258.717 124.838 272.65 112.893L321.755 112.149ZM375.923 147.509C377.998 135.418 381.697 111.242 379.89 111.269L331.35 112.004L311.014 148.492L375.923 147.509ZM448.733 146.406C448.325 138.101 445.725 119.268 438.59 110.38L392.872 111.072C391.626 122.01 388.296 144.388 386.647 147.347L448.733 146.406ZM383.323 76.9927C398.687 77.5424 423.924 92.5123 430.845 102.186L391.9 102.776C392.405 98.8565 387.86 84.5837 383.323 76.9927ZM378.918 102.972C378.891 94.9868 373.658 76.259 353.06 73.0507L336.022 103.622L378.918 102.972ZM342.915 74.1822L326.427 103.767L283.531 104.416C315.333 79.489 336.32 73.6301 342.915 74.1822ZM309.384 78.1123C297.818 84.8063 278.072 98.1431 271.678 104.596L232.733 105.186C247.477 97.1396 282.559 81.2564 309.384 78.1123Z" fill="#95782A"/>
<path d="M356.884 60.8747L356.654 61.3111L356.884 60.8747ZM464.038 146.768L464.593 146.593L464.594 146.587L464.594 146.581L464.038 146.768ZM143.536 157.488L143.124 157.373L142.626 157.935L143.292 157.925L143.536 157.488ZM463.563 152.642L463.319 153.079L464.069 153.068L464.118 152.467L463.563 152.642ZM260.797 113.072L261.157 113.241L261.806 112.624L261.041 112.635L260.797 113.072ZM226.916 149.765L226.672 150.202L227.089 150.196L227.364 149.836L226.916 149.765ZM214.515 113.773L214.758 113.336L214.542 113.34L214.317 113.48L214.515 113.773ZM163.7 150.722L163.368 150.529L162.636 151.171L163.457 151.159L163.7 150.722ZM301.419 148.637L301.176 149.074L301.676 149.066L301.919 148.629L301.419 148.637ZM321.755 112.149L322.255 112.142L322.498 111.705L321.998 111.712L321.755 112.149ZM237.075 149.611L236.659 149.501L236.173 150.058L236.832 150.048L237.075 149.611ZM272.65 112.893L272.894 112.456L272.596 112.46L272.327 112.691L272.65 112.893ZM379.89 111.269L380.134 110.832L379.89 111.269ZM375.923 147.509L375.679 147.946L376.376 147.935L376.474 147.362L375.923 147.509ZM331.35 112.004L331.594 111.567L331.094 111.575L330.85 112.011L331.35 112.004ZM311.014 148.492L310.514 148.499L310.271 148.936L310.771 148.928L311.014 148.492ZM438.59 110.38L439.1 110.043L439.018 109.941L438.834 109.943L438.59 110.38ZM448.733 146.406L448.49 146.843L449.32 146.831L449.289 146.195L448.733 146.406ZM392.872 111.072L393.116 110.636L392.385 110.647L392.318 111.237L392.872 111.072ZM386.647 147.347L386.147 147.354L385.904 147.791L386.404 147.783L386.647 147.347ZM430.845 102.186L430.601 102.623L431.894 102.603L431.361 101.858L430.845 102.186ZM383.323 76.9927L383.595 76.5563L382.322 76.5107L382.797 77.3069L383.323 76.9927ZM391.9 102.776L391.346 102.936L391.31 103.217L391.656 103.212L391.9 102.776ZM353.06 73.0507L353.388 72.6195L352.851 72.5359L352.56 73.0583L353.06 73.0507ZM378.918 102.972L378.674 103.409L379.476 103.397L379.474 102.773L378.918 102.972ZM336.022 103.622L335.522 103.629L335.279 104.066L335.778 104.058L336.022 103.622ZM326.427 103.767L326.183 104.204L326.683 104.196L326.927 103.759L326.427 103.767ZM342.915 74.1822L343.415 74.1746L343.634 73.7825L343.211 73.7471L342.915 74.1822ZM283.531 104.416L283.241 104.187L282.374 104.867L283.287 104.853L283.531 104.416ZM271.678 104.596L271.434 105.033L271.778 105.027L272.057 104.746L271.678 104.596ZM309.384 78.1123L309.552 78.4234L311.16 77.4927L309.563 77.6799L309.384 78.1123ZM232.733 105.186L232.587 104.861L231.156 105.642L232.489 105.622L232.733 105.186ZM356.654 61.3111C399.954 59.6809 426.966 73.4418 443.004 91.4438C459.046 109.45 464.094 131.687 463.482 146.955L464.594 146.581C465.211 131.193 460.128 108.846 444.009 90.7526C427.885 72.6543 400.705 58.7972 357.114 60.4383L356.654 61.3111ZM143.948 157.603C146.529 154.692 154.338 147.465 166.332 138.183C178.31 128.912 194.427 117.617 213.601 106.567C251.946 84.4672 302.5 63.3499 356.654 61.3111L357.114 60.4383C302.653 62.4887 251.807 83.7312 213.268 105.943C194 117.048 177.804 128.397 165.762 137.717C153.735 147.025 145.815 154.338 143.124 157.373L143.948 157.603ZM463.806 152.206L143.779 157.051L143.292 157.925L463.319 153.079L463.806 152.206ZM463.483 146.943L463.007 152.817L464.118 152.467L464.593 146.593L463.483 146.943ZM260.797 113.072C260.438 112.904 260.437 112.904 260.437 112.904C260.437 112.904 260.437 112.904 260.436 112.905C260.436 112.905 260.435 112.906 260.433 112.908C260.431 112.91 260.427 112.914 260.421 112.919C260.411 112.929 260.395 112.944 260.375 112.964C260.333 113.003 260.272 113.062 260.191 113.139C260.031 113.293 259.794 113.52 259.488 113.815C258.876 114.406 257.988 115.267 256.884 116.352C254.677 118.521 251.604 121.582 248.141 125.155C241.22 132.295 232.723 141.496 226.467 149.694L227.364 149.836C233.563 141.711 242.007 132.565 248.913 125.44C252.364 121.88 255.426 118.829 257.626 116.668C258.725 115.588 259.609 114.73 260.217 114.143C260.522 113.85 260.757 113.624 260.916 113.471C260.996 113.395 261.056 113.337 261.097 113.299C261.117 113.279 261.132 113.265 261.142 113.255C261.147 113.25 261.151 113.247 261.154 113.244C261.155 113.243 261.156 113.242 261.157 113.242C261.157 113.241 261.157 113.241 261.157 113.241C261.157 113.241 261.157 113.241 260.797 113.072ZM214.271 114.21L260.554 113.509L261.041 112.635L214.758 113.336L214.271 114.21ZM164.033 150.916C181.523 135.547 201.869 122.072 214.713 114.066L214.317 113.48C201.434 121.509 180.978 135.054 163.368 150.529L164.033 150.916ZM227.159 149.328L163.944 150.286L163.457 151.159L226.672 150.202L227.159 149.328ZM301.919 148.629L322.255 112.142L321.255 112.157L300.919 148.645L301.919 148.629ZM236.832 150.048L301.176 149.074L301.663 148.2L237.319 149.175L236.832 150.048ZM272.327 112.691C265.316 118.702 256.392 127.915 249.24 135.601C245.659 139.45 242.515 142.924 240.265 145.436C239.141 146.692 238.24 147.708 237.62 148.41C237.309 148.761 237.07 149.033 236.907 149.218C236.826 149.311 236.764 149.381 236.723 149.429C236.702 149.452 236.686 149.47 236.675 149.482C236.67 149.488 236.666 149.493 236.664 149.496C236.662 149.498 236.661 149.499 236.66 149.5C236.66 149.5 236.66 149.5 236.66 149.5C236.66 149.501 236.659 149.501 237.075 149.611C237.491 149.722 237.491 149.722 237.491 149.722C237.491 149.721 237.492 149.721 237.492 149.721C237.493 149.72 237.493 149.719 237.495 149.717C237.497 149.714 237.501 149.71 237.506 149.704C237.517 149.692 237.532 149.675 237.553 149.651C237.594 149.604 237.655 149.534 237.736 149.442C237.897 149.258 238.136 148.987 238.445 148.637C239.063 147.938 239.962 146.925 241.084 145.672C243.328 143.166 246.465 139.7 250.036 135.861C257.188 128.175 266.052 119.029 272.974 113.094L272.327 112.691ZM321.998 111.712L272.894 112.456L272.407 113.329L321.512 112.586L321.998 111.712ZM379.647 111.706C379.548 111.707 379.529 111.67 379.551 111.692C379.568 111.709 379.596 111.748 379.626 111.824C379.687 111.974 379.736 112.213 379.769 112.546C379.835 113.208 379.831 114.181 379.769 115.403C379.644 117.843 379.287 121.232 378.808 125.005C377.851 132.551 376.408 141.613 375.371 147.656L376.474 147.362C377.512 141.314 378.957 132.242 379.916 124.683C380.395 120.905 380.754 117.499 380.88 115.036C380.943 113.806 380.948 112.8 380.878 112.099C380.844 111.75 380.789 111.46 380.706 111.253C380.665 111.15 380.611 111.054 380.537 110.981C380.467 110.912 380.345 110.829 380.134 110.832L379.647 111.706ZM331.107 112.441L379.647 111.706L380.134 110.832L331.594 111.567L331.107 112.441ZM311.514 148.484L331.85 111.996L330.85 112.011L310.514 148.499L311.514 148.484ZM376.166 147.072L311.258 148.055L310.771 148.928L375.679 147.946L376.166 147.072ZM438.081 110.718C441.618 115.124 444.044 122.017 445.635 128.865C447.224 135.708 447.974 142.478 448.178 146.617L449.289 146.195C449.084 142.029 448.331 135.23 446.734 128.358C445.139 121.492 442.697 114.524 439.1 110.043L438.081 110.718ZM392.629 111.509L438.347 110.817L438.834 109.943L393.116 110.636L392.629 111.509ZM387.147 147.339C387.387 146.908 387.631 146.184 387.881 145.274C388.135 144.348 388.407 143.18 388.689 141.834C389.254 139.142 389.865 135.72 390.463 132.052C391.658 124.716 392.803 116.382 393.426 110.907L392.318 111.237C391.696 116.701 390.552 125.025 389.359 132.352C388.762 136.015 388.153 139.426 387.591 142.103C387.31 143.442 387.041 144.594 386.793 145.5C386.54 146.423 386.319 147.046 386.147 147.354L387.147 147.339ZM448.977 145.97L386.89 146.91L386.404 147.783L448.49 146.843L448.977 145.97ZM431.361 101.858C427.873 96.9819 419.798 90.8007 410.69 85.7733C401.593 80.7516 391.384 76.8349 383.595 76.5563L383.052 77.4292C390.626 77.7002 400.717 81.5433 409.81 86.5624C418.892 91.5757 426.896 97.7161 430.328 102.514L431.361 101.858ZM391.656 103.212L430.601 102.623L431.088 101.749L392.143 102.339L391.656 103.212ZM382.797 77.3069C385.055 81.0846 387.32 86.5348 388.958 91.5334C389.776 94.0317 390.436 96.4126 390.86 98.4105C391.286 100.421 391.465 102.009 391.346 102.936L392.453 102.615C392.586 101.582 392.387 99.9168 391.962 97.9117C391.534 95.894 390.869 93.4974 390.047 90.9888C388.404 85.9736 386.128 80.4919 383.849 76.6786L382.797 77.3069ZM352.732 73.4819C362.911 75.0674 369.317 80.4929 373.181 86.5394C377.045 92.5859 378.349 99.2233 378.362 103.171L379.474 102.773C379.46 98.7355 378.134 92.0165 374.226 85.9007C370.317 79.7849 363.807 74.2423 353.388 72.6195L352.732 73.4819ZM336.522 103.614L353.56 73.0432L352.56 73.0583L335.522 103.629L336.522 103.614ZM379.161 102.535L336.265 103.185L335.778 104.058L378.674 103.409L379.161 102.535ZM326.927 103.759L343.415 74.1746L342.415 74.1897L325.927 103.774L326.927 103.759ZM283.287 104.853L326.183 104.204L326.67 103.33L283.774 103.98L283.287 104.853ZM343.211 73.7471C339.762 73.4584 332.718 74.8419 322.602 79.3846C312.466 83.9366 299.196 91.6815 283.241 104.187L283.821 104.645C299.668 92.2239 312.792 84.5757 322.749 80.1044C332.726 75.6238 339.474 74.3539 342.619 74.6172L343.211 73.7471ZM272.057 104.746C275.186 101.588 281.65 96.6881 288.833 91.7095C295.996 86.7444 303.8 81.7529 309.552 78.4234L309.215 77.8013C303.402 81.1657 295.55 86.1897 288.35 91.1796C281.17 96.1561 274.564 101.151 271.299 104.446L272.057 104.746ZM232.489 105.622L271.434 105.033L271.921 104.159L232.976 104.749L232.489 105.622ZM309.563 77.6799C296.061 79.2625 280.508 84.0462 266.506 89.4297C252.5 94.8145 240.002 100.816 232.587 104.861L232.878 105.51C240.208 101.51 252.624 95.5461 266.551 90.1918C280.481 84.8362 295.882 80.1063 309.204 78.5447L309.563 77.6799Z" fill="#95782A"/>
<path d="M142.742 157.673L139.696 150.747L151.952 149.724L156.892 157.839L142.742 157.673Z" fill="#95782A"/>
<path fill-rule="evenodd" clip-rule="evenodd" d="M457.433 139.809C458.649 109.486 437.391 51.617 351.448 54.8527C244.019 58.8972 150.859 138.648 140.428 150.412L456.963 145.619L457.433 139.809ZM225.166 141.393C237.485 125.248 258.678 105.1 258.678 105.1L212.9 105.793C200.177 113.723 179.998 127.085 162.64 142.339L225.166 141.393ZM318.97 104.187L298.857 140.277L235.214 141.24C235.214 141.24 256.621 116.737 270.401 104.922L318.97 104.187ZM372.547 139.161C374.6 127.201 378.258 103.289 376.472 103.316L328.461 104.043L308.347 140.133L372.547 139.161ZM444.563 138.071C444.16 129.856 441.588 111.228 434.531 102.437L389.312 103.122C388.08 113.941 384.785 136.074 383.154 139L444.563 138.071ZM379.867 69.4141C395.063 69.9577 420.024 84.7643 426.87 94.3323L388.35 94.9156C388.849 91.0394 384.355 76.9223 379.867 69.4141ZM375.51 95.11C375.483 87.2119 370.307 68.6884 349.934 65.5151L333.082 95.7524L375.51 95.11ZM339.9 66.6342L323.591 95.8961L281.163 96.5386C312.618 71.8831 333.377 66.0882 339.9 66.6342ZM306.734 70.5215C295.294 77.1425 275.764 90.3337 269.44 96.7161L230.919 97.2993C245.503 89.3412 280.202 73.6313 306.734 70.5215Z" fill="#AE8C2F"/>
<path d="M351.448 54.8527L351.218 55.2891L351.448 54.8527ZM457.433 139.809L457.988 139.634L457.989 139.628L457.989 139.622L457.433 139.809ZM140.428 150.412L140.016 150.297L139.518 150.859L140.184 150.849L140.428 150.412ZM456.963 145.619L456.719 146.056L457.469 146.045L457.518 145.444L456.963 145.619ZM258.678 105.1L259.038 105.269L259.687 104.652L258.921 104.663L258.678 105.1ZM225.166 141.393L224.922 141.829L225.339 141.823L225.614 141.463L225.166 141.393ZM212.9 105.793L213.144 105.356L212.927 105.36L212.702 105.5L212.9 105.793ZM162.64 142.339L162.308 142.146L161.576 142.788L162.397 142.776L162.64 142.339ZM298.857 140.277L298.613 140.714L299.113 140.706L299.356 140.269L298.857 140.277ZM318.97 104.187L319.47 104.179L319.714 103.743L319.214 103.75L318.97 104.187ZM235.214 141.24L234.799 141.13L234.312 141.687L234.971 141.677L235.214 141.24ZM270.401 104.922L270.645 104.486L270.347 104.49L270.078 104.721L270.401 104.922ZM376.472 103.316L376.715 102.88L376.472 103.316ZM372.547 139.161L372.304 139.598L373.001 139.587L373.099 139.014L372.547 139.161ZM328.461 104.043L328.704 103.607L328.204 103.614L327.961 104.051L328.461 104.043ZM308.347 140.133L307.847 140.141L307.604 140.577L308.104 140.57L308.347 140.133ZM434.531 102.437L435.04 102.1L434.958 101.998L434.774 102.001L434.531 102.437ZM444.563 138.071L444.32 138.507L445.15 138.495L445.119 137.859L444.563 138.071ZM389.312 103.122L389.555 102.685L388.825 102.696L388.757 103.287L389.312 103.122ZM383.154 139L382.654 139.008L382.411 139.445L382.911 139.437L383.154 139ZM426.87 94.3323L426.627 94.7691L427.92 94.7495L427.386 94.0041L426.87 94.3323ZM379.867 69.4141L380.138 68.9776L378.865 68.9321L379.341 69.7283L379.867 69.4141ZM388.35 94.9156L387.796 95.076L387.76 95.3576L388.106 95.3523L388.35 94.9156ZM349.934 65.5151L350.262 65.0839L349.725 65.0003L349.434 65.5227L349.934 65.5151ZM375.51 95.11L375.266 95.5468L376.068 95.5346L376.066 94.9111L375.51 95.11ZM333.082 95.7524L332.582 95.76L332.338 96.1968L332.838 96.1892L333.082 95.7524ZM323.591 95.8961L323.348 96.3329L323.848 96.3253L324.091 95.8886L323.591 95.8961ZM339.9 66.6342L340.4 66.6266L340.618 66.2346L340.195 66.1992L339.9 66.6342ZM281.163 96.5386L280.873 96.3095L280.006 96.9892L280.92 96.9753L281.163 96.5386ZM269.44 96.7161L269.196 97.1528L269.539 97.1476L269.819 96.8658L269.44 96.7161ZM306.734 70.5215L306.903 70.8325L308.511 69.9018L306.914 70.089L306.734 70.5215ZM230.919 97.2993L230.774 96.9753L229.343 97.7563L230.676 97.7361L230.919 97.2993ZM351.218 55.2891C394.044 53.6767 420.76 67.287 436.623 85.092C452.489 102.902 457.483 124.895 456.877 139.996L457.989 139.622C458.599 124.401 453.572 102.298 437.628 84.4008C421.68 66.4995 394.795 52.793 351.678 54.4163L351.218 55.2891ZM140.839 150.527C143.392 147.648 151.116 140.501 162.978 131.32C174.826 122.15 190.766 110.979 209.73 100.05C247.656 78.1918 297.657 57.3056 351.218 55.2891L351.678 54.4163C297.81 56.4443 247.517 77.4558 209.397 99.4256C190.339 110.41 174.319 121.635 162.408 130.854C150.512 140.061 142.678 147.294 140.016 150.297L140.839 150.527ZM457.206 145.183L140.671 149.975L140.184 150.849L456.719 146.056L457.206 145.183ZM456.878 139.984L456.408 145.794L457.518 145.444L457.988 139.634L456.878 139.984ZM258.678 105.1C258.318 104.931 258.318 104.931 258.318 104.932C258.317 104.932 258.317 104.932 258.317 104.932C258.316 104.933 258.315 104.934 258.314 104.935C258.311 104.938 258.307 104.942 258.302 104.947C258.292 104.956 258.276 104.971 258.256 104.991C258.215 105.03 258.154 105.088 258.075 105.164C257.915 105.316 257.681 105.541 257.378 105.833C256.773 106.418 255.895 107.269 254.803 108.342C252.62 110.487 249.58 113.516 246.155 117.049C239.31 124.112 230.905 133.213 224.717 141.322L225.614 141.463C231.746 133.428 240.097 124.382 246.928 117.335C250.341 113.813 253.369 110.796 255.545 108.659C256.632 107.59 257.506 106.742 258.108 106.161C258.409 105.871 258.642 105.647 258.799 105.497C258.878 105.421 258.938 105.364 258.978 105.326C258.998 105.307 259.013 105.292 259.023 105.283C259.028 105.278 259.032 105.274 259.034 105.272C259.035 105.271 259.036 105.27 259.037 105.269C259.037 105.269 259.037 105.269 259.038 105.269C259.038 105.269 259.038 105.269 258.678 105.1ZM212.657 106.23L258.434 105.537L258.921 104.663L213.144 105.356L212.657 106.23ZM162.973 142.533C180.271 127.332 200.395 114.004 213.098 106.086L212.702 105.5C199.96 113.442 179.726 126.839 162.308 142.146L162.973 142.533ZM225.409 140.956L162.884 141.903L162.397 142.776L224.922 141.829L225.409 140.956ZM299.356 140.269L319.47 104.179L318.47 104.195L298.357 140.284L299.356 140.269ZM234.971 141.677L298.613 140.714L299.1 139.84L235.458 140.804L234.971 141.677ZM270.078 104.721C263.143 110.666 254.316 119.779 247.242 127.382C243.7 131.188 240.59 134.624 238.365 137.109C237.253 138.352 236.362 139.356 235.748 140.051C235.442 140.398 235.204 140.667 235.044 140.85C234.963 140.942 234.902 141.012 234.861 141.058C234.841 141.082 234.825 141.1 234.815 141.112C234.809 141.118 234.805 141.122 234.803 141.125C234.801 141.127 234.8 141.128 234.8 141.129C234.799 141.129 234.799 141.129 234.799 141.13C234.799 141.13 234.799 141.13 235.214 141.24C235.63 141.351 235.63 141.351 235.63 141.351C235.631 141.35 235.631 141.35 235.631 141.35C235.632 141.349 235.633 141.348 235.634 141.347C235.636 141.344 235.64 141.339 235.645 141.333C235.656 141.322 235.671 141.304 235.691 141.281C235.732 141.235 235.793 141.165 235.873 141.074C236.032 140.893 236.268 140.624 236.574 140.278C237.185 139.586 238.074 138.585 239.184 137.345C241.403 134.866 244.506 131.438 248.038 127.642C255.112 120.039 263.879 110.993 270.725 105.124L270.078 104.721ZM319.214 103.75L270.645 104.486L270.158 105.359L318.727 104.624L319.214 103.75ZM376.228 103.753C376.129 103.755 376.108 103.717 376.13 103.738C376.147 103.755 376.175 103.794 376.204 103.868C376.264 104.016 376.313 104.252 376.345 104.582C376.41 105.237 376.407 106.199 376.345 107.408C376.222 109.821 375.869 113.172 375.395 116.905C374.448 124.368 373.022 133.331 371.996 139.308L373.099 139.014C374.126 133.032 375.554 124.059 376.503 116.583C376.977 112.846 377.332 109.476 377.456 107.04C377.518 105.824 377.524 104.829 377.455 104.135C377.421 103.789 377.367 103.503 377.284 103.298C377.243 103.196 377.19 103.1 377.116 103.027C377.047 102.959 376.926 102.876 376.715 102.88L376.228 103.753ZM328.217 104.48L376.228 103.753L376.715 102.88L328.704 103.607L328.217 104.48ZM308.847 140.125L328.961 104.036L327.961 104.051L307.847 140.141L308.847 140.125ZM372.791 138.724L308.59 139.696L308.104 140.57L372.304 139.598L372.791 138.724ZM434.022 102.775C437.52 107.133 439.919 113.95 441.492 120.724C443.065 127.492 443.807 134.188 444.008 138.282L445.119 137.859C444.917 133.738 444.171 127.014 442.592 120.216C441.015 113.425 438.599 106.533 435.04 102.1L434.022 102.775ZM389.068 103.559L434.288 102.874L434.774 102.001L389.555 102.685L389.068 103.559ZM383.654 138.993C383.892 138.566 384.134 137.85 384.38 136.95C384.632 136.033 384.901 134.878 385.18 133.547C385.739 130.884 386.343 127.499 386.935 123.871C388.117 116.615 389.249 108.372 389.866 102.957L388.757 103.287C388.142 108.691 387.011 116.924 385.83 124.171C385.24 127.794 384.638 131.168 384.082 133.816C383.804 135.14 383.538 136.279 383.293 137.175C383.042 138.088 382.824 138.704 382.654 139.008L383.654 138.993ZM444.807 137.634L383.398 138.564L382.911 139.437L444.32 138.507L444.807 137.634ZM427.386 94.0041C423.936 89.1812 415.949 83.0672 406.94 78.0945C397.942 73.1276 387.844 69.2533 380.138 68.9776L379.595 69.8506C387.086 70.1185 397.066 73.9193 406.06 78.8836C415.042 83.8422 422.959 89.9154 426.354 94.6606L427.386 94.0041ZM388.106 95.3523L426.627 94.7691L427.113 93.8956L388.593 94.4788L388.106 95.3523ZM379.341 69.7283C381.574 73.4645 383.814 78.8551 385.434 83.7991C386.243 86.2701 386.896 88.625 387.315 90.6009C387.737 92.5895 387.914 94.1603 387.796 95.076L388.903 94.7552C389.035 93.7328 388.838 92.0853 388.417 90.1021C387.994 88.1063 387.336 85.7358 386.523 83.2545C384.898 78.2939 382.647 72.8719 380.392 69.0999L379.341 69.7283ZM349.606 65.9463C359.673 67.5143 366.008 72.88 369.829 78.8601C373.651 84.8402 374.94 91.4048 374.954 95.3089L376.066 94.9111C376.052 90.9171 374.74 84.2709 370.874 78.2214C367.008 72.1719 360.568 66.6892 350.262 65.0839L349.606 65.9463ZM333.582 95.7449L350.434 65.5075L349.434 65.5227L332.582 95.76L333.582 95.7449ZM375.753 94.6733L333.325 95.3157L332.838 96.1892L375.266 95.5468L375.753 94.6733ZM324.091 95.8886L340.4 66.6266L339.4 66.6418L323.091 95.9037L324.091 95.8886ZM280.92 96.9753L323.348 96.3329L323.835 95.4594L281.406 96.1018L280.92 96.9753ZM340.195 66.1992C336.782 65.9135 329.814 67.2825 319.808 71.7759C309.781 76.2787 296.654 83.9396 280.873 96.3095L281.453 96.7676C297.127 84.4821 310.107 76.9178 319.954 72.4957C329.822 68.0644 336.494 66.8089 339.604 67.0692L340.195 66.1992ZM269.819 96.8658C272.913 93.7439 279.305 88.8975 286.41 83.9732C293.495 79.0624 301.213 74.1255 306.903 70.8325L306.566 70.2104C300.816 73.5384 293.049 78.5077 285.928 83.4433C278.826 88.3655 272.291 93.3059 269.06 96.5664L269.819 96.8658ZM230.676 97.7361L269.196 97.1528L269.683 96.2793L231.163 96.8626L230.676 97.7361ZM306.914 70.089C293.558 71.6545 278.174 76.3863 264.324 81.7112C250.47 87.0374 238.108 92.9733 230.774 96.9753L231.065 97.6234C238.315 93.6673 250.594 87.7691 264.369 82.4733C278.147 77.1763 293.378 72.4983 306.555 70.9539L306.914 70.089Z" fill="#AE8C2F"/>
<path fill-rule="evenodd" clip-rule="evenodd" d="M94.8575 265.371C94.1619 296.531 116.827 356.025 204.223 352.805C313.468 348.779 406.842 266.938 417.246 254.861L95.2324 259.401L94.8575 265.371ZM107.984 267.175C108.542 275.617 111.491 294.762 118.829 303.805L164.831 303.156C165.892 292.04 168.849 269.299 170.456 266.294L107.984 267.175ZM181.247 266.142C179.372 278.429 176.076 302.998 177.894 302.972L226.735 302.283L246.558 265.221L181.247 266.142ZM236.39 302.147L256.213 265.085L320.956 264.172C320.956 264.172 299.612 289.326 285.799 301.451L236.39 302.147ZM331.179 264.028C318.931 280.604 297.726 301.283 297.726 301.283L344.296 300.626C357.101 292.492 377.396 278.785 394.787 263.131L331.179 264.028ZM175.044 337.807C159.571 337.23 133.907 321.984 126.77 312.143L165.957 311.591C165.518 315.573 170.344 330.086 175.044 337.807ZM179.019 311.406C179.187 319.523 184.785 338.564 205.573 341.85L222.181 310.798L179.019 311.406ZM215.764 340.712L231.836 310.662L274.998 310.053C243.431 335.352 222.411 341.281 215.764 340.712ZM249.443 336.758C260.965 329.968 280.603 316.436 286.925 309.885L326.112 309.333C311.414 317.493 276.386 333.595 249.443 336.758Z" fill="#95782A" stroke="#95782A"/>
<path fill-rule="evenodd" clip-rule="evenodd" d="M89.3947 260.286C88.699 291.445 111.364 350.94 198.76 347.719C308.006 343.694 401.379 261.852 411.783 249.776L89.7695 254.316L89.3947 260.286ZM102.521 262.089C103.079 270.531 106.028 289.677 113.367 298.719L159.368 298.071C160.429 286.955 163.386 264.213 164.993 261.208L102.521 262.089ZM175.784 261.056C173.909 273.344 170.613 297.912 172.431 297.887L221.272 297.198L241.095 260.135L175.784 261.056ZM230.927 297.062L250.75 259.999L315.493 259.086C315.493 259.086 294.149 284.241 280.337 296.365L230.927 297.062ZM325.716 258.942C313.469 275.518 292.263 296.197 292.263 296.197L338.833 295.54C351.638 287.407 371.933 273.7 389.324 258.046L325.716 258.942ZM169.581 332.722C154.108 332.144 128.444 316.898 121.307 307.058L160.494 306.505C160.055 310.488 164.881 325 169.581 332.722ZM173.556 306.321C173.724 314.437 179.322 333.479 200.11 336.765L216.718 305.712L173.556 306.321ZM210.301 335.627L226.373 305.576L269.536 304.968C237.968 330.266 216.948 336.196 210.301 335.627ZM243.98 331.673C255.502 324.883 275.14 311.351 281.462 304.8L320.649 304.247C305.951 312.407 270.923 328.509 243.98 331.673Z" fill="#AE8C2F" stroke="#AE8C2F"/>
<path d="M418.175 254.349L412.591 249.271L401.192 260.856L418.175 254.349Z" fill="#95782A"/>
<path d="M231.869 220.131L229.106 215.593L224.316 219.546L229.52 224.153L231.869 220.131Z" fill="#95782A"/>
<path d="M150.193 204.75C152.569 200.027 155.795 195.554 159.871 191.33C164.044 187.048 168.683 183.311 173.787 180.121C178.988 176.872 184.445 174.316 190.159 172.455C195.94 170.594 201.641 169.695 207.262 169.756C213.151 169.82 218.234 171.017 222.511 173.348C226.789 175.679 229.782 178.957 231.491 183.184L222.024 188.761C220.897 185.383 218.756 182.684 215.6 180.666C212.473 178.589 208.535 177.524 203.783 177.472C199.634 177.427 195.359 178.102 190.956 179.497C186.651 180.832 182.51 182.711 178.533 185.132C174.556 187.553 170.922 190.429 167.632 193.759C164.341 197.09 161.719 200.698 159.763 204.583C157.929 208.23 156.939 211.736 156.793 215.1C156.715 218.466 157.368 221.448 158.751 224.048C160.164 226.588 162.268 228.625 165.063 230.158C167.925 231.692 171.33 232.48 175.278 232.523C178.222 232.555 181.389 232.079 184.778 231.094C188.197 230.049 191.529 228.643 194.773 226.875C198.018 225.107 200.993 223.005 203.698 220.57C206.47 218.136 208.63 215.514 210.178 212.706L190.604 212.493L194.484 204.781L224.52 204.907L223.324 207.439C220.768 212.521 217.515 217.114 213.566 221.219C209.646 225.263 205.326 228.703 200.603 231.537C195.947 234.371 191.053 236.542 185.921 238.049C180.79 239.556 175.748 240.282 170.796 240.229C165.71 240.173 161.309 239.224 157.594 237.38C153.909 235.476 151.091 232.921 149.138 229.714C147.252 226.508 146.34 222.771 146.401 218.504C146.492 214.177 147.756 209.592 150.193 204.75Z" fill="#95782A"/>
<path d="M221.498 221.756L231.936 220.066C230.944 222.039 230.458 223.807 230.479 225.37C230.5 226.933 230.894 228.29 231.661 229.44C232.428 230.591 233.531 231.474 234.97 232.091C236.476 232.709 238.199 233.028 240.14 233.049C242.08 233.07 244.053 232.761 246.056 232.122C248.157 231.423 250.096 230.512 251.872 229.39C253.745 228.208 255.455 226.814 257.004 225.208C258.552 223.602 259.792 221.872 260.725 220.019C262.198 217.089 262.413 214.657 261.368 212.722C260.39 210.788 257.976 208.899 254.127 207.053L249.9 205.024C248.217 204.224 246.612 203.335 245.086 202.357C243.656 201.319 242.503 200.134 241.625 198.802C240.778 197.411 240.337 195.813 240.303 194.009C240.268 192.206 240.853 190.108 242.056 187.717C243.379 185.086 245.151 182.701 247.372 180.562C249.659 178.422 252.182 176.617 254.942 175.144C257.798 173.612 260.776 172.442 263.873 171.634C267.038 170.827 270.126 170.44 273.138 170.473C277.354 170.519 280.683 171.457 283.127 173.287C285.601 175.057 287.047 177.597 287.468 180.908L277.909 184.861C277.556 182.754 276.681 181.151 275.281 180.054C273.949 178.957 271.844 178.393 268.967 178.362C267.427 178.345 265.768 178.568 263.988 179.029C262.305 179.432 260.651 180.045 259.026 180.869C257.4 181.693 255.918 182.698 254.581 183.886C253.243 185.074 252.213 186.385 251.491 187.82C250.408 189.972 250.346 191.834 251.304 193.408C252.329 194.982 254.247 196.385 257.058 197.618L261.631 199.561C264.576 200.795 266.877 202.173 268.535 203.694C270.222 205.155 271.347 206.73 271.91 208.419C272.54 210.109 272.66 211.944 272.27 213.923C271.976 215.843 271.273 217.91 270.16 220.122C268.536 223.35 266.408 226.242 263.776 228.798C261.211 231.355 258.325 233.547 255.117 235.376C251.977 237.205 248.678 238.612 245.223 239.596C241.864 240.521 238.578 240.966 235.366 240.931C232.422 240.899 229.837 240.42 227.611 239.495C225.453 238.569 223.742 237.289 222.48 235.652C221.248 233.955 220.515 231.934 220.283 229.587C220.118 227.241 220.523 224.63 221.498 221.756Z" fill="#95782A"/>
<path d="M345.301 172.701L341.421 180.413L310.204 180.073L300.684 198.995L330.921 199.223L327.118 207.036L296.804 206.706L283.945 232.264L315.163 232.603L311.283 240.315L270.629 239.873L304.648 172.259L345.301 172.701Z" fill="#95782A"/>
<path d="M335.588 206.948C338.055 202.046 341.408 197.454 345.648 193.172C349.918 188.831 354.672 185.066 359.91 181.877C365.148 178.688 370.676 176.193 376.493 174.393C382.378 172.594 388.13 171.725 393.752 171.786C397.164 171.823 400.281 172.248 403.103 173.06C405.954 173.812 408.427 174.981 410.522 176.567L405.605 186.341C403.877 184.159 401.559 182.48 398.651 181.307C395.809 180.134 392.582 179.528 388.968 179.488C384.886 179.444 380.644 180.119 376.241 181.514C371.906 182.909 367.735 184.847 363.728 187.328C359.818 189.75 356.217 192.626 352.927 195.957C349.703 199.288 347.114 202.896 345.159 206.782C343.264 210.548 342.244 214.114 342.099 217.478C341.984 220.783 342.633 223.706 344.046 226.246C345.46 228.786 347.612 230.793 350.504 232.267C353.396 233.741 356.916 234.501 361.065 234.546C364.879 234.587 368.76 234.028 372.708 232.869C376.722 231.711 380.74 230.011 384.76 227.771L379.752 237.725C375.959 239.246 372.16 240.377 368.356 241.117C364.522 241.917 360.899 242.298 357.486 242.261C352.266 242.204 347.717 241.283 343.838 239.498C339.959 237.712 336.995 235.245 334.945 232.097C332.896 228.949 331.835 225.241 331.762 220.972C331.756 216.705 333.031 212.03 335.588 206.948Z" fill="#95782A"/>
<path d="M190.604 212.493L187.841 207.955L207.996 207.71L204.248 212.584L190.604 212.493Z" fill="#95782A"/>
<path d="M147.429 200.212C149.806 195.489 153.032 191.016 157.108 186.792C161.281 182.51 165.92 178.773 171.024 175.583C176.225 172.333 181.682 169.778 187.396 167.917C193.177 166.056 198.878 165.156 204.499 165.218C210.388 165.282 215.471 166.479 219.748 168.81C224.026 171.141 227.019 174.419 228.728 178.646L219.26 184.223C218.134 180.844 215.993 178.146 212.837 176.128C209.71 174.05 205.771 172.986 201.02 172.934C196.871 172.889 192.596 173.564 188.193 174.958C183.888 176.294 179.747 178.172 175.77 180.594C171.793 183.015 168.159 185.891 164.869 189.221C161.578 192.551 158.955 196.159 157 200.045C155.166 203.692 154.175 207.198 154.03 210.562C153.952 213.928 154.604 216.91 155.988 219.51C157.401 222.05 159.505 224.086 162.3 225.62C165.162 227.154 168.567 227.942 172.515 227.985C175.459 228.017 178.626 227.541 182.015 226.556C185.434 225.511 188.765 224.104 192.01 222.336C195.254 220.568 198.229 218.467 200.935 216.032C203.707 213.598 205.867 210.976 207.415 208.168L187.841 207.955L191.721 200.243L221.734 200.57L220.561 202.901C218.004 207.983 214.752 212.576 210.802 216.68C206.883 220.725 202.562 224.164 197.84 226.998C193.184 229.833 188.29 232.004 183.158 233.511C178.026 235.018 172.984 235.744 168.032 235.69C162.947 235.635 158.546 234.685 154.831 232.842C151.146 230.938 148.327 228.383 146.375 225.176C144.489 221.969 143.577 218.233 143.638 213.966C143.729 209.639 144.993 205.054 147.429 200.212Z" fill="#AE8C2F"/>
<path d="M218.735 217.217L229.173 215.528C228.181 217.501 227.695 219.269 227.716 220.832C227.737 222.395 228.131 223.752 228.898 224.902C229.664 226.052 230.767 226.936 232.207 227.553C233.713 228.17 235.436 228.49 237.377 228.511C239.317 228.532 241.289 228.223 243.293 227.583C245.394 226.885 247.333 225.974 249.109 224.851C250.982 223.67 252.692 222.276 254.24 220.67C255.789 219.063 257.029 217.334 257.961 215.481C259.435 212.551 259.65 210.119 258.605 208.184C257.627 206.25 255.213 204.36 251.364 202.515L247.137 200.485C245.454 199.686 243.849 198.797 242.322 197.818C240.893 196.781 239.74 195.596 238.862 194.264C238.015 192.872 237.574 191.275 237.54 189.471C237.505 187.667 238.089 185.57 239.293 183.179C240.616 180.548 242.388 178.163 244.608 176.023C246.896 173.884 249.419 172.078 252.179 170.606C255.035 169.074 258.012 167.904 261.11 167.096C264.275 166.289 267.363 165.902 270.374 165.935C274.59 165.981 277.92 166.919 280.364 168.748C282.837 170.519 284.284 173.059 284.704 176.37L275.146 180.323C274.793 178.215 273.917 176.613 272.518 175.516C271.186 174.419 269.081 173.855 266.203 173.824C264.664 173.807 263.005 174.03 261.225 174.491C259.542 174.893 257.888 175.507 256.262 176.33C254.637 177.154 253.155 178.16 251.817 179.348C250.48 180.535 249.45 181.847 248.728 183.281C247.645 185.433 247.583 187.296 248.541 188.869C249.565 190.444 251.483 191.847 254.295 193.08L258.868 195.023C261.813 196.257 264.114 197.635 265.771 199.156C267.459 200.617 268.584 202.192 269.147 203.881C269.777 205.571 269.897 207.405 269.506 209.385C269.213 211.305 268.51 213.371 267.397 215.583C265.773 218.812 263.645 221.704 261.013 224.26C258.448 226.817 255.562 229.009 252.354 230.838C249.214 232.667 245.915 234.074 242.459 235.058C239.101 235.983 235.815 236.428 232.603 236.393C229.659 236.361 227.074 235.882 224.848 234.956C222.69 234.031 220.979 232.75 219.717 231.114C218.484 229.417 217.752 227.395 217.52 225.049C217.355 222.703 217.76 220.092 218.735 217.217Z" fill="#AE8C2F"/>
<path d="M342.538 168.163L338.658 175.875L307.44 175.535L297.921 194.456L328.235 194.786L324.355 202.498L294.04 202.168L281.182 227.725L312.4 228.065L308.519 235.777L267.866 235.334L301.885 167.72L342.538 168.163Z" fill="#AE8C2F"/>
<path d="M332.825 202.41C335.291 197.508 338.645 192.916 342.885 188.634C347.155 184.293 351.909 180.527 357.147 177.339C362.385 174.15 367.913 171.655 373.73 169.855C379.614 168.056 385.367 167.187 390.988 167.248C394.401 167.285 397.518 167.71 400.339 168.522C403.191 169.274 405.664 170.443 407.759 172.029L402.842 181.803C401.114 179.62 398.796 177.942 395.887 176.768C393.046 175.595 389.819 174.989 386.205 174.95C382.123 174.905 377.881 175.581 373.478 176.975C369.143 178.371 364.971 180.309 360.965 182.79C357.055 185.212 353.454 188.088 350.164 191.418C346.94 194.749 344.351 198.358 342.396 202.244C340.501 206.01 339.481 209.576 339.336 212.94C339.22 216.245 339.87 219.167 341.283 221.707C342.696 224.247 344.849 226.254 347.741 227.729C350.633 229.203 354.153 229.962 358.302 230.007C362.116 230.049 365.997 229.49 369.945 228.331C373.959 227.172 377.977 225.473 381.997 223.233L376.989 233.186C373.196 234.708 369.397 235.839 365.593 236.579C361.759 237.379 358.136 237.76 354.723 237.723C349.503 237.666 344.954 236.745 341.075 234.959C337.196 233.174 334.232 230.707 332.182 227.559C330.133 224.411 329.071 220.703 328.999 216.434C328.993 212.166 330.268 207.492 332.825 202.41Z" fill="#AE8C2F"/>
<path d="M221.734 200.57L224.52 204.907L217.29 208.791L221.734 200.57Z" fill="#95782A"/>
<path d="M219.26 184.223L221.942 188.852L231.392 183.099L228.629 178.56L219.26 184.223Z" fill="#95782A"/>
<path d="M275.146 180.323L277.998 184.79L287.468 180.908L284.704 176.37L275.146 180.323Z" fill="#95782A"/>
<path d="M308.519 235.777L311.264 240.22L315.163 232.603L312.4 228.065L308.519 235.777Z" fill="#95782A"/>
<path d="M324.355 202.498L327.118 207.036L330.921 199.223L328.235 194.786L324.355 202.498Z" fill="#95782A"/>
<path d="M267.866 235.334L270.629 239.873L278.493 238.4L277.001 235.161L267.866 235.334Z" fill="#95782A"/>
<path d="M338.658 175.875L341.421 180.413L345.301 172.701L342.538 168.163L338.658 175.875Z" fill="#95782A"/>
<path d="M376.989 233.186L379.752 237.725L384.76 227.771L381.997 223.233L376.989 233.186Z" fill="#95782A"/>
<path d="M402.866 181.859L405.629 186.397L410.522 176.567L407.759 172.029L402.866 181.859Z" fill="#95782A"/>
<path d="M81.0648 186.834L77.3345 186.308L83.4406 178.072L91.0847 179.15C91.0328 180.885 90.7601 182.388 90.2664 183.662C89.7703 184.926 88.9059 186.389 87.673 188.052C86.1552 190.099 84.5537 191.719 82.8685 192.911C81.1892 194.095 79.3673 194.942 77.4031 195.454C75.4447 195.957 73.5359 196.078 71.6769 195.815C69.72 195.539 68.3079 194.911 67.4404 193.931C66.5647 192.95 66.3072 191.657 66.6678 190.053C66.9554 188.803 67.8319 187.189 69.2974 185.213C70.7105 183.307 71.9454 181.908 73.002 181.018C74.0644 180.119 75.2044 179.414 76.4221 178.901C77.6375 178.379 78.9404 178.043 80.3308 177.893L77.4729 183.169C76.6391 183.285 75.8538 183.573 75.1171 184.032C74.3861 184.484 73.7299 185.102 73.1484 185.886C72.2819 187.055 72.0138 188.048 72.3443 188.866C72.6723 189.674 73.7496 190.208 75.576 190.465C77.5166 190.739 79.1615 190.586 80.5107 190.005C81.8658 189.416 83.0085 188.494 83.939 187.24C84.3809 186.643 84.7129 186.062 84.9347 185.496C85.1566 184.929 85.3103 184.266 85.3957 183.507L83.7079 183.269L81.0648 186.834Z" fill="white"/>
<path d="M87.8346 162.907L92.8236 157.829L107.84 163.752L102.851 168.829L87.8346 162.907Z" fill="white"/>
<path d="M125.579 143.603L119.368 149.114L120.69 151.138L115.117 156.082L108.568 142.532L114.514 137.256L134.325 139.037L128.621 144.099L125.579 143.603ZM121.585 142.96L114.897 141.935L117.698 146.41L121.585 142.96Z" fill="white"/>
<path d="M150.927 118.437L157.016 115.307C157.478 116.307 157.605 117.337 157.397 118.398C157.188 119.458 156.662 120.536 155.819 121.63C154.984 122.718 153.705 123.911 151.98 125.209C149.887 126.784 148.008 127.919 146.342 128.616C144.679 129.303 142.941 129.622 141.127 129.575C139.313 129.528 137.742 128.903 136.414 127.699C134.644 126.094 134.13 124.225 134.871 122.094C135.617 119.952 137.539 117.714 140.638 115.382C143.064 113.557 145.24 112.371 147.168 111.824C149.105 111.271 150.974 111.252 152.777 111.768L148.173 116.309C147.663 116.152 147.232 116.081 146.88 116.096C146.295 116.117 145.693 116.247 145.075 116.486C144.458 116.724 143.851 117.068 143.256 117.516C141.907 118.53 141.176 119.581 141.061 120.668C140.965 121.482 141.397 122.324 142.355 123.193C143.541 124.268 144.68 124.763 145.77 124.677C146.856 124.587 147.985 124.1 149.158 123.217C150.296 122.361 150.977 121.554 151.2 120.797C151.431 120.034 151.341 119.247 150.927 118.437Z" fill="white"/>
<path d="M186.868 94.913L192.953 91.1302C193.39 91.6535 193.893 91.9542 194.464 92.0323C195.392 92.1565 196.479 91.8616 197.726 91.1475C198.657 90.6146 199.306 90.0768 199.676 89.5339C200.052 88.9798 200.153 88.5313 199.98 88.1884C199.816 87.8626 199.43 87.7084 198.821 87.7258C198.211 87.7433 196.976 88.1376 195.115 88.9087C192.064 90.1627 189.769 90.8213 188.232 90.8845C186.684 90.9531 185.663 90.4959 185.168 89.5128C184.842 88.8669 184.847 88.0796 185.183 87.151C185.525 86.2111 186.242 85.2185 187.335 84.1731C188.434 83.1165 190.082 81.9592 192.278 80.7012C194.974 79.1577 197.178 78.2822 198.89 78.0749C200.609 77.8563 201.931 78.3218 202.856 79.4712L196.821 83.2039C196.373 82.7314 195.82 82.5176 195.163 82.5625C194.515 82.6019 193.731 82.8853 192.81 83.4127C192.052 83.8466 191.531 84.2706 191.245 84.6847C190.956 85.0931 190.881 85.4344 191.019 85.7088C191.12 85.9088 191.369 85.9982 191.766 85.977C192.156 85.967 192.963 85.7038 194.186 85.1876C197.219 83.9219 199.445 83.1261 200.863 82.8002C202.287 82.4632 203.417 82.4125 204.253 82.6484C205.098 82.8787 205.694 83.3368 206.039 84.0227C206.445 84.8287 206.445 85.786 206.04 86.8946C205.634 88.0033 204.849 89.1193 203.685 90.2427C202.518 91.3604 200.913 92.5043 198.869 93.6744C195.282 95.7288 192.59 96.74 190.794 96.7079C188.998 96.6759 187.69 96.0776 186.868 94.913Z" fill="white"/>
<path d="M217.033 67.176L235.034 58.6125L235.789 61.6089L224.52 66.9699L225.081 69.2004L235.535 64.2274L236.255 67.0898L225.802 72.0628L226.498 74.8295L238.093 69.3133L238.894 72.4916L220.566 81.2102L217.033 67.176Z" fill="white"/>
<path d="M266.343 54.661L272.354 53.6438C272 54.9572 271.407 56.167 270.577 57.2733C269.747 58.3795 268.698 59.3746 267.433 60.2585C266.177 61.1386 264.563 61.9539 262.591 62.7044C260.198 63.6149 258.231 64.1198 256.691 64.2191C255.16 64.3077 253.82 63.9532 252.671 63.1556C251.521 62.3581 250.909 61.0103 250.835 59.1123C250.735 56.5817 251.624 54.271 253.503 52.18C255.391 50.0784 258.108 48.3532 261.652 47.0046C264.425 45.9494 266.618 45.5101 268.23 45.6869C269.853 45.8598 271.081 46.606 271.915 47.9256L265.945 51.1395C265.717 50.7537 265.483 50.4968 265.244 50.3689C264.85 50.1522 264.373 50.0512 263.815 50.0661C263.256 50.081 262.637 50.2179 261.956 50.477C260.414 51.0636 259.25 51.9442 258.463 53.1187C257.868 53.9945 257.597 55.1172 257.651 56.4867C257.718 58.1831 258.134 59.2066 258.9 59.5574C259.665 59.9012 260.719 59.8178 262.06 59.3073C263.362 58.8121 264.333 58.185 264.974 57.4261C265.624 56.6633 266.081 55.7416 266.343 54.661Z" fill="white"/>
<path d="M307.219 34.6917L313.69 33.8032L309.712 44.0532C309.318 45.0696 308.749 46.0581 308.006 47.0188C307.275 47.9703 306.362 48.8432 305.268 49.6374C304.186 50.4225 303.139 51.0142 302.126 51.4123C300.717 51.9684 299.13 52.3677 297.365 52.6101C296.343 52.7504 295.25 52.8451 294.083 52.8942C292.926 52.9421 292.008 52.8497 291.331 52.6171C290.656 52.3766 290.104 51.9824 289.675 51.4343C289.256 50.885 289.054 50.2872 289.07 49.6411C289.094 48.6015 289.27 47.6596 289.598 46.8152L293.576 36.5652L300.047 35.6766L295.973 46.1729C295.609 47.1111 295.639 47.8028 296.062 48.248C296.499 48.684 297.28 48.8247 298.406 48.67C299.523 48.5167 300.496 48.1388 301.326 47.5363C302.169 46.9246 302.776 46.1419 303.146 45.188L307.219 34.6917Z" fill="white"/>
<path d="M317.916 49.5148L325.035 32.2644L335.768 30.9693C337.758 30.7291 339.221 30.6867 340.156 30.8422C341.092 30.9977 341.723 31.4209 342.05 32.1119C342.381 32.7951 342.319 33.6858 341.866 34.784C341.471 35.7411 340.883 36.5984 340.102 37.356C339.325 38.1058 338.416 38.7485 337.375 39.284C336.712 39.6249 335.865 39.9433 334.833 40.2393C335.513 40.3584 335.985 40.5028 336.248 40.6723C336.427 40.7849 336.644 41.0457 336.898 41.4548C337.162 41.8627 337.318 42.1831 337.366 42.4158L338.416 47.0411L331.137 47.9194L329.872 43.0629C329.718 42.4331 329.512 42.0367 329.255 41.8739C328.901 41.6633 328.43 41.5934 327.842 41.6643L327.274 41.7329L324.384 48.7342L317.916 49.5148ZM328.619 38.4735L331.334 38.1458C331.628 38.1104 332.229 37.9633 333.137 37.7046C333.593 37.5825 334.013 37.3604 334.398 37.0381C334.793 36.7147 335.068 36.3647 335.223 35.9882C335.453 35.4312 335.416 35.0294 335.113 34.7828C334.809 34.5361 334.07 34.4837 332.895 34.6255L330.066 34.9669L328.619 38.4735Z" fill="white"/>
<path d="M357.107 28.4998L363.502 27.8603L355.843 45.1702L349.449 45.8097L357.107 28.4998Z" fill="white"/>
<path d="M374.599 26.6883L393.71 25.3591L391.63 29.6496L385.217 30.0956L378.871 43.1802L372.584 43.6175L378.93 30.5328L372.518 30.9788L374.599 26.6883Z" fill="white"/>
<path d="M402.676 24.6665L409.407 24.6535L409.988 30.532L417.329 24.6381L424.02 24.6252L410.576 34.7713L406.384 42.0726L400.309 42.0843L404.5 34.7831L402.676 24.6665Z" fill="white"/>
<path d="M454.548 27.8155L467.377 32.3109L464.035 35.8479L456.004 33.0336L453.516 35.6665L460.966 38.2771L457.773 41.6558L450.323 39.0452L447.237 42.3109L455.501 45.2067L451.956 48.9583L438.895 44.3814L454.548 27.8155Z" fill="white"/>
<path d="M465.79 46.8966L469.98 48.8723C469.219 49.6681 468.747 50.3369 468.562 50.8786C468.265 51.7567 468.505 52.4234 469.282 52.8786C469.861 53.2182 470.487 53.319 471.16 53.181C471.846 53.0395 472.431 52.7553 472.913 52.3285C473.371 51.9231 473.631 51.4729 473.694 50.9777C473.757 50.4826 473.405 49.7742 472.639 48.8524C471.397 47.3324 470.842 45.9554 470.975 44.7212C471.102 43.4836 471.857 42.2531 473.239 41.0298C474.147 40.2261 475.197 39.5824 476.389 39.0987C477.595 38.6115 478.819 38.3945 480.06 38.4478C481.315 38.4975 482.627 38.9232 483.995 39.7251C485.675 40.709 486.532 41.8317 486.566 43.0932C486.615 44.3511 485.807 45.8399 484.142 47.5595L480.013 45.5836C480.707 44.8199 481.07 44.1818 481.103 43.6691C481.142 43.16 480.875 42.7374 480.301 42.4012C479.829 42.1246 479.337 42.0372 478.824 42.1389C478.32 42.2336 477.875 42.4516 477.489 42.793C477.208 43.0419 477.053 43.3238 477.026 43.6384C476.984 43.9568 477.221 44.4149 477.737 45.0129C478.998 46.508 479.745 47.7144 479.98 48.632C480.229 49.546 480.136 50.4495 479.703 51.3424C479.277 52.2389 478.581 53.1139 477.616 53.9674C476.483 54.9702 475.206 55.7583 473.783 56.3315C472.361 56.9048 470.982 57.1668 469.647 57.1176C468.32 57.0612 467.02 56.6601 465.747 55.9143C463.512 54.6048 462.543 53.1858 462.84 51.6574C463.136 50.129 464.12 48.5421 465.79 46.8966Z" fill="white"/>
<path d="M485.093 58.4763L488.603 61.0506C487.753 61.8049 487.193 62.4579 486.922 63.0098C486.486 63.9046 486.585 64.6377 487.219 65.2091C487.693 65.6355 488.253 65.8144 488.901 65.7461C489.562 65.6756 490.155 65.4424 490.679 65.0465C491.178 64.6704 491.502 64.2241 491.651 63.7074C491.8 63.1908 491.606 62.4005 491.067 61.3367C490.198 59.5849 489.939 58.0638 490.289 56.7732C490.635 55.4783 491.56 54.2635 493.064 53.1287C494.052 52.3831 495.142 51.8233 496.333 51.4493C497.539 51.073 498.711 50.9847 499.849 51.1844C501 51.3819 502.135 51.9839 503.253 52.9904C504.625 54.2254 505.211 55.5124 505.01 56.8512C504.823 58.1879 503.802 59.6698 501.945 61.2972L498.49 58.7295C499.272 58.0016 499.726 57.3683 499.851 56.8297C499.981 56.2955 499.811 55.8174 499.343 55.3954C498.957 55.0482 498.518 54.8989 498.025 54.9474C497.541 54.9893 497.09 55.1686 496.67 55.4853C496.364 55.7162 496.169 55.9965 496.085 56.3263C495.988 56.6583 496.123 57.1705 496.49 57.8628C497.381 59.5904 497.85 60.9533 497.897 61.9513C497.959 62.9471 497.707 63.8925 497.142 64.7873C496.582 65.6866 495.777 66.5321 494.728 67.3238C493.495 68.2541 492.168 68.9404 490.746 69.3827C489.325 69.825 488.001 69.943 486.776 69.7367C485.559 69.5238 484.43 68.9493 483.39 68.0131C481.564 66.3693 480.93 64.756 481.486 63.173C482.042 61.59 483.244 60.0245 485.093 58.4763Z" fill="white"/>
<path d="M514.955 64.8013L521.697 74.3005L517.328 77.1032L513.107 71.1564L509.855 73.2427L513.771 78.7591L509.597 81.4364L505.682 75.92L501.648 78.5077L505.991 84.6267L501.357 87.5995L494.492 77.9281L514.955 64.8013Z" fill="white"/>
<path d="M527.377 83.2334L528.912 87.0216L519.094 98.3096L530.916 91.9651L532.467 95.7892L511.097 107.258L509.546 103.434L519.288 92.2195L507.553 98.5171L506.007 94.702L527.377 83.2334Z" fill="white"/>
<path d="M535.353 104.133L537.691 117.764L532.288 120.149L531.503 115.576L515.025 122.849L514.255 118.364L530.734 111.091L529.949 106.518L535.353 104.133Z" fill="white"/>
<path d="M538.542 126.787L538.615 131.564L516.594 139.688L516.52 134.911L538.542 126.787Z" fill="white"/>
<path d="M519.109 157.431L519.85 151.729L516.333 152.007L516.997 146.891L538.129 146.542L537.42 152.001L514.707 164.528L515.387 159.29L519.109 157.431ZM523.986 154.989L532.099 150.885L524.449 151.42L523.986 154.989Z" fill="white"/>
<path d="M534.84 167.585L533.355 172.799L517.156 176.099L514.838 184.237L509.546 185.315L513.348 171.964L534.84 167.585Z" fill="white"/>
<path d="M514.241 191.99L512.438 197.031C511.401 197.249 510.55 197.555 509.886 197.949C508.811 198.59 508.053 199.422 507.614 200.444C507.286 201.207 507.246 201.769 507.495 202.132C507.749 202.501 508.159 202.655 508.725 202.594C509.262 202.535 509.828 202.287 510.421 201.847C511.014 201.408 511.807 200.453 512.799 198.981C514.438 196.57 515.995 194.808 517.471 193.696C518.95 192.576 520.5 191.928 522.122 191.752C523.187 191.636 524.081 191.782 524.804 192.191C525.534 192.606 525.945 193.299 526.04 194.271C526.141 195.249 525.804 196.638 525.03 198.438C524.08 200.647 522.862 202.383 521.375 203.646C519.894 204.916 518.032 205.778 515.788 206.232L517.599 201.236C518.59 201.001 519.39 200.644 520.001 200.165C520.607 199.695 521.073 199.082 521.397 198.327C521.664 197.706 521.705 197.256 521.52 196.976C521.344 196.696 521.03 196.58 520.577 196.629C520.247 196.665 519.895 196.827 519.519 197.115C519.138 197.397 518.626 198.022 517.985 198.991C516.378 201.391 515.047 203.128 513.992 204.202C512.943 205.283 511.863 206.101 510.753 206.656C509.639 207.219 508.516 207.562 507.385 207.685C506.056 207.83 504.962 207.656 504.104 207.165C503.246 206.674 502.761 205.91 502.65 204.873C502.548 203.835 502.857 202.479 503.577 200.804C504.841 197.864 506.395 195.754 508.239 194.475C510.084 193.195 512.084 192.367 514.241 191.99Z" fill="white"/>
<path d="M-638.429 350.403L-504.496 102.306L-196.914 -24.643L-21.2954 92.2289L-155.263 337.271L-465.501 466.63L-638.429 350.403Z" fill="#B2C0BE"/>
<path d="M-655.755 323.462L-520.486 76.0415L-212.905 -50.9073L-37.2867 65.9643L-171.255 311.006L-481.491 440.365L-655.755 323.462Z" fill="#D3DCDB"/>
<path d="M-639.886 315.288L-512.046 81.456L-221.356 -38.5209L-55.3807 71.9324L-181.991 303.516L-475.191 425.772L-639.886 315.288Z" fill="#262E39"/>
<ellipse cx="256" cy="258.639" rx="256" ry="258.639" transform="matrix(0.999729 -0.0232791 -0.479704 0.87743 812.891 17.4052)" fill="#C8C8C8"/>
<circle cx="256" cy="256" r="256" transform="matrix(0.999729 -0.0232791 -0.479704 0.87743 794.795 2.24188)" fill="white"/>
<path fill-rule="evenodd" clip-rule="evenodd" d="M808.496 440.251C946.253 437.043 1111.51 336.429 1177.61 215.524C1243.71 94.618 1185.63 -0.794919 1047.87 2.41282C910.11 5.62056 744.85 106.234 678.749 227.14C612.648 348.045 670.738 443.458 808.496 440.251ZM834.084 385.124C941.751 382.639 1069.21 307.171 1118.77 216.561C1168.33 125.952 1121.23 54.5131 1013.56 56.9984C905.895 59.4837 778.436 134.952 728.875 225.561C679.313 316.171 726.417 387.61 834.084 385.124Z" fill="#742B8B"/>
</svg>
