<svg width="768" height="1166" viewBox="0 0 768 1166" fill="none" xmlns="http://www.w3.org/2000/svg">
<rect width="767.578" height="1165.76" rx="40" fill="#F7D5B8"/>
<path d="M304.034 313.624C273.81 307.387 237.071 372.591 222.479 405.973C212.084 370.992 195.134 298.032 210.485 286.039C225.837 274.045 279.247 299.431 304.034 313.624Z" fill="#343434" fill-opacity="0.38"/>
<path d="M554.696 375.39C556.135 360.038 509.721 327.816 486.333 313.624C493.33 299.232 513.439 273.566 537.905 286.039C568.488 301.63 552.897 394.579 554.696 375.39Z" fill="#343434" fill-opacity="0.38"/>
<path d="M441.357 515.118V546.301M441.357 546.301C455.349 542.903 484.053 545.342 486.932 582.281M441.357 546.301C424.966 543.303 387.986 544.262 371.195 572.087" stroke="black" stroke-width="15"/>
<path d="M437.759 518.114C406.577 513.797 399.58 485.932 399.98 472.539C411.014 447.113 452.551 458.747 471.941 467.742C473.54 486.332 468.942 522.432 437.759 518.114Z" fill="black"/>
<path d="M672.228 227.275C652.44 274.649 612.862 320.824 674.028 343.012C759.781 329.219 684.821 231.473 672.228 227.275Z" fill="#52213F" stroke="black" stroke-width="5"/>
<path d="M125.931 1071.01V1084.2H133.127V1089H139.124V1096.2H151.117V1089H157.114V1072.21H151.117V1065.01H132.528V1071.01H125.931Z" fill="#051424"/>
<path d="M118.736 1117.78L75.5597 1150.16H21.5894V1145.37H16.1924V1021.83H22.1891V1028.43H28.1858L29.9848 1138.17H64.166L118.736 1095.59L170.907 1138.17H335.217V1132.17H722.604V1137.57H728.601V1143.57H715.408V1148.97H611.665V1143.57H369.998V1147.77H154.716L118.736 1117.78Z" fill="black"/>
<path d="M746.146 897.75L661.592 979.305L575.84 897.75C555.451 832.986 597.882 819.793 622.014 819.793C637.373 819.793 654.596 830.187 661.592 837.783C675.025 821.952 694.774 819.193 702.97 819.793C757.66 830.827 754.541 876.362 746.146 897.75Z" fill="#9F6773" stroke="#FFB4B4"/>
<path d="M745.992 918.696V1138.18H741.195V1132.78H733.399V1118.99H726.803V1095H733.399V928.291H741.195V918.696H745.992Z" fill="black"/>
<path d="M155.916 747.188C173.107 716.405 205.569 642.246 197.893 591.874M197.893 591.874C188.298 528.908 158.915 491.129 190.697 431.162C174.306 377.392 152.798 264.454 197.893 242.866C242.988 221.278 327.822 265.453 364.602 290.24C380.193 285.442 416.293 278.726 435.962 290.24C449.755 271.05 491.852 238.428 549.9 261.456C564.892 258.857 591.037 279.206 575.686 381.39C592.077 432.162 615.024 543.42 575.686 582.279C560.548 597.232 541.964 609.587 523.325 619.459M197.893 591.874C243.254 610.909 346.513 631.284 414.146 642.822C436.071 646.563 458.654 646.177 479.591 638.67C492.993 633.864 508.177 627.481 523.325 619.459M523.325 619.459C514.467 656.438 502.066 733.756 523.325 747.188" stroke="black" stroke-width="16"/>
<path d="M733.999 795.165H728.602L728.002 206.289H636.852V211.686H286.045V205.689H101.947V200.292H53.3732V193.096H728.002V34.1838H384.391V28.1871H378.394V22.1904H371.798V16.1937H500.128V22.1904H685.426V16.1937H722.006V22.1904H739.396V40.1805H746.592V327.422H739.996V617.663H746.592V818.552H739.996V806.559H733.999V795.165Z" fill="black"/>
<path d="M709.412 788.569V781.972L28.7867 783.172L28.1871 648.246H34.7834V587.679H28.1871V575.086H34.7834V525.913H28.1871V518.717H23.3897V531.91H16.1937V544.503H23.3897V555.297H16.1937V992.457H23.3897V1004.45H28.7867V818.552H34.7834V793.366H126.533V801.162H477.94V795.165H662.039V788.569H709.412Z" fill="black"/>
<path d="M34.7834 397.584V501.327H28.1871V488.134H23.3897V474.941H15.594V200.292H28.1871V205.689H34.7834V249.465H28.1871V397.584H34.7834Z" fill="black"/>
<path d="M22.79 168.51H34.7834V64.1673H28.7867V34.1838H22.1904V28.1871H15.594V162.513H22.79V168.51Z" fill="black"/>
<path d="M33.5841 21.5907V15.594L206.889 16.1937V22.1904H352.609V28.1871H366.401V34.1838L157.116 34.7834V28.1871H40.7801V21.5907H33.5841Z" fill="black"/>
<path d="M139.122 1150.17H95.9459V1144.77H101.343V1138.77L108.539 1138.17V1132.78H125.929V1138.77H133.125V1144.77H139.122V1150.17Z" fill="black"/>
<path d="M158.312 1096.19V1114.18H163.109V1120.18H175.103V1114.18H180.5V1090.2H163.109V1096.19H158.312Z" fill="black"/>
<path d="M182.299 1084.21H163.109V1053.02H169.706V1059.02H175.103V1077.01H182.299V1084.21Z" fill="black"/>
<path d="M133.127 1059.03V1027.84H139.723V1033.84H145.72V1052.43H151.117V1059.03H133.127Z" fill="black"/>
<path d="M77.957 1089.01V1072.22H82.1546V1065.02H101.944V1072.22H109.14V1083.61H101.944V1089.01H95.3474V1096.2H82.1546V1089.01H77.957Z" fill="black"/>
<path d="M82.1546 1059.03V1052.43H88.751V1033.84H95.3474V1029.04H101.944V1059.03H82.1546Z" fill="black"/>
<path d="M70.7609 1083.61H53.3705V1076.42H58.7675V1059.03H65.3639V1052.43H70.7609V1083.61Z" fill="black"/>
<path d="M69.5616 1089.01H53.3705V1114.79H58.7675V1120.19H70.7609V1114.79H77.957V1096.2H69.5616V1089.01Z" fill="black"/>
</svg>
