<svg width="37" height="24" viewBox="0 0 37 24" fill="none" xmlns="http://www.w3.org/2000/svg">
<g id="Instagram_Icon">
<g id="Vector">
<path d="M2.09264 21.1679L1.46091 22.7624L0.472743 21.0902L2.09264 21.1679Z" fill="url(#paint0_linear_0_1)"/>
<path d="M35.4458 2.07177L35.6874 0.613991L36.6229 2.22298L35.4458 2.07177Z" fill="url(#paint1_linear_0_1)"/>
<path d="M10.9219 4.5046C11.8712 2.85112 14.1863 1.50695 16.0929 1.50229L34.7044 1.45683C36.611 1.45217 37.3871 2.7888 36.4378 4.44227L27.1714 20.5831C26.2222 22.2366 23.9071 23.5807 22.0005 23.5854L3.38894 23.6309C1.48236 23.6355 0.706304 22.2989 1.65556 20.6454L10.9219 4.5046Z" fill="url(#paint2_linear_0_1)"/>
<path d="M9.99372 2.90606C10.943 1.25259 13.2581 -0.0915917 15.1647 -0.096249L33.7762 -0.141712C35.6828 -0.14637 36.4588 1.19026 35.5096 2.84374L26.2432 18.9846C25.2939 20.638 22.9788 21.9822 21.0723 21.9869L2.46071 22.0323C0.554133 22.037 -0.221926 20.7004 0.727328 19.0469L9.99372 2.90606Z" fill="url(#paint3_radial_0_1)"/>
<path d="M9.99372 2.90606C10.943 1.25259 13.2581 -0.0915917 15.1647 -0.096249L33.7762 -0.141712C35.6828 -0.14637 36.4588 1.19026 35.5096 2.84374L26.2432 18.9846C25.2939 20.638 22.9788 21.9822 21.0723 21.9869L2.46071 22.0323C0.554133 22.037 -0.221926 20.7004 0.727328 19.0469L9.99372 2.90606Z" fill="url(#paint4_radial_0_1)"/>
</g>
<g id="Instagram">
<path id="Ellipse 6" d="M19.7618 5.98028C23.4763 5.36101 25.0008 9.4105 22.2098 12.4391C18.6088 16.3466 15.0998 16.2709 13.6188 14.847C15.2632 13.2019 18.8018 14.628 20.9865 10.5692C22.7373 6.62562 17.8153 5.93177 19.7618 5.98028Z" fill="#E8E8E8"/>
<path id="Vector 11" d="M13.0362 14.3716C13.3805 14.8275 14.0436 15.2243 14.3822 15.3427L14.7456 14.6519L12.3714 12.8491C12.4829 13.1513 12.6782 13.8975 13.0362 14.3716Z" fill="#E8E8E8"/>
<path id="Vector 8" d="M15.5846 13.4642C13.1264 11.5417 17.7581 6.1596 21.8971 8.8139L21.7512 7.65069L19.5253 6.82815L16.6525 7.56343L14.0394 9.76372L14.0635 12.4558L14.824 12.96L15.5846 13.4642Z" fill="#D9D9D9"/>
<path id="Vector 9" d="M13.0371 20.2401C6.92706 19.9508 6.66464 20.2409 5.67137 16.8955L12.4576 18.4777L17.7549 18.642L20.9904 17.7604L24.0607 14.9808L26.3822 10.9963L28.7592 6.25821L28.4763 2.39539C28.7554 2.43014 28.5894 1.8857 30.452 4.12099C31.5496 5.43819 29.5128 8.57529 28.1378 11.4724C26.87 14.1436 25.62 16.316 24.162 17.7029C22.9232 18.8812 22.3535 20.6812 13.0371 20.2401Z" fill="#EAEAEA"/>
<path id="Vector 10" d="M8.51984 14.7545C7.82702 16.366 8.86765 17.4004 9.29517 17.5772L7.84456 17.8411L7.05121 16.4747L9.20573 10.0712L12.79 4.21777L15.8063 2.12469L27.3815 2.00238L29.7045 3.33842L29.7644 5.46906L27.9765 5.53447L27.8101 5.13085C27.4842 4.3406 26.7516 3.79246 25.9015 3.70295L24.082 3.62896C22.9689 3.53918 19.0069 3.37894 17.1615 3.65125C15.316 3.92357 13.9075 4.82511 13.2586 5.91732C11.9233 8.16474 9.21267 13.1429 8.51984 14.7545Z" fill="#D9D9D9"/>
<path id="Vector_2" d="M8.33363 10.1557C7.02684 12.5835 6.87407 12.8884 6.40671 13.8431C5.94056 14.7959 5.75027 15.4495 5.67816 16.0237C5.6032 16.6176 5.65782 17.1244 5.91614 17.6344C6.17407 18.1447 6.53722 18.4633 7.03563 18.7079C7.51776 18.9445 8.12387 19.1125 9.10706 19.1804C10.0927 19.2482 10.4092 19.2674 12.9772 19.3314C15.5452 19.3954 15.8723 19.3926 16.9042 19.3745C17.9344 19.3558 18.7026 19.2223 19.4227 19.0164C20.1676 18.8034 20.8596 18.5111 21.6527 18.0272C22.446 17.5436 23.0383 17.0529 23.5961 16.4714C24.1361 15.9084 24.6452 15.2626 25.2035 14.3123C25.7626 13.3599 25.9377 13.0557 27.2444 10.6282C28.5513 8.20025 28.7036 7.89622 29.1709 6.94156C29.6371 5.98876 29.8278 5.33446 29.9001 4.75987C29.975 4.1661 29.9192 3.66004 29.6605 3.15025C29.4026 2.6399 29.0395 2.32133 28.541 2.07677C28.0579 1.84203 27.4518 1.67405 26.4696 1.60427C25.4841 1.5363 25.1686 1.51712 22.6006 1.45311C20.0326 1.38911 19.7043 1.39225 18.6726 1.40995C17.6419 1.42956 16.8736 1.56328 16.1541 1.76806C15.4089 1.98162 14.7169 2.2739 13.9237 2.75804C13.1301 3.24218 12.5393 3.73137 11.9812 4.31385C11.4407 4.8779 10.9314 5.52389 10.3731 6.47439C9.81394 7.42677 9.63931 7.73005 8.33212 10.1585L8.33363 10.1557ZM9.60597 11.0001C9.73369 10.7621 9.87703 10.4966 10.0376 10.1982C11.3224 7.81144 11.4837 7.52877 12.0363 6.58737C12.5476 5.71685 12.9563 5.24766 13.2553 4.93578C13.6513 4.52288 14.0162 4.23057 14.5155 3.92613C15.0149 3.62151 15.4343 3.43568 15.963 3.28428C16.3618 3.17023 16.9406 3.03688 17.8839 3.02019C18.9038 3.00219 19.2082 3.00034 21.7317 3.06324C24.2552 3.12613 24.5496 3.1429 25.5233 3.21058C26.4238 3.27341 26.8458 3.43152 27.1128 3.56217C27.4669 3.73519 27.6766 3.93707 27.839 4.25819C28.0015 4.57931 28.0465 4.88146 27.9932 5.30308C27.9538 5.62106 27.8527 6.09829 27.4257 6.97092C26.9638 7.91439 26.8212 8.19771 25.5365 10.5845C24.2517 12.9714 24.0896 13.2541 23.537 14.1953C23.0253 15.0658 22.6166 15.535 22.3175 15.8471C21.9216 16.26 21.5563 16.5528 21.0569 16.8575C20.5576 17.1621 20.1389 17.3479 19.6101 17.4993C19.2113 17.6134 18.6324 17.7467 17.6891 17.7634C16.6693 17.7814 16.3652 17.7825 13.8402 17.7196C11.3151 17.6567 11.0219 17.6407 10.0481 17.573C9.14765 17.5102 8.72568 17.3521 8.45823 17.2214C8.10417 17.0484 7.89344 16.8465 7.7309 16.5253C7.56836 16.2042 7.52388 15.9011 7.57665 15.4797C7.61625 15.1613 7.71731 14.6843 8.1441 13.8117C8.54859 12.986 8.70879 12.6662 9.60361 11.0001L9.60597 11.0001ZM14.1761 5.46566C13.8574 6.05788 14.1064 6.55102 14.733 6.56663C15.3595 6.58225 16.1263 6.11443 16.4451 5.52221C16.7639 4.92998 16.5143 4.43683 15.8878 4.42122C15.2614 4.40561 14.4945 4.87342 14.1757 5.46565L14.1761 5.46566ZM12.9334 10.2704C11.5688 12.8056 12.6366 14.9152 15.3183 14.9821C18 15.0489 21.2796 13.0476 22.6442 10.5124C24.0089 7.9772 22.9416 5.86832 20.26 5.80148C17.5783 5.73465 14.2981 7.73518 12.9334 10.2704ZM14.6374 10.3128C15.5232 8.66729 17.6524 7.36828 19.3932 7.41166C21.1339 7.45504 21.827 8.82439 20.9412 10.47C20.0554 12.1157 17.9261 13.4145 16.1854 13.3711C14.4446 13.3278 13.7516 11.9586 14.6374 10.3128Z" fill="white"/>
</g>
</g>
<defs>
<linearGradient id="paint0_linear_0_1" x1="-2.6824" y1="10.6603" x2="34.354" y2="11.7152" gradientUnits="userSpaceOnUse">
<stop offset="0.00219848" stop-color="#FF8D23"/>
</linearGradient>
<linearGradient id="paint1_linear_0_1" x1="-6.74081" y1="15.5025" x2="33.6087" y2="16.363" gradientUnits="userSpaceOnUse">
<stop offset="1" stop-color="#D14BDD"/>
</linearGradient>
<linearGradient id="paint2_linear_0_1" x1="-2.59045" y1="19.4149" x2="29.8936" y2="-3.35866" gradientUnits="userSpaceOnUse">
<stop offset="0.00219848" stop-color="#FF8310"/>
<stop offset="0.160855" stop-color="#FFF975"/>
<stop offset="0.62052" stop-color="#FF2828"/>
<stop offset="0.790563" stop-color="#F570DB"/>
<stop offset="1" stop-color="#D14BDD"/>
</linearGradient>
<radialGradient id="paint3_radial_0_1" cx="0" cy="0" r="1" gradientUnits="userSpaceOnUse" gradientTransform="translate(10.0231 25.4619) rotate(-90) scale(23.5604 33.6638)">
<stop stop-color="#FFDD55"/>
<stop offset="0.1" stop-color="#FFDD55"/>
<stop offset="0.5" stop-color="#FF543E"/>
<stop offset="1" stop-color="#C837AB"/>
</radialGradient>
<radialGradient id="paint4_radial_0_1" cx="0" cy="0" r="1" gradientUnits="userSpaceOnUse" gradientTransform="translate(6.52313 1.5167) rotate(90.1052) scale(11.2169 49.5853)">
<stop stop-color="#3771C8"/>
<stop offset="0.128" stop-color="#3771C8"/>
<stop offset="1" stop-color="#6600FF" stop-opacity="0"/>
</radialGradient>
</defs>
</svg>
