<svg width="37" height="24" viewBox="0 0 37 24" fill="none" xmlns="http://www.w3.org/2000/svg">
<g id="Instagram_Icon">
<g id="Vector">
<path d="M2.09264 21.1681L1.46091 22.7626L0.472743 21.0903L2.09264 21.1681Z" fill="url(#paint0_linear_0_1)"/>
<path d="M35.4458 2.07189L35.6874 0.614114L36.6229 2.2231L35.4458 2.07189Z" fill="url(#paint1_linear_0_1)"/>
<path d="M10.9219 4.50472C11.8712 2.85125 14.1863 1.50707 16.0929 1.50241L34.7044 1.45695C36.611 1.45229 37.3871 2.78892 36.4378 4.4424L27.1714 20.5832C26.2222 22.2367 23.9071 23.5809 22.0005 23.5855L3.38894 23.631C1.48236 23.6356 0.706304 22.299 1.65556 20.6455L10.9219 4.50472Z" fill="url(#paint2_linear_0_1)"/>
<path d="M9.99372 2.90618C10.943 1.25271 13.2581 -0.0914696 15.1647 -0.0961269L33.7762 -0.14159C35.6828 -0.146247 36.4588 1.19038 35.5096 2.84386L26.2432 18.9847C25.2939 20.6381 22.9788 21.9823 21.0723 21.987L2.46071 22.0324C0.554133 22.0371 -0.221926 20.7005 0.727328 19.047L9.99372 2.90618Z" fill="url(#paint3_radial_0_1)"/>
<path d="M9.99372 2.90618C10.943 1.25271 13.2581 -0.0914696 15.1647 -0.0961269L33.7762 -0.14159C35.6828 -0.146247 36.4588 1.19038 35.5096 2.84386L26.2432 18.9847C25.2939 20.6381 22.9788 21.9823 21.0723 21.987L2.46071 22.0324C0.554133 22.0371 -0.221926 20.7005 0.727328 19.047L9.99372 2.90618Z" fill="url(#paint4_radial_0_1)"/>
</g>
<g id="Instagram">
<path id="Vector_2" fill-rule="evenodd" clip-rule="evenodd" d="M6.88523 14.6258C7.35258 13.6712 7.50535 13.3662 8.81214 10.9385L8.81064 10.9412C10.1178 8.51276 10.2925 8.20948 10.8516 7.25711C11.41 6.3066 11.9192 5.66062 12.4598 5.09657C13.0178 4.51409 13.6086 4.02489 14.4022 3.54076C15.1954 3.05661 15.8874 2.76434 16.6326 2.55077C17.3521 2.346 18.1204 2.21227 19.1511 2.19267C20.1828 2.17497 20.5111 2.17183 23.0791 2.23583C25.6471 2.29983 25.9626 2.31902 26.9481 2.38699C27.9303 2.45676 28.5364 2.62474 29.0196 2.85949C29.518 3.10405 29.8811 3.42262 30.1391 3.93296C30.3977 4.44275 30.4535 4.94882 30.3786 5.54259C30.3063 6.11717 30.1156 6.77147 29.6495 7.72428C29.1821 8.67894 29.0298 8.98297 27.723 11.4109C26.4163 13.8385 26.2411 14.1427 25.682 15.095C25.1237 16.0454 24.6146 16.6912 24.0746 17.2541C23.5169 17.8356 22.9245 18.3263 22.1312 18.8099C21.3381 19.2938 20.6461 19.5861 19.9012 19.7991C19.1811 20.005 18.4129 20.1385 17.3827 20.1572C16.3508 20.1753 16.0237 20.1781 13.4557 20.1141C10.8877 20.0501 10.5712 20.0309 9.58558 19.9631C8.60239 19.8952 7.99627 19.7272 7.51414 19.4906C7.01573 19.246 6.65258 18.9275 6.39466 18.4171C6.13633 17.9071 6.08172 17.4003 6.15668 16.8064C6.22879 16.2322 6.41908 15.5786 6.88523 14.6258ZM10.3557 11.2789C10.2583 11.4596 10.168 11.6271 10.0845 11.7828L10.0821 11.7828C9.1873 13.4489 9.0271 13.7688 8.62262 14.5944C8.19583 15.467 8.09476 15.9441 8.05516 16.2624C8.00239 16.6839 8.04688 16.9869 8.20942 17.3081C8.37195 17.6292 8.58269 17.8311 8.93674 18.0041C9.2042 18.1348 9.62617 18.2929 10.5266 18.3557C11.5004 18.4234 11.7936 18.4394 14.3187 18.5023C16.8438 18.5652 17.1478 18.5641 18.1676 18.5461C19.1109 18.5294 19.6898 18.3961 20.0886 18.282C20.6174 18.1306 21.0361 17.9448 21.5355 17.6402C22.0348 17.3355 22.4001 17.0427 22.796 16.6298C23.0952 16.3177 23.5038 15.8485 24.0155 14.978C24.5681 14.0368 24.7302 13.7542 26.015 11.3672C27.2998 8.98043 27.4423 8.6971 27.9042 7.75363C28.3312 6.88101 28.4324 6.40377 28.4718 6.0858C28.525 5.66418 28.48 5.36203 28.3175 5.04091C28.1552 4.71979 27.9454 4.5179 27.5914 4.34488C27.3243 4.21423 26.9023 4.05613 26.0018 3.9933C25.0281 3.92562 24.7337 3.90884 22.2102 3.84595C19.6867 3.78306 19.3823 3.78491 18.3624 3.8029C17.4191 3.81959 16.8403 3.95294 16.4415 4.067C15.9128 4.2184 15.4934 4.40422 14.994 4.70885C14.4948 5.01329 14.1298 5.3056 13.7339 5.71849C13.4348 6.03037 13.0262 6.49957 12.5149 7.37009C11.9622 8.31149 11.8009 8.59415 10.5161 10.9809C10.4606 11.0841 10.4071 11.1833 10.3557 11.2789ZM15.7968 15.7648C13.1151 15.6979 12.0473 13.5883 13.4119 11.0531C14.7766 8.5179 18.0568 6.51736 20.7385 6.5842C23.4202 6.65103 24.4874 8.75991 23.1228 11.2951C21.7581 13.8303 18.4785 15.8316 15.7968 15.7648ZM19.8718 8.19438C18.1309 8.15099 16.0017 9.45 15.1159 11.0956C14.2301 12.7413 14.9231 14.1105 16.6639 14.1539C18.4046 14.1972 20.5339 12.8984 21.4197 11.2527C22.3055 9.60711 21.6124 8.23776 19.8718 8.19438Z" fill="#D9D9D9"/>
<path id="Ellipse 6" d="M19.7637 5.98041C23.4783 5.36113 25.0028 9.41062 22.2118 12.4392C18.6108 16.3468 15.1017 16.2711 13.6208 14.8471C15.2652 13.202 18.8037 14.6281 20.9884 10.5693C22.7392 6.62574 17.8173 5.9319 19.7637 5.98041Z" fill="#E8E8E8"/>
<path id="Vector 11" d="M13.0362 14.3717C13.3805 14.8276 14.0436 15.2244 14.3822 15.3428L14.7456 14.652L12.3714 12.8492C12.4829 13.1514 12.6782 13.8976 13.0362 14.3717Z" fill="#E8E8E8"/>
<path id="Vector 8" d="M15.5846 13.4644C13.1264 11.542 17.7581 6.15985 21.8971 8.81414L21.7512 7.65093L19.5253 6.8284L16.6525 7.56368L14.0394 9.76396L14.0635 12.4561L14.824 12.9602L15.5846 13.4644Z" fill="#D9D9D9"/>
<path id="Vector 10" d="M8.51984 14.7547C7.82702 16.3662 8.86765 17.4007 9.29517 17.5775L7.84456 17.8413L7.05121 16.4749L9.20573 10.0715L12.79 4.21802L15.8063 2.12493L27.3815 2.00262L29.7045 3.33867L29.7644 5.4693L27.9765 5.53471L27.8101 5.13109C27.4842 4.34085 26.7516 3.7927 25.9015 3.70319L24.082 3.62921C22.9689 3.53942 19.0069 3.37918 17.1615 3.6515C15.316 3.92381 13.9075 4.82536 13.2586 5.91756C11.9233 8.16498 9.21267 13.1432 8.51984 14.7547Z" fill="#D9D9D9"/>
<path id="Vector_3" d="M8.33558 10.1559C7.02879 12.5836 6.87602 12.8886 6.40867 13.8432C5.94251 14.796 5.75223 15.4496 5.68011 16.0238C5.60516 16.6178 5.65977 17.1245 5.91809 17.6345C6.17602 18.1449 6.53917 18.4634 7.03758 18.708C7.51971 18.9446 8.12583 19.1126 9.10901 19.1805C10.0947 19.2483 10.4111 19.2675 12.9791 19.3315C15.5472 19.3955 15.8743 19.3927 16.9061 19.3746C17.9363 19.3559 18.7045 19.2224 19.4247 19.0165C20.1696 18.8035 20.8615 18.5112 21.6547 18.0273C22.448 17.5437 23.0403 17.053 23.5981 16.4715C24.1381 15.9086 24.6472 15.2628 25.2054 14.3124C25.7646 13.3601 25.9397 13.0559 27.2464 10.6283C28.5533 8.20037 28.7055 7.89635 29.1729 6.94168C29.6391 5.98888 29.8297 5.33458 29.9021 4.76C29.9769 4.16622 29.9211 3.66016 29.6625 3.15037C29.4046 2.64003 29.0414 2.32146 28.543 2.07689C28.0599 1.84215 27.4538 1.67417 26.4716 1.60439C25.486 1.53642 25.1705 1.51724 22.6025 1.45324C20.0345 1.38923 19.7062 1.39238 18.6746 1.41007C17.6439 1.42968 16.8755 1.56341 16.156 1.76818C15.4108 1.98175 14.7189 2.27402 13.9256 2.75816C13.132 3.2423 12.5413 3.73149 11.9832 4.31398C11.4426 4.87802 10.9334 5.52401 10.375 6.47451C9.81589 7.42689 9.64126 7.73017 8.33408 10.1587L8.33558 10.1559ZM9.60792 11.0003C9.73564 10.7622 9.87898 10.4967 10.0396 10.1983C11.3243 7.81156 11.4856 7.5289 12.0383 6.5875C12.5496 5.71697 12.9583 5.24778 13.2573 4.9359C13.6532 4.52301 14.0182 4.23069 14.5175 3.92626C15.0168 3.62163 15.4363 3.43581 15.9649 3.28441C16.3637 3.17035 16.9426 3.037 17.8859 3.02031C18.9057 3.00232 19.2102 3.00047 21.7336 3.06336C24.2571 3.12625 24.5516 3.14303 25.5253 3.2107C26.4258 3.27353 26.8477 3.43164 27.1148 3.56229C27.4689 3.73531 27.6786 3.9372 27.8409 4.25831C28.0035 4.57943 28.0485 4.88158 27.9952 5.3032C27.9558 5.62118 27.8546 6.09842 27.4276 6.97104C26.9657 7.91451 26.8232 8.19783 25.5385 10.5846C24.2536 12.9716 24.0915 13.2542 23.539 14.1954C23.0273 15.0659 22.6186 15.5351 22.3195 15.8472C21.9235 16.2601 21.5583 16.553 21.0589 16.8576C20.5595 17.1622 20.1409 17.348 19.612 17.4994C19.2132 17.6135 18.6344 17.7469 17.6911 17.7635C16.6712 17.7815 16.3672 17.7826 13.8421 17.7197C11.3171 17.6568 11.0238 17.6408 10.0501 17.5731C9.14961 17.5103 8.72763 17.3522 8.46018 17.2215C8.10613 17.0485 7.89539 16.8466 7.73285 16.5255C7.57031 16.2043 7.52583 15.9013 7.5786 15.4798C7.6182 15.1615 7.71927 14.6844 8.14606 13.8118C8.55054 12.9862 8.71074 12.6663 9.60556 11.0002L9.60792 11.0003ZM14.1781 5.46578C13.8593 6.058 14.1083 6.55114 14.735 6.56676C15.3614 6.58237 16.1283 6.11455 16.4471 5.52233C16.7658 4.9301 16.5162 4.43695 15.8898 4.42134C15.2633 4.40573 14.4969 4.87356 14.1781 5.46578ZM12.9354 10.2705C11.5708 12.8057 12.6386 14.9153 15.3203 14.9822C18.0019 15.049 21.2816 13.0477 22.6462 10.5125C24.0108 7.97732 22.9436 5.86844 20.2619 5.80161C17.5802 5.73477 14.3 7.7353 12.9354 10.2705ZM14.6394 10.313C15.5251 8.66741 17.6544 7.3684 19.3952 7.41178C21.1358 7.45516 21.8289 8.82452 20.9432 10.4701C20.0573 12.1158 17.928 13.4146 16.1874 13.3713C14.4465 13.3279 13.7535 11.9587 14.6394 10.313Z" fill="white"/>
</g>
</g>
<defs>
<linearGradient id="paint0_linear_0_1" x1="-2.6824" y1="10.6605" x2="34.354" y2="11.7153" gradientUnits="userSpaceOnUse">
<stop offset="0.00219848" stop-color="#FF8D23"/>
</linearGradient>
<linearGradient id="paint1_linear_0_1" x1="-6.74081" y1="15.5026" x2="33.6087" y2="16.3631" gradientUnits="userSpaceOnUse">
<stop offset="1" stop-color="#D14BDD"/>
</linearGradient>
<linearGradient id="paint2_linear_0_1" x1="-2.59045" y1="19.415" x2="29.8936" y2="-3.35854" gradientUnits="userSpaceOnUse">
<stop offset="0.00219848" stop-color="#FF8310"/>
<stop offset="0.160855" stop-color="#FFF975"/>
<stop offset="0.62052" stop-color="#FF2828"/>
<stop offset="0.790563" stop-color="#F570DB"/>
<stop offset="1" stop-color="#D14BDD"/>
</linearGradient>
<radialGradient id="paint3_radial_0_1" cx="0" cy="0" r="1" gradientUnits="userSpaceOnUse" gradientTransform="translate(10.0231 25.462) rotate(-90) scale(23.5604 33.6638)">
<stop stop-color="#FFDD55"/>
<stop offset="0.1" stop-color="#FFDD55"/>
<stop offset="0.5" stop-color="#FF543E"/>
<stop offset="1" stop-color="#C837AB"/>
</radialGradient>
<radialGradient id="paint4_radial_0_1" cx="0" cy="0" r="1" gradientUnits="userSpaceOnUse" gradientTransform="translate(6.52313 1.51682) rotate(90.1052) scale(11.2169 49.5853)">
<stop stop-color="#3771C8"/>
<stop offset="0.128" stop-color="#3771C8"/>
<stop offset="1" stop-color="#6600FF" stop-opacity="0"/>
</radialGradient>
</defs>
</svg>
