<svg width="871" height="1174" viewBox="0 0 871 1174" fill="none" xmlns="http://www.w3.org/2000/svg">
<rect width="871" height="1174" rx="40" fill="#EEEEEE"/>
<ellipse cx="457.903" cy="727.051" rx="128.5" ry="30" fill="#F6F6F6"/>
<path d="M449.904 797.051C393.504 797.451 369.237 838.884 365.404 861.551C359.004 867.151 354.404 863.884 352.904 861.551C350.901 802.308 388.263 760.36 424.903 743.051C439.473 736.168 455.308 739.495 466.404 737.551C491.904 728.051 546.904 781.051 557.404 835.051C565.804 878.251 553.904 880.384 546.904 876.051C537.237 848.217 506.304 796.651 449.904 797.051Z" fill="#81CEFD"/>
<path d="M583.403 956.051C591.994 959.398 538.403 793.051 448.903 793.051C384.234 793.051 345.969 875.715 331.307 929.051C330.006 934.384 327.403 947.251 327.403 956.051C327.403 964.851 342.736 959.717 350.403 956.051C361.603 937.651 386.436 893.551 396.403 882.051C415.903 859.551 419.703 848.851 452.903 848.051C494.403 847.051 504.403 896.551 505.903 901.551C507.403 906.551 544.903 941.051 583.403 956.051Z" fill="#008BE3"/>
<path fill-rule="evenodd" clip-rule="evenodd" d="M318.285 734.897C332.946 729.688 353.732 719.033 356.395 714.827C382.395 714.827 390.895 740.827 395.895 749.327C359.895 753.727 314.895 826.494 297.395 862.827L265.896 852.328C290.791 848.345 225.247 782.326 215.516 790.442C251.303 758.697 291.885 744.277 318.285 734.897Z" fill="#81CEFD"/>
<path d="M265.896 852.328C290.791 848.345 225.247 782.326 215.516 790.442L215.396 790.548C200.211 804.038 185.894 820.652 173.896 841.328C178.062 856.328 192.196 886.028 215.396 884.828C223.896 875.328 245.896 855.528 265.896 852.328Z" fill="#008BE3"/>
<path d="M318.285 734.897C332.946 729.688 353.732 719.033 356.395 714.827C363.995 702.827 344.729 702.494 338.395 703.327C188.395 705.327 165.562 798.161 173.896 841.328C185.894 820.652 200.211 804.038 215.396 790.548C215.435 790.512 215.475 790.476 215.516 790.442C251.303 758.697 291.885 744.277 318.285 734.897Z" fill="#009CFD"/>
<path d="M300.404 929.051C277.204 827.451 353.07 756.384 394.903 734.051L438.404 739.051L336.903 939.051C317.703 949.051 305.404 937.384 300.404 929.051Z" fill="#009CFD"/>
<path d="M728.903 820.551C728.903 861.33 580.403 755.551 531.903 701.551C659.71 701.551 693.234 735.512 693.234 735.512C732.381 761.187 728.903 802.551 728.903 820.551Z" fill="#009CFD"/>
<ellipse cx="589.903" cy="964.051" rx="29.5" ry="27" fill="#FD5F55"/>
<ellipse cx="707.903" cy="878.051" rx="29.5" ry="27" fill="#4F6367"/>
<path d="M692.903 864.551C665.303 858.551 643.403 844.384 635.903 838.051C642.403 817.384 662.903 779.851 692.903 795.051C730.403 814.051 727.403 872.051 692.903 864.551Z" fill="#008BE3"/>
<ellipse cx="322.903" cy="964.051" rx="29.5" ry="27" fill="#4F6367"/>
<ellipse cx="195.903" cy="885.051" rx="29.5" ry="27" fill="#FD5F55"/>
<path d="M616.903 864.762C574.903 793.162 513.237 756.112 495.403 748.612C495.403 740.112 508.803 717.412 540.403 712.612C579.903 706.612 631.403 750.612 642.903 755.612C653.541 760.237 706.903 796.095 730.403 817.762C734.803 848.562 722.903 850.262 716.403 847.262C717.603 861.262 716.876 852.797 716.363 846.815C715.021 832.885 706.526 815.352 702.403 808.262C677.603 783.062 635.07 835.428 616.903 864.762Z" fill="#81CEFD"/>
<ellipse cx="315.403" cy="589.551" rx="13" ry="25.5" fill="#F6F6F6"/>
<ellipse cx="599.403" cy="586.551" rx="13" ry="25.5" fill="white"/>
<path d="M605.903 930.55C598.303 946.55 580.07 945.55 571.903 943.05C567.532 912.169 554.91 884.786 548.403 861.55C526.929 784.861 496.625 746.9 481.403 737.051C527.803 733.051 588.903 811.05 610.903 844.05C616.503 915.65 610.57 927.716 605.903 930.55Z" fill="#009CFD"/>
<path d="M476.403 403.327C462.444 389.62 460.333 423.565 443.635 420.273C426.937 416.981 409.941 419.329 393.97 427.136C377.999 434.942 363.485 447.995 351.557 465.279C339.628 482.563 330.608 503.611 325.199 526.785C319.789 549.959 318.136 574.633 320.368 598.887C322.6 623.14 328.657 646.319 338.067 666.617C347.477 686.915 359.987 703.786 374.622 715.916C389.257 728.046 405.622 735.107 422.444 736.55C412.962 735.737 402.653 678.664 394.403 671.827C386.153 664.989 380.208 643.269 374.903 631.827C369.599 620.385 366.161 606.499 364.903 592.827C363.645 579.155 361.854 563.89 364.903 550.827C367.952 537.764 370.975 524.07 377.699 514.327C384.423 504.584 384.967 494.451 393.97 490.051C402.973 485.65 399.403 479.551 411.403 473.051C428.403 447.551 497.034 395.6 504.903 403.327H476.403Z" fill="#F7F7F7"/>
<ellipse cx="457.903" cy="568.051" rx="138.5" ry="159" fill="white"/>
<ellipse cx="541.903" cy="241.051" rx="32.5" ry="31" fill="white"/>
<path d="M655.403 434.811C604.203 348.811 572.57 402.478 566.403 440.311C546.803 435.111 531.07 365.978 522.403 331.811C642.403 268.211 681.403 368.978 685.903 427.311C666.303 454.911 657.403 443.811 655.403 434.811Z" fill="#FDA200"/>
<ellipse cx="32.5" cy="31" rx="32.5" ry="31" transform="matrix(-1 0 0 1 707.403 425.811)" fill="white"/>
<path d="M233.403 438.488C284.603 352.488 316.236 406.155 322.403 443.989C342.003 438.788 357.736 369.655 366.403 335.488C246.403 271.888 207.403 372.655 202.903 430.988C222.503 458.588 231.403 447.488 233.403 438.488Z" fill="#FDA200"/>
<ellipse cx="213.903" cy="460.489" rx="32.5" ry="31" fill="white"/>
<path d="M459.903 424.489C353.903 426.489 323.07 503.551 322.903 544.551C307.403 492.551 322.524 463.377 320.403 467.051C316.903 473.113 340.57 411.989 353.403 381.989C367.403 299.189 424.236 216.155 450.903 184.989C523.403 117.989 587.403 218.989 575.403 219.989C563.403 220.989 524.903 216.489 517.403 227.989C511.403 237.189 543.737 322.655 563.403 381.989C568.737 381.989 588.018 445.042 595.403 468.989C603.903 496.551 595.07 500.217 595.403 521.051V551.277C595.584 554.764 595.58 558.04 595.403 561.051V551.277C593.019 505.338 558.423 422.63 459.903 424.489Z" fill="#FD5F55" stroke="#FD5F55"/>
</svg>
