<svg width="2376" height="2140" viewBox="0 0 2376 2140" fill="none" xmlns="http://www.w3.org/2000/svg">
<path d="M1327.61 17L1293.11 0L1217.11 36.5L1234.11 62L1327.61 17Z" fill="#0D0C1D"/>
<path d="M0.108887 657.018L1290.11 0.0180619L1484.01 864.479L248.523 1580.56L0.108887 657.018Z" fill="#0D0C1D"/>
<path d="M37.1089 673.5L1327.11 16.5L1521.01 880.961L285.523 1597.04L37.1089 673.5Z" fill="#161B33"/>
<path d="M285.609 1597.5L248.109 1581L228.109 1492H257.609L285.609 1597.5Z" fill="#0D0C1D"/>
<path d="M299.931 1655L1536.62 941L2375.79 1425.5L1139.11 2139.5L299.931 1655Z" fill="#0D0C1D"/>
<path d="M2374.43 1423.5L2374.43 1367L2288.93 1392.5L2374.43 1423.5Z" fill="#0D0C1D"/>
<path d="M300.609 1597L300.109 1656L525 1643.5L300.609 1597Z" fill="#0D0C1D"/>
<path d="M300.609 1597L1537.43 883L2375.75 1367L1139.06 2081L300.609 1597Z" fill="#161B33"/>
<rect width="86" height="82" rx="8" transform="matrix(0.866025 -0.5 0.866025 0.5 510.327 1682)" fill="#A69CAC"/>
<rect width="86" height="82" rx="8" transform="matrix(0.866025 -0.5 0.866025 0.5 589.135 1636.5)" fill="#A69CAC"/>
<rect width="86" height="82" rx="8" transform="matrix(0.866025 -0.5 0.866025 0.5 589.135 1636.5)" fill="#A69CAC"/>
<rect width="86" height="82" rx="8" transform="matrix(0.866025 -0.5 0.866025 0.5 669.676 1590)" fill="#A69CAC"/>
<rect width="86" height="82" rx="8" transform="matrix(0.866025 -0.5 0.866025 0.5 750.216 1543.5)" fill="#A69CAC"/>
<rect width="86" height="82" rx="8" transform="matrix(0.866025 -0.5 0.866025 0.5 829.025 1498)" fill="#A69CAC"/>
<rect width="86" height="82" rx="8" transform="matrix(0.866025 -0.5 0.866025 0.5 704.316 1658)" fill="#A69CAC"/>
<rect width="86" height="82" rx="8" transform="matrix(0.866025 -0.5 0.866025 0.5 783.125 1612.5)" fill="#A69CAC"/>
<rect width="86" height="82" rx="8" transform="matrix(0.866025 -0.5 0.866025 0.5 863.666 1566)" fill="#A69CAC"/>
<rect width="86" height="82" rx="8" transform="matrix(0.866025 -0.5 0.866025 0.5 944.206 1519.5)" fill="#A69CAC"/>
<rect width="86" height="82" rx="8" transform="matrix(0.866025 -0.5 0.866025 0.5 1023.01 1474)" fill="#A69CAC"/>
<rect width="86" height="82" rx="8" transform="matrix(0.866025 -0.5 0.866025 0.5 1103.55 1427.5)" fill="#A69CAC"/>
<rect width="86" height="82" rx="8" transform="matrix(0.866025 -0.5 0.866025 0.5 1184.09 1381)" fill="#A69CAC"/>
<rect width="86" height="82" rx="8" transform="matrix(0.866025 -0.5 0.866025 0.5 809.971 1685)" fill="#A69CAC"/>
<rect width="86" height="82" rx="8" transform="matrix(0.866025 -0.5 0.866025 0.5 888.78 1639.5)" fill="#A69CAC"/>
<rect width="86" height="82" rx="8" transform="matrix(0.866025 -0.5 0.866025 0.5 969.32 1593)" fill="#A69CAC"/>
<rect width="86" height="82" rx="8" transform="matrix(0.866025 -0.5 0.866025 0.5 1049.86 1546.5)" fill="#A69CAC"/>
<rect width="86" height="82" rx="8" transform="matrix(0.866025 -0.5 0.866025 0.5 1128.67 1501)" fill="#A69CAC"/>
<rect width="86" height="82" rx="8" transform="matrix(0.866025 -0.5 0.866025 0.5 1209.21 1454.5)" fill="#A69CAC"/>
<rect width="86" height="82" rx="8" transform="matrix(0.866025 -0.5 0.866025 0.5 1289.75 1408)" fill="#A69CAC"/>
<rect width="86" height="82" rx="8" transform="matrix(0.866025 -0.5 0.866025 0.5 1368.56 1362.5)" fill="#A69CAC"/>
<rect width="86" height="82" rx="8" transform="matrix(0.866025 -0.5 0.866025 0.5 932.947 1702)" fill="#A69CAC"/>
<rect width="104" height="82" rx="8" transform="matrix(0.866025 -0.5 0.866025 0.5 815.167 1858)" fill="#A69CAC"/>
<rect width="106" height="82" rx="8" transform="matrix(0.866025 -0.5 0.866025 0.5 910.43 1803)" fill="#A69CAC"/>
<rect width="106" height="82" rx="8" transform="matrix(0.866025 -0.5 0.866025 0.5 1007.42 1747)" fill="#A69CAC"/>
<rect width="106" height="82" rx="8" transform="matrix(0.866025 -0.5 0.866025 0.5 1613.64 1397)" fill="#A69CAC"/>
<rect width="106" height="82" rx="8" transform="matrix(0.866025 -0.5 0.866025 0.5 1710.64 1341)" fill="#A69CAC"/>
<rect width="106" height="82" rx="8" transform="matrix(0.866025 -0.5 0.866025 0.5 1807.63 1285)" fill="#A69CAC"/>
<rect width="110" height="82" rx="8" transform="matrix(0.866025 -0.5 0.866025 0.5 1902.9 1230)" fill="#A69CAC"/>
<rect width="86" height="82" rx="8" transform="matrix(0.866025 -0.5 0.866025 0.5 1011.76 1656.5)" fill="#A69CAC"/>
<rect width="86" height="82" rx="8" transform="matrix(0.866025 -0.5 0.866025 0.5 1092.3 1610)" fill="#A69CAC"/>
<rect width="86" height="82" rx="8" transform="matrix(0.866025 -0.5 0.866025 0.5 1172.84 1563.5)" fill="#A69CAC"/>
<rect width="86" height="82" rx="8" transform="matrix(0.866025 -0.5 0.866025 0.5 1251.64 1518)" fill="#A69CAC"/>
<rect width="86" height="82" rx="8" transform="matrix(0.866025 -0.5 0.866025 0.5 1332.19 1471.5)" fill="#A69CAC"/>
<rect width="86" height="82" rx="8" transform="matrix(0.866025 -0.5 0.866025 0.5 1412.73 1425)" fill="#A69CAC"/>
<rect width="86" height="82" rx="8" transform="matrix(0.866025 -0.5 0.866025 0.5 1491.53 1379.5)" fill="#A69CAC"/>
<rect width="86" height="82" rx="8" transform="matrix(0.866025 -0.5 0.866025 0.5 1447.37 1317)" fill="#A69CAC"/>
<rect width="86" height="82" rx="8" transform="matrix(0.866025 -0.5 0.866025 0.5 1527.91 1270.5)" fill="#A69CAC"/>
<rect width="86" height="82" rx="8" transform="matrix(0.866025 -0.5 0.866025 0.5 1570.34 1334)" fill="#A69CAC"/>
<rect width="86" height="82" rx="8" transform="matrix(0.866025 -0.5 0.866025 0.5 1650.88 1287.5)" fill="#A69CAC"/>
<rect width="86" height="82" rx="8" transform="matrix(0.866025 -0.5 0.866025 0.5 1608.45 1224)" fill="#A69CAC"/>
<rect width="86" height="82" rx="8" transform="matrix(0.866025 -0.5 0.866025 0.5 1263.77 1335)" fill="#A69CAC"/>
<rect width="86" height="82" rx="8" transform="matrix(0.866025 -0.5 0.866025 0.5 1343.44 1289)" fill="#A69CAC"/>
<rect width="86" height="82" rx="8" transform="matrix(0.866025 -0.5 0.866025 0.5 1422.25 1243.5)" fill="#A69CAC"/>
<rect width="86" height="82" rx="8" transform="matrix(0.866025 -0.5 0.866025 0.5 1501.93 1197.5)" fill="#A69CAC"/>
<rect width="86" height="82" rx="8" transform="matrix(0.866025 -0.5 0.866025 0.5 1581.6 1151.5)" fill="#A69CAC"/>
<rect width="124" height="82" rx="8" transform="matrix(0.866025 -0.5 0.866025 0.5 1662.14 1105)" fill="#A69CAC"/>
<rect width="128" height="82" rx="8" transform="matrix(0.866025 -0.5 0.866025 0.5 586.537 1726)" fill="#A69CAC"/>
<rect width="163" height="82" rx="8" transform="matrix(0.866025 -0.5 0.866025 0.5 662.747 1770)" fill="#A69CAC"/>
<rect width="220" height="82" rx="8" transform="matrix(0.866025 -0.5 0.866025 0.5 738.957 1814)" fill="#A69CAC"/>
<rect width="220" height="82" rx="8" transform="matrix(0.866025 -0.5 0.866025 0.5 1731.42 1241)" fill="#A69CAC"/>
<rect width="580" height="82" rx="8" transform="matrix(0.866025 -0.5 0.866025 0.5 1107.02 1689.5)" fill="#A69CAC"/>
<rect width="64" height="13" rx="6.5" transform="matrix(0.866025 -0.5 -0.866025 -0.5 438.447 1629.5)" fill="#A69CAC"/>
<g filter="url(#filter0_i_457_66)">
<rect width="453" height="214" rx="8" transform="matrix(0.866025 -0.5 0.866025 0.5 1326.99 1702.5)" fill="#A69CAC"/>
</g>
<rect width="183" height="82" rx="8" transform="matrix(0.866025 -0.5 0.866025 0.5 1687.26 1178.5)" fill="#A69CAC"/>
<rect width="86" height="82" rx="8" transform="matrix(0.866025 -0.5 0.866025 0.5 909.565 1451.5)" fill="#A69CAC"/>
<rect width="86" height="82" rx="8" transform="matrix(0.866025 -0.5 0.866025 0.5 990.106 1405)" fill="#A69CAC"/>
<rect width="86" height="82" rx="8" transform="matrix(0.866025 -0.5 0.866025 0.5 1068.91 1359.5)" fill="#A69CAC"/>
<rect width="86" height="82" rx="8" transform="matrix(0.866025 -0.5 0.866025 0.5 1149.45 1313)" fill="#A69CAC"/>
<rect width="86" height="82" rx="8" transform="matrix(0.866025 -0.5 0.866025 0.5 1229.99 1266.5)" fill="#A69CAC"/>
<rect width="86" height="82" rx="8" transform="matrix(0.866025 -0.5 0.866025 0.5 1308.8 1221)" fill="#A69CAC"/>
<rect width="86" height="82" rx="8" transform="matrix(0.866025 -0.5 0.866025 0.5 1388.48 1175)" fill="#A69CAC"/>
<rect width="86" height="82" rx="8" transform="matrix(0.866025 -0.5 0.866025 0.5 1468.15 1129)" fill="#A69CAC"/>
<rect width="169" height="82" rx="8" transform="matrix(0.866025 -0.5 0.866025 0.5 1546.96 1083.5)" fill="#A69CAC"/>
<rect width="86" height="82" rx="8" transform="matrix(0.866025 -0.5 0.866025 0.5 1468.15 1129)" fill="#A69CAC"/>
<path d="M822.109 1254.98L1078.19 1111.95L1084.11 1134.5L830.497 1281.54L822.109 1254.98Z" fill="#A69CAC"/>
<path d="M857.609 1299C854.409 1257.8 828.442 1254.67 821.609 1255C900.942 1210.83 1061.11 1108.14 1076.61 1112.5C1092.61 1117 1106.61 1135.17 1112.11 1150.5L857.609 1299Z" fill="#A69CAC"/>
<path d="M846.719 1282.22L1093.61 1139L1112.63 1150.49L859.1 1298L846.719 1282.22Z" fill="#A69CAC"/>
<path d="M858.109 1299L830.609 1281.5L822.109 1255L864.609 1244L858.109 1299Z" fill="#A69CAC"/>
<defs>
<filter id="filter0_i_457_66" x="1331.05" y="1478.34" width="569.522" height="333.813" filterUnits="userSpaceOnUse" color-interpolation-filters="sRGB">
<feFlood flood-opacity="0" result="BackgroundImageFix"/>
<feBlend mode="normal" in="SourceGraphic" in2="BackgroundImageFix" result="shape"/>
<feColorMatrix in="SourceAlpha" type="matrix" values="0 0 0 0 0 0 0 0 0 0 0 0 0 0 0 0 0 0 127 0" result="hardAlpha"/>
<feMorphology radius="2" operator="erode" in="SourceAlpha" result="effect1_innerShadow_457_66"/>
<feOffset dy="5"/>
<feGaussianBlur stdDeviation="11.5"/>
<feComposite in2="hardAlpha" operator="arithmetic" k2="-1" k3="1"/>
<feColorMatrix type="matrix" values="0 0 0 0 0 0 0 0 0 0 0 0 0 0 0 0 0 0 0.25 0"/>
<feBlend mode="normal" in2="shape" result="effect1_innerShadow_457_66"/>
</filter>
</defs>
</svg>
