<svg width="692" height="637" viewBox="0 0 692 637" fill="none" xmlns="http://www.w3.org/2000/svg">
<path d="M659 137.5C659 213.439 597.663 275 522 275C446.337 275 385 213.439 385 137.5C385 61.5608 446.337 0 522 0C597.663 0 659 61.5608 659 137.5ZM456.699 137.5C456.699 173.696 485.935 203.039 522 203.039C558.065 203.039 587.301 173.696 587.301 137.5C587.301 101.304 558.065 71.9609 522 71.9609C485.935 71.9609 456.699 101.304 456.699 137.5Z" fill="black"/>
<path d="M281 351.5C281 431.305 218.096 496 140.5 496C62.904 496 0 431.305 0 351.5C0 271.695 62.904 207 140.5 207C218.096 207 281 271.695 281 351.5ZM73.5309 351.5C73.5309 389.539 103.514 420.376 140.5 420.376C177.486 420.376 207.469 389.539 207.469 351.5C207.469 313.461 177.486 282.624 140.5 282.624C103.514 282.624 73.5309 313.461 73.5309 351.5Z" fill="black"/>
<path d="M692 496C692 573.872 629.544 637 552.5 637C475.456 637 413 573.872 413 496C413 418.128 475.456 355 552.5 355C629.544 355 692 418.128 692 496ZM486.008 496C486.008 533.118 515.777 563.207 552.5 563.207C589.223 563.207 618.992 533.118 618.992 496C618.992 458.882 589.223 428.793 552.5 428.793C515.777 428.793 486.008 458.882 486.008 496Z" fill="black"/>
<rect x="258.361" y="369" width="206.803" height="85.0739" transform="rotate(14.5418 258.361 369)" fill="black"/>
<rect x="214" y="258.164" width="259.335" height="85.0739" transform="rotate(-28.3381 214 258.164)" fill="black"/>
</svg>
