<svg width="871" height="1174" viewBox="0 0 871 1174" fill="none" xmlns="http://www.w3.org/2000/svg">
<rect width="871" height="1174" rx="40" fill="#EEEEEE"/>
<path d="M463.546 688H407.546L426.546 646.5V615H417.546V641C409.046 656.667 386.046 680.2 362.046 649C338.046 617.8 355.379 581.333 367.046 567L436.046 486L501.546 567C514.546 583 534.646 621.8 511.046 649C487.446 676.2 461.212 660.333 451.046 649V615H442.546V646.5L463.546 688Z" fill="black" stroke="black"/>
<path d="M246.546 372H190.546L209.546 330.5V299H200.546V325C192.046 340.667 169.046 364.2 145.046 333C121.046 301.8 138.379 265.333 150.046 251L219.046 170L284.546 251C297.546 267 317.646 305.8 294.046 333C270.446 360.2 244.212 344.333 234.046 333V299H225.546V330.5L246.546 372Z" fill="black" stroke="black"/>
<path d="M635.546 372H579.546L598.546 330.5V299H589.546V325C581.046 340.667 558.046 364.2 534.046 333C510.046 301.8 527.379 265.333 539.046 251L608.046 170L673.546 251C686.546 267 706.646 305.8 683.046 333C659.446 360.2 633.212 344.333 623.046 333V299H614.546V330.5L635.546 372Z" fill="black" stroke="black"/>
<path d="M580.415 811H636.415L617.415 852.5V884H626.415V858C634.915 842.333 657.915 818.8 681.915 850C705.915 881.2 688.582 917.667 676.915 932L607.915 1013L542.415 932C529.415 916 509.315 877.2 532.915 850C556.515 822.8 582.748 838.667 592.915 850V884H601.415V852.5L580.415 811Z" fill="black" stroke="black"/>
<path d="M191.415 811H247.415L228.415 852.5L228.415 884H237.415L237.415 858C245.915 842.333 268.915 818.8 292.915 850C316.915 881.2 299.582 917.667 287.915 932L218.915 1013L153.415 932C140.415 916 120.315 877.2 143.915 850C167.515 822.8 193.748 838.667 203.915 850L203.915 884H212.415L212.415 852.5L191.415 811Z" fill="black" stroke="black"/>
</svg>
