<svg width="1328" height="1295" viewBox="0 0 1328 1295" fill="none" xmlns="http://www.w3.org/2000/svg">
<path d="M983.392 0C986.705 0 989.392 2.68629 989.392 6V1289C989.391 1292.31 986.705 1295 983.392 1295H6C2.6863 1295 0 1292.31 0 1289V6C0 2.68629 2.68629 3.78877e-08 6 0H983.392ZM50.8301 1244.07H931.098V625.674H989.306V240.084H931.098V58.2041H50.8301V1244.07Z" fill="black"/>
<path d="M394.703 962.107C394.279 963.607 395.676 964.988 397.186 964.561L573.205 914.77L445.078 784L394.703 962.107Z" fill="black"/>
<path d="M445.078 784L537.68 694.35C539.28 692.802 541.846 692.847 543.389 694.451L664.499 820.329C666.015 821.905 665.975 824.397 664.408 825.924L573.205 914.77L445.078 784Z" fill="black"/>
<rect width="131.148" height="182.667" rx="4" transform="matrix(0.725998 -0.687697 0.69334 0.720611 1106.08 155.668)" fill="black"/>
<rect width="731.988" height="182.667" rx="4" transform="matrix(0.725986 -0.687709 0.693328 0.720622 555.502 675.167)" fill="black"/>
<rect x="123.695" y="174.606" width="763.869" height="65.4775" fill="black"/>
<rect x="123.695" y="312.838" width="545.62" height="65.4775" fill="black"/>
<rect x="123.695" y="458.346" width="429.221" height="65.4775" fill="black"/>
<rect x="123.695" y="596.569" width="203.698" height="65.4775" fill="black"/>
<rect x="123.695" y="742.077" width="145.499" height="65.4775" fill="black"/>
<rect x="123.695" y="880.307" width="72.7493" height="65.4775" fill="black"/>
</svg>
